<?xml version="1.0" encoding="utf-8"?>
<svg viewBox="0 0 400 224.89019033674964" xmlns="http://www.w3.org/2000/svg">
  <g id="svgg" transform="matrix(0.9999999999999999, 0, 0, 0.9999999999999999, -1.4210854715202004e-14, -2.842170943040401e-14)">
    <path id="path0" d="M388.644 70.634 C 388.559 70.770,389.077 70.800,390.036 70.715 C 392.029 70.537,392.122 70.416,390.264 70.416 C 389.447 70.416,388.718 70.514,388.644 70.634 M379.805 71.541 C 379.805 71.974,379.851 72.151,379.908 71.935 C 379.964 71.718,379.964 71.364,379.908 71.147 C 379.851 70.931,379.805 71.108,379.805 71.541 M396.175 71.611 C 396.175 71.650,396.504 71.979,396.907 72.343 L 397.638 73.003 396.977 72.272 C 396.361 71.591,396.175 71.438,396.175 71.611 M375.893 73.510 C 375.205 74.258,373.850 76.287,373.963 76.400 C 374.008 76.445,374.342 76.006,374.705 75.425 C 375.068 74.844,375.654 74.036,376.008 73.630 C 376.784 72.736,376.693 72.640,375.893 73.510 M26.912 76.063 C 24.568 76.322,23.503 76.974,22.157 78.976 C 20.889 80.863,19.689 81.685,17.548 82.134 C 16.867 82.276,15.146 82.843,13.723 83.394 C 7.688 85.729,5.557 85.974,0.506 84.912 L 0.000 84.806 0.000 135.879 L 0.000 186.952 0.731 186.937 C 1.133 186.929,2.373 186.790,3.487 186.629 C 4.601 186.468,5.588 186.380,5.681 186.432 C 5.773 186.485,5.849 186.438,5.849 186.328 C 5.849 186.156,6.943 186.007,11.924 185.499 C 12.357 185.455,12.964 185.359,13.273 185.286 C 14.114 185.088,17.555 184.653,18.391 184.639 C 18.794 184.632,19.123 184.546,19.123 184.447 C 19.123 184.347,19.270 184.323,19.449 184.391 C 19.629 184.460,19.907 184.435,20.068 184.334 C 20.416 184.117,20.214 184.150,23.285 183.805 C 24.646 183.653,25.861 183.452,25.984 183.359 C 26.108 183.267,27.171 183.064,28.346 182.910 C 29.522 182.755,30.585 182.551,30.709 182.457 C 30.832 182.363,31.642 182.161,32.508 182.008 C 33.375 181.854,34.438 181.592,34.871 181.424 C 35.304 181.257,36.265 181.053,37.008 180.971 C 37.750 180.890,38.671 180.695,39.053 180.539 C 39.436 180.383,40.499 180.130,41.416 179.978 C 42.332 179.825,43.183 179.639,43.307 179.564 C 43.573 179.403,43.376 179.442,46.344 178.964 C 47.643 178.754,48.808 178.500,48.933 178.398 C 49.058 178.296,49.620 178.159,50.181 178.093 C 52.124 177.864,53.206 177.659,53.318 177.497 C 53.380 177.408,53.886 177.276,54.443 177.204 C 56.766 176.904,57.492 176.769,57.705 176.600 C 57.829 176.502,58.538 176.353,59.280 176.269 C 60.022 176.186,60.968 176.013,61.382 175.886 C 61.796 175.758,62.480 175.631,62.901 175.603 C 63.323 175.575,63.736 175.485,63.818 175.402 C 63.900 175.320,64.279 175.252,64.661 175.250 C 65.042 175.249,65.861 175.113,66.479 174.949 C 67.098 174.785,67.731 174.694,67.885 174.746 C 68.040 174.798,68.166 174.745,68.166 174.629 C 68.166 174.513,68.749 174.352,69.460 174.272 C 70.172 174.192,70.956 174.084,71.204 174.032 C 71.451 173.980,71.837 173.930,72.061 173.920 C 72.284 173.911,72.418 173.823,72.358 173.726 C 72.244 173.542,73.533 173.242,79.303 172.110 C 82.560 171.471,89.451 170.040,95.051 168.839 C 98.422 168.115,108.565 165.662,113.048 164.485 C 114.904 163.997,118.650 163.025,121.372 162.324 C 124.094 161.624,127.840 160.659,129.696 160.181 C 131.552 159.703,135.450 158.699,138.358 157.950 C 141.265 157.201,144.753 156.289,146.107 155.923 C 147.461 155.558,148.655 155.311,148.760 155.376 C 148.865 155.441,149.194 155.335,149.491 155.140 C 149.789 154.946,153.252 152.954,157.187 150.714 C 161.122 148.474,164.696 146.414,165.129 146.136 C 165.562 145.859,170.017 143.321,175.028 140.497 C 187.966 133.206,191.790 130.777,197.638 126.135 C 199.123 124.956,201.654 123.209,203.262 122.253 C 209.447 118.578,210.498 117.860,212.055 116.251 L 213.611 114.644 211.757 116.377 C 209.570 118.422,210.068 118.339,207.305 117.124 C 206.071 116.582,203.645 115.604,201.912 114.952 C 200.180 114.299,197.598 113.319,196.175 112.774 C 189.202 110.103,186.776 109.346,181.215 108.103 C 179.730 107.772,177.958 107.334,177.278 107.130 C 176.306 106.839,175.045 106.759,171.400 106.755 L 166.760 106.749 164.627 105.648 C 162.062 104.325,161.761 104.352,160.269 106.044 L 159.206 107.249 157.783 106.357 C 157.000 105.866,154.578 104.669,152.400 103.698 C 147.890 101.686,147.077 101.244,144.464 99.393 C 141.407 97.227,137.605 95.016,133.416 92.967 C 131.255 91.910,128.573 90.489,127.455 89.809 C 121.985 86.483,119.364 87.189,113.842 93.476 C 109.345 98.596,106.480 100.562,103.517 100.562 C 103.084 100.562,101.912 98.640,101.912 97.930 C 101.912 97.589,97.481 95.208,96.063 94.787 C 93.666 94.076,90.340 95.225,85.666 98.381 C 82.406 100.582,79.627 100.175,74.723 96.777 C 72.653 95.343,70.893 94.386,67.952 93.097 C 61.294 90.178,59.047 88.828,57.094 86.574 C 54.990 84.146,54.770 83.962,53.524 83.586 C 52.566 83.296,47.494 82.858,44.379 82.795 C 44.226 82.792,43.956 82.444,43.779 82.021 C 42.325 78.540,33.312 75.357,26.912 76.063 M372.553 77.183 C 371.955 77.523,371.901 77.596,372.328 77.486 C 372.638 77.407,373.039 77.201,373.220 77.029 C 373.663 76.608,373.494 76.647,372.553 77.183 M368.455 77.781 C 369.109 77.827,370.121 77.827,370.705 77.780 C 371.289 77.734,370.754 77.697,369.516 77.697 C 368.279 77.698,367.801 77.736,368.455 77.781 M364.904 77.988 C 364.719 78.050,364.426 78.146,364.254 78.201 C 363.461 78.454,364.253 78.434,365.467 78.171 C 366.519 77.942,366.643 77.878,366.029 77.877 C 365.596 77.876,365.090 77.926,364.904 77.988 M362.929 78.909 C 362.681 79.125,362.420 79.632,362.347 80.034 C 362.166 81.041,362.362 80.954,362.645 79.900 C 362.787 79.375,363.078 78.938,363.385 78.790 C 363.664 78.656,363.777 78.539,363.636 78.530 C 363.495 78.522,363.177 78.692,362.929 78.909 M361.676 81.590 C 361.448 81.895,361.307 82.192,361.365 82.250 C 361.422 82.307,361.643 82.089,361.855 81.765 C 362.355 81.002,362.217 80.867,361.676 81.590 M359.964 82.932 C 359.411 83.225,359.108 83.464,359.289 83.464 C 359.638 83.463,361.080 82.651,361.080 82.456 C 361.080 82.392,361.055 82.353,361.024 82.370 C 360.993 82.387,360.516 82.640,359.964 82.932 M355.717 83.956 C 354.137 84.309,354.784 84.389,356.485 84.052 C 357.342 83.881,357.739 83.741,357.368 83.740 C 356.997 83.739,356.254 83.836,355.717 83.956 M352.950 85.050 L 352.418 85.512 353.150 85.157 C 353.869 84.809,354.074 84.589,353.681 84.589 C 353.571 84.589,353.242 84.797,352.950 85.050 M349.606 87.764 C 348.802 88.512,347.612 89.534,346.963 90.034 C 345.753 90.965,345.457 91.303,346.200 90.905 C 346.670 90.654,350.845 86.976,351.066 86.619 C 351.324 86.200,351.082 86.390,349.606 87.764 M344.544 91.629 C 343.857 92.017,343.638 92.283,343.617 92.753 C 343.591 93.332,343.596 93.335,343.689 92.800 C 343.756 92.415,344.073 92.087,344.672 91.781 C 345.159 91.533,345.557 91.281,345.557 91.222 C 345.557 91.063,345.525 91.076,344.544 91.629 M247.357 92.686 C 246.650 92.815,246.887 92.856,248.464 92.881 C 250.002 92.906,250.569 93.002,250.892 93.294 C 251.276 93.643,251.301 93.643,251.170 93.303 C 250.944 92.715,248.963 92.394,247.357 92.686 M243.420 93.701 C 242.685 94.121,242.942 94.126,243.900 93.710 C 244.316 93.529,244.505 93.381,244.319 93.380 C 244.134 93.380,243.729 93.524,243.420 93.701 M343.138 94.319 C 342.896 94.980,342.902 95.009,343.201 94.614 C 343.487 94.236,343.656 93.588,343.469 93.588 C 343.434 93.588,343.285 93.917,343.138 94.319 M251.783 94.488 C 252.100 94.921,252.702 95.459,253.120 95.683 C 253.838 96.068,253.849 96.068,253.318 95.687 C 253.009 95.465,252.407 94.927,251.981 94.492 L 251.206 93.701 251.783 94.488 M240.720 94.945 C 239.792 95.435,238.729 96.099,238.358 96.418 L 237.683 97.000 238.396 96.529 C 238.788 96.270,239.952 95.605,240.983 95.052 C 242.014 94.499,242.756 94.047,242.632 94.049 C 242.508 94.051,241.648 94.454,240.720 94.945 M342.151 95.626 C 341.648 96.064,341.646 96.076,342.113 95.850 C 342.385 95.718,342.669 95.510,342.745 95.387 C 342.967 95.029,342.724 95.126,342.151 95.626 M255.348 96.554 C 255.778 96.647,257.397 96.712,258.946 96.699 C 260.494 96.685,262.013 96.744,262.320 96.829 C 262.841 96.974,262.849 96.965,262.430 96.701 C 262.118 96.505,260.840 96.412,258.273 96.401 C 256.109 96.391,254.891 96.455,255.348 96.554 M336.948 96.512 C 335.863 96.599,334.924 96.722,334.861 96.786 C 334.700 96.946,338.948 96.721,340.045 96.510 L 340.945 96.337 339.933 96.346 C 339.376 96.350,338.033 96.425,336.948 96.512 M236.631 97.566 C 235.100 98.799,234.117 99.818,232.951 101.383 C 232.292 102.267,231.366 103.274,230.893 103.620 C 229.735 104.469,229.434 104.785,230.259 104.287 C 231.315 103.649,232.124 102.830,233.416 101.094 C 234.482 99.662,235.011 99.139,237.120 97.433 C 237.430 97.183,237.615 96.974,237.531 96.970 C 237.448 96.966,237.043 97.234,236.631 97.566 M263.488 97.309 C 263.827 97.648,266.158 98.941,265.926 98.661 C 265.635 98.311,263.811 97.188,263.533 97.188 C 263.442 97.188,263.421 97.242,263.488 97.309 M332.839 97.813 C 332.464 98.150,331.958 98.681,331.714 98.995 C 331.471 99.308,331.626 99.206,332.060 98.770 C 332.494 98.333,333.102 97.803,333.410 97.593 C 333.718 97.383,333.870 97.209,333.746 97.206 C 333.622 97.203,333.214 97.476,332.839 97.813 M267.616 100.253 C 270.588 103.138,271.839 104.224,270.079 102.392 C 269.213 101.491,267.998 100.344,267.379 99.842 C 266.323 98.987,266.338 99.013,267.616 100.253 M330.024 100.926 C 329.473 101.497,329.224 101.837,329.471 101.681 C 329.902 101.410,331.297 99.888,331.115 99.888 C 331.067 99.888,330.576 100.355,330.024 100.926 M326.772 102.380 C 324.989 102.782,324.985 102.785,326.322 102.659 C 327.064 102.589,327.975 102.400,328.346 102.240 C 329.219 101.864,328.962 101.887,326.772 102.380 M322.160 103.375 C 321.425 103.795,321.682 103.799,322.640 103.383 C 323.056 103.203,323.245 103.054,323.060 103.054 C 322.874 103.053,322.469 103.198,322.160 103.375 M274.522 103.867 C 274.738 103.924,275.093 103.924,275.309 103.867 C 275.526 103.811,275.349 103.764,274.916 103.764 C 274.483 103.764,274.305 103.811,274.522 103.867 M277.278 104.149 C 277.773 104.259,278.463 104.459,278.811 104.593 C 279.699 104.935,279.867 104.881,279.141 104.487 C 278.805 104.305,278.046 104.109,277.454 104.052 C 276.379 103.948,276.379 103.948,277.278 104.149 M318.140 105.493 C 316.871 106.274,315.575 107.279,316.535 106.737 C 317.050 106.448,319.530 104.842,319.652 104.720 C 319.931 104.441,319.454 104.685,318.140 105.493 M228.009 105.166 C 227.638 105.336,227.486 105.480,227.672 105.486 C 227.857 105.491,228.262 105.351,228.571 105.174 C 229.288 104.765,228.898 104.759,228.009 105.166 M280.229 105.162 C 280.925 105.650,285.385 107.987,285.620 107.987 C 285.732 107.987,284.523 107.278,282.934 106.412 C 280.145 104.892,279.258 104.482,280.229 105.162 M225.647 105.899 C 225.461 105.969,225.068 106.116,224.772 106.225 C 224.476 106.335,224.280 106.470,224.335 106.525 C 224.391 106.580,224.936 106.430,225.548 106.192 C 226.159 105.953,226.507 105.761,226.322 105.765 C 226.136 105.769,225.832 105.829,225.647 105.899 M223.102 107.368 C 222.402 108.062,222.399 108.070,223.049 107.538 C 223.426 107.230,223.831 106.901,223.948 106.807 C 224.066 106.713,224.090 106.637,224.001 106.637 C 223.913 106.637,223.508 106.966,223.102 107.368 M315.069 107.456 C 313.921 108.217,313.517 108.618,314.413 108.107 C 315.202 107.657,316.255 106.874,316.081 106.867 C 316.017 106.864,315.562 107.129,315.069 107.456 M294.877 108.374 C 295.276 108.424,295.985 108.424,296.452 108.376 C 296.918 108.327,296.592 108.286,295.726 108.285 C 294.859 108.284,294.477 108.324,294.877 108.374 M221.935 108.661 C 221.858 108.785,221.625 108.887,221.415 108.888 C 220.925 108.889,219.280 109.344,219.386 109.449 C 219.557 109.620,221.727 109.049,222.039 108.751 C 222.220 108.578,222.302 108.436,222.221 108.436 C 222.140 108.436,222.011 108.538,221.935 108.661 M292.635 108.596 C 292.915 108.649,293.320 108.647,293.535 108.591 C 293.750 108.535,293.521 108.491,293.026 108.493 C 292.531 108.496,292.355 108.542,292.635 108.596 M312.655 108.902 C 312.191 109.147,311.811 109.397,311.811 109.459 C 311.811 109.520,312.216 109.364,312.711 109.111 C 313.206 108.859,313.611 108.604,313.611 108.544 C 313.611 108.397,313.609 108.398,312.655 108.902 M288.803 108.824 C 289.202 108.873,289.911 108.874,290.377 108.826 C 290.844 108.777,290.517 108.736,289.651 108.735 C 288.785 108.734,288.403 108.774,288.803 108.824 M298.556 108.730 C 298.608 108.767,298.954 108.975,299.325 109.193 L 300.000 109.588 299.469 109.125 C 299.177 108.870,298.831 108.661,298.700 108.661 C 298.570 108.661,298.505 108.692,298.556 108.730 M300.120 109.691 C 300.108 110.081,301.178 110.970,301.502 110.841 C 301.707 110.759,301.683 110.716,301.425 110.704 C 301.219 110.694,300.842 110.408,300.588 110.067 C 300.334 109.727,300.124 109.558,300.120 109.691 M310.236 110.124 C 309.927 110.301,309.775 110.445,309.899 110.445 C 310.022 110.445,310.377 110.301,310.686 110.124 C 310.996 109.947,311.147 109.802,311.024 109.802 C 310.900 109.802,310.546 109.947,310.236 110.124 M216.486 111.247 C 215.981 111.679,215.140 112.565,214.617 113.216 L 213.667 114.398 214.620 113.386 C 215.145 112.829,216.043 111.945,216.617 111.422 C 217.875 110.274,217.776 110.142,216.486 111.247 M307.312 110.950 C 306.755 111.068,305.287 111.121,304.049 111.069 C 302.319 110.997,302.008 111.024,302.700 111.186 C 303.784 111.440,307.650 111.282,308.436 110.951 C 309.122 110.663,308.670 110.662,307.312 110.950 M145.490 157.141 C 142.684 158.735,141.499 159.511,143.082 158.718 C 144.567 157.974,148.706 155.641,148.706 155.548 C 148.706 155.346,148.260 155.567,145.490 157.141 M141.226 159.520 C 140.762 159.765,140.382 160.016,140.382 160.077 C 140.382 160.139,140.787 159.983,141.282 159.730 C 141.777 159.478,142.182 159.222,142.182 159.163 C 142.182 159.016,142.181 159.016,141.226 159.520 M139.357 160.510 C 139.117 160.692,139.021 160.841,139.145 160.841 C 139.269 160.841,139.567 160.692,139.807 160.510 C 140.047 160.329,140.142 160.180,140.019 160.180 C 139.895 160.180,139.597 160.329,139.357 160.510 M137.852 161.320 C 137.388 161.565,137.008 161.816,137.008 161.877 C 137.008 161.939,137.413 161.782,137.908 161.530 C 138.403 161.277,138.808 161.022,138.808 160.963 C 138.808 160.816,138.806 160.816,137.852 161.320 M135.827 162.333 C 134.955 162.807,135.053 162.970,135.939 162.519 C 136.787 162.088,136.937 161.976,136.652 161.989 C 136.538 161.994,136.167 162.149,135.827 162.333 M133.733 163.435 C 133.492 163.617,133.403 163.768,133.534 163.772 C 133.665 163.776,133.969 163.631,134.209 163.449 C 134.449 163.268,134.538 163.116,134.407 163.112 C 134.276 163.108,133.973 163.253,133.733 163.435 M132.115 164.236 C 131.836 164.348,131.609 164.494,131.609 164.560 C 131.609 164.778,131.967 164.684,132.409 164.349 C 132.907 163.973,132.837 163.946,132.115 164.236 M129.683 165.460 C 129.443 165.641,129.354 165.793,129.485 165.797 C 129.616 165.801,129.919 165.656,130.159 165.474 C 130.400 165.292,130.489 165.140,130.358 165.137 C 130.227 165.133,129.923 165.278,129.683 165.460 M126.884 166.817 C 126.080 167.238,125.523 167.582,125.647 167.582 C 125.771 167.582,126.530 167.238,127.334 166.817 C 128.138 166.396,128.695 166.051,128.571 166.051 C 128.448 166.051,127.688 166.396,126.884 166.817 M123.735 168.279 C 123.301 168.516,123.048 168.710,123.172 168.710 C 123.296 168.710,123.751 168.516,124.184 168.279 C 124.618 168.042,124.871 167.848,124.747 167.848 C 124.623 167.848,124.168 168.042,123.735 168.279 M121.485 169.291 C 121.175 169.468,121.024 169.613,121.147 169.613 C 121.271 169.613,121.625 169.468,121.935 169.291 C 122.244 169.115,122.396 168.970,122.272 168.970 C 122.148 168.970,121.794 169.115,121.485 169.291 M119.291 170.210 C 118.889 170.386,118.560 170.582,118.560 170.645 C 118.560 170.762,120.138 170.150,120.330 169.959 C 120.521 169.768,120.034 169.886,119.291 170.210 " stroke="none" fill-rule="evenodd" style="fill: rgb(208, 214, 220);"/>
    <path id="path1" d="M183.802 55.997 C 183.802 56.109,183.593 56.146,183.337 56.079 C 183.082 56.012,182.651 56.067,182.381 56.199 C 182.111 56.332,181.340 56.551,180.668 56.686 C 179.996 56.821,179.338 57.016,179.205 57.120 C 179.073 57.224,178.434 57.433,177.784 57.586 C 177.134 57.738,176.603 57.946,176.603 58.047 C 176.603 58.149,176.274 58.303,175.872 58.391 C 175.174 58.542,173.468 59.351,173.229 59.644 C 173.167 59.720,172.698 59.994,172.187 60.253 C 171.677 60.511,171.197 60.886,171.121 61.084 C 170.971 61.474,169.124 61.361,168.580 60.928 C 168.420 60.801,168.269 60.802,168.189 60.930 C 168.118 61.045,167.502 61.210,166.819 61.295 C 166.137 61.380,165.434 61.594,165.258 61.771 C 165.081 61.948,164.823 62.092,164.684 62.092 C 164.342 62.092,163.086 62.754,162.706 63.134 C 162.536 63.303,162.311 63.442,162.205 63.442 C 162.099 63.442,161.878 63.569,161.715 63.723 C 161.551 63.878,161.012 64.281,160.517 64.619 C 160.022 64.957,159.314 65.484,158.943 65.791 C 158.571 66.097,158.030 66.529,157.739 66.751 C 157.448 66.973,156.885 67.458,156.487 67.829 C 156.090 68.200,155.265 68.927,154.654 69.443 C 152.755 71.049,150.956 72.804,150.956 73.050 C 150.956 73.314,148.615 75.564,146.564 77.272 C 145.824 77.888,144.308 79.210,143.195 80.212 C 136.486 86.244,133.112 87.715,128.950 86.419 C 127.120 85.850,126.495 85.383,123.622 82.432 C 120.019 78.733,119.498 78.516,114.244 78.515 C 109.814 78.515,109.593 78.466,107.708 77.049 C 105.622 75.480,105.045 75.409,102.417 76.396 C 101.212 76.849,98.769 77.717,96.988 78.325 C 95.208 78.933,92.323 80.047,90.577 80.801 C 81.948 84.526,78.687 84.308,72.537 79.596 C 67.348 75.622,66.220 75.040,63.957 75.177 L 62.685 75.253 61.948 73.992 C 61.064 72.480,59.115 70.630,57.131 69.417 C 56.333 68.930,55.561 68.366,55.416 68.165 C 55.270 67.964,54.738 67.614,54.235 67.386 C 53.731 67.159,53.318 66.887,53.318 66.782 C 53.318 66.678,53.186 66.592,53.023 66.592 C 52.861 66.592,52.532 66.411,52.292 66.191 C 52.052 65.970,51.502 65.572,51.069 65.307 C 50.636 65.041,49.730 64.117,49.056 63.255 C 48.091 62.019,47.676 61.662,47.099 61.568 C 46.697 61.503,46.033 61.298,45.625 61.112 C 45.216 60.927,44.093 60.412,43.129 59.969 C 41.085 59.030,40.979 59.040,38.312 60.435 C 36.540 61.362,36.079 61.600,35.105 62.088 C 33.918 62.683,31.496 62.517,31.496 61.840 C 31.496 61.517,30.622 61.615,30.028 62.004 C 29.724 62.203,29.531 62.457,29.599 62.567 C 29.667 62.677,29.616 62.767,29.485 62.767 C 29.354 62.767,29.246 62.873,29.246 63.002 C 29.246 63.465,28.436 64.086,27.240 64.540 C 26.031 64.999,24.522 66.209,24.522 66.721 C 24.522 67.498,23.855 67.544,22.761 66.842 C 22.161 66.457,21.553 66.142,21.409 66.142 C 21.265 66.142,21.147 66.024,21.147 65.879 C 21.147 65.735,21.081 65.683,20.999 65.765 C 20.918 65.846,20.706 65.792,20.528 65.644 C 19.064 64.429,13.099 66.038,13.056 67.660 C 13.052 67.815,12.955 67.942,12.841 67.942 C 12.726 67.942,12.347 68.180,11.997 68.472 C 11.647 68.763,10.830 69.137,10.180 69.302 C 9.530 69.467,8.999 69.683,8.999 69.784 C 8.999 69.884,8.860 69.966,8.689 69.966 C 8.519 69.966,7.950 70.371,7.424 70.866 C 6.899 71.361,6.543 71.766,6.634 71.766 C 6.725 71.766,6.564 71.957,6.276 72.189 C 5.917 72.480,5.610 72.558,5.295 72.438 C 4.685 72.204,1.790 71.680,1.294 71.712 C 1.077 71.726,0.900 71.665,0.900 71.575 C 0.900 71.486,0.697 71.413,0.450 71.413 C 0.010 71.413,0.000 71.562,0.000 78.109 L 0.000 84.806 0.506 84.912 C 5.557 85.974,7.688 85.729,13.723 83.394 C 15.146 82.843,16.867 82.276,17.548 82.134 C 19.626 81.698,20.906 80.850,21.990 79.190 C 23.670 76.616,24.994 75.992,28.761 76.001 C 35.324 76.018,42.467 78.881,43.779 82.021 C 43.956 82.444,44.226 82.792,44.379 82.795 C 47.494 82.858,52.566 83.296,53.524 83.586 C 54.770 83.962,54.990 84.146,57.094 86.574 C 59.047 88.828,61.294 90.178,67.952 93.097 C 70.893 94.386,72.653 95.343,74.723 96.777 C 79.627 100.175,82.406 100.582,85.666 98.381 C 90.340 95.225,93.666 94.076,96.063 94.787 C 97.481 95.208,101.912 97.589,101.912 97.930 C 101.912 98.640,103.084 100.562,103.517 100.562 C 106.480 100.562,109.345 98.596,113.842 93.476 C 119.364 87.189,121.985 86.483,127.455 89.809 C 128.573 90.489,131.255 91.910,133.416 92.967 C 137.605 95.016,141.407 97.227,144.464 99.393 C 147.077 101.244,147.890 101.686,152.400 103.698 C 154.578 104.669,157.000 105.866,157.783 106.357 L 159.206 107.249 160.269 106.044 C 161.761 104.352,162.062 104.325,164.627 105.648 L 166.760 106.749 171.400 106.755 C 175.045 106.759,176.306 106.839,177.278 107.130 C 177.958 107.334,179.730 107.772,181.215 108.103 C 186.804 109.352,189.233 110.112,196.288 112.819 C 197.773 113.389,200.101 114.268,201.462 114.773 C 202.823 115.278,205.232 116.245,206.814 116.921 L 209.692 118.150 210.448 117.573 C 210.863 117.256,211.948 116.164,212.857 115.147 C 216.744 110.797,218.642 109.337,220.874 108.980 C 221.581 108.867,221.956 108.642,222.397 108.063 C 223.221 106.983,224.293 106.379,226.884 105.537 C 229.666 104.632,231.226 103.631,232.458 101.962 C 237.600 94.995,249.202 90.053,251.519 93.843 C 252.047 94.707,253.316 95.757,254.331 96.170 C 254.578 96.271,256.400 96.371,258.380 96.393 C 263.371 96.448,264.703 97.108,269.667 101.980 L 271.730 104.005 273.395 103.879 C 276.442 103.648,278.271 103.999,280.725 105.282 C 281.923 105.908,283.864 106.899,285.039 107.485 L 287.177 108.549 289.764 108.532 C 291.187 108.523,293.566 108.472,295.051 108.420 C 298.228 108.307,299.011 108.513,300.299 109.800 C 303.077 112.579,309.012 111.437,316.198 106.743 C 320.470 103.952,322.243 103.161,325.468 102.606 C 329.049 101.990,329.079 101.976,330.624 100.199 C 333.455 96.942,333.943 96.712,338.808 96.351 C 342.259 96.095,343.281 95.310,343.580 92.688 C 343.627 92.282,343.932 91.970,344.679 91.564 C 345.869 90.917,347.692 89.538,349.156 88.177 C 352.577 84.998,354.023 84.202,357.284 83.705 C 360.317 83.242,361.946 82.049,362.375 79.975 C 362.706 78.377,365.121 77.622,369.917 77.617 C 372.347 77.615,373.478 77.029,374.665 75.157 C 375.663 73.584,376.641 72.672,377.351 72.652 C 377.823 72.638,377.825 72.631,377.390 72.450 C 376.696 72.161,375.775 71.074,375.379 70.074 C 374.984 69.078,374.508 68.690,373.453 68.504 C 373.070 68.436,372.235 68.183,371.598 67.941 C 370.962 67.699,369.625 67.388,368.629 67.248 C 367.632 67.109,366.614 66.909,366.367 66.802 C 365.979 66.636,362.965 66.234,361.024 66.090 C 360.683 66.064,360.405 65.954,360.405 65.844 C 360.405 65.734,360.253 65.702,360.067 65.773 C 359.882 65.844,359.730 65.799,359.730 65.673 C 359.730 65.293,358.328 64.830,357.368 64.893 C 356.225 64.968,352.680 65.720,352.531 65.919 C 352.469 66.002,351.786 66.208,351.012 66.377 C 350.239 66.546,349.606 66.752,349.606 66.835 C 349.606 66.918,349.308 67.045,348.943 67.118 C 348.579 67.191,348.091 67.413,347.860 67.611 C 347.442 67.968,344.605 69.173,341.173 70.450 C 340.154 70.830,338.310 71.267,336.912 71.462 C 333.045 71.999,332.553 72.255,329.070 75.543 C 324.321 80.026,322.546 80.847,319.009 80.199 C 311.674 78.855,308.496 79.294,301.247 82.657 C 290.414 87.682,285.721 87.355,277.053 80.972 C 269.539 75.439,268.160 75.237,260.967 78.618 C 259.049 79.519,256.924 80.444,256.243 80.673 C 252.364 81.977,244.132 79.933,239.820 76.596 C 239.139 76.070,238.330 75.564,238.020 75.473 C 235.860 74.838,231.102 70.468,230.065 68.166 C 229.797 67.571,228.521 66.142,228.258 66.142 C 228.173 66.142,227.891 65.945,227.632 65.704 C 227.118 65.225,224.970 64.117,224.556 64.117 C 224.413 64.117,224.297 64.030,224.297 63.923 C 224.297 63.816,223.664 63.604,222.891 63.453 C 222.118 63.301,221.282 63.083,221.035 62.968 C 220.209 62.585,216.816 62.382,210.694 62.351 C 206.980 62.332,204.338 62.225,203.880 62.073 C 203.468 61.937,202.987 61.882,202.810 61.949 C 202.634 62.017,202.437 61.988,202.373 61.885 C 202.310 61.782,201.775 61.580,201.185 61.435 C 200.595 61.291,199.758 61.014,199.325 60.820 C 198.566 60.481,197.354 59.941,196.175 59.420 C 195.866 59.283,195.461 59.072,195.276 58.950 C 194.579 58.496,191.075 56.957,190.101 56.679 C 189.544 56.519,188.967 56.297,188.818 56.184 C 188.668 56.071,188.447 56.040,188.327 56.115 C 188.206 56.189,188.044 56.147,187.966 56.022 C 187.791 55.738,183.802 55.714,183.802 55.997 M389.954 70.247 C 389.897 70.340,390.691 70.401,391.719 70.382 C 393.615 70.348,393.445 70.260,391.261 70.143 C 390.599 70.108,390.011 70.155,389.954 70.247 M378.346 72.375 C 378.625 72.428,379.080 72.428,379.359 72.375 C 379.637 72.321,379.409 72.277,378.853 72.277 C 378.296 72.277,378.068 72.321,378.346 72.375 M146.007 155.930 C 144.708 156.291,141.265 157.199,138.358 157.949 C 130.020 160.098,126.678 160.959,121.372 162.324 C 118.650 163.025,114.904 163.997,113.048 164.485 C 108.565 165.662,98.422 168.115,95.051 168.839 C 89.451 170.040,82.560 171.471,79.303 172.110 C 73.478 173.253,72.244 173.542,72.365 173.737 C 72.429 173.842,73.207 173.868,74.093 173.796 C 74.978 173.724,78.943 173.524,82.902 173.351 C 86.862 173.179,90.911 172.978,91.901 172.904 C 92.891 172.830,94.409 172.735,95.276 172.693 C 96.142 172.652,97.610 172.555,98.538 172.478 C 99.466 172.401,101.744 172.283,103.600 172.217 C 105.456 172.150,108.240 172.032,109.786 171.956 C 111.333 171.879,113.155 171.797,113.836 171.773 C 115.103 171.728,115.910 171.575,117.098 171.152 C 120.193 170.049,133.026 163.947,139.033 160.721 C 142.223 159.008,147.891 155.857,148.363 155.534 C 148.952 155.131,148.773 155.161,146.007 155.930 " stroke="none" fill-rule="evenodd" style="fill: rgb(224, 227, 232);"/>
    <path id="path2" d="M100.690 61.139 C 100.645 61.184,100.066 61.275,99.404 61.341 C 97.803 61.500,96.487 61.803,95.317 62.283 C 94.969 62.425,94.535 62.542,94.352 62.542 C 94.170 62.542,93.623 62.745,93.138 62.992 C 92.653 63.240,92.126 63.443,91.966 63.443 C 91.807 63.444,91.423 63.576,91.114 63.737 C 90.804 63.898,90.045 64.160,89.426 64.320 C 88.808 64.480,88.150 64.668,87.964 64.737 C 87.778 64.807,87.551 64.847,87.458 64.828 C 87.365 64.808,87.289 64.875,87.289 64.976 C 87.289 65.114,85.123 65.679,84.139 65.798 C 84.078 65.805,83.921 65.879,83.792 65.961 C 83.046 66.437,78.223 66.355,76.378 65.835 C 71.426 64.440,69.843 64.120,67.861 64.119 C 65.996 64.117,62.767 64.684,62.767 65.013 C 62.767 65.094,62.266 65.297,61.652 65.464 C 61.039 65.631,60.585 65.844,60.642 65.936 C 60.699 66.029,60.416 66.174,60.013 66.258 C 59.610 66.342,59.075 66.541,58.823 66.699 C 58.572 66.858,57.786 67.117,57.077 67.276 C 54.917 67.759,54.925 68.073,57.131 69.419 C 59.113 70.628,61.063 72.479,61.948 73.992 L 62.685 75.253 63.957 75.177 C 66.220 75.040,67.348 75.622,72.537 79.596 C 78.687 84.308,81.948 84.526,90.577 80.801 C 92.323 80.047,95.208 78.933,96.988 78.325 C 98.769 77.717,101.212 76.849,102.417 76.396 C 105.045 75.409,105.622 75.480,107.708 77.049 C 109.593 78.466,109.814 78.515,114.244 78.515 C 119.498 78.516,120.019 78.733,123.622 82.432 C 130.010 88.991,133.926 88.547,143.195 80.212 C 144.308 79.210,145.824 77.888,146.564 77.272 C 149.920 74.478,151.389 72.891,150.619 72.891 C 150.433 72.891,150.281 72.809,150.281 72.708 C 150.281 72.608,149.775 72.396,149.156 72.238 C 148.538 72.079,148.031 71.858,148.031 71.745 C 148.031 71.633,147.848 71.541,147.623 71.541 C 147.398 71.541,146.644 71.249,145.946 70.893 C 145.249 70.536,144.623 70.300,144.555 70.368 C 144.487 70.436,144.432 70.367,144.432 70.215 C 144.432 70.064,144.342 69.995,144.232 70.063 C 144.123 70.131,143.908 70.036,143.756 69.852 C 143.603 69.669,143.086 69.401,142.605 69.257 C 142.125 69.113,141.732 68.917,141.732 68.822 C 141.732 68.727,141.150 68.523,140.439 68.370 C 139.727 68.217,139.032 68.006,138.894 67.902 C 138.469 67.579,133.383 67.653,132.839 67.989 C 132.633 68.116,131.552 68.321,130.034 68.522 C 126.914 68.935,123.796 68.544,121.920 67.506 C 121.248 67.134,120.368 66.656,119.966 66.444 C 119.564 66.232,119.235 65.988,119.235 65.902 C 119.235 65.817,118.931 65.621,118.560 65.467 C 118.189 65.313,117.885 65.107,117.885 65.008 C 117.885 64.910,117.430 64.655,116.873 64.442 C 116.316 64.230,115.861 63.984,115.861 63.897 C 115.861 63.810,115.430 63.610,114.904 63.453 C 114.379 63.296,113.890 63.075,113.819 62.961 C 113.747 62.848,113.060 62.627,112.291 62.470 C 111.523 62.313,110.965 62.113,111.052 62.026 C 111.140 61.939,111.161 61.867,111.100 61.867 C 111.039 61.867,109.884 61.703,108.532 61.503 C 106.343 61.178,100.904 60.926,100.690 61.139 M243.616 63.546 C 243.557 63.605,243.185 63.678,242.789 63.708 C 242.393 63.738,242.070 63.829,242.070 63.909 C 242.070 63.990,241.462 64.184,240.720 64.342 C 239.978 64.500,239.370 64.716,239.370 64.823 C 239.370 64.929,239.294 65.001,239.201 64.981 C 239.109 64.961,238.729 65.069,238.358 65.222 C 237.987 65.375,237.404 65.555,237.064 65.624 C 236.724 65.692,236.445 65.827,236.445 65.924 C 236.445 66.021,235.939 66.230,235.321 66.388 C 234.702 66.547,234.196 66.747,234.196 66.834 C 234.196 66.920,233.512 67.117,232.677 67.271 C 231.842 67.425,231.036 67.647,230.887 67.766 C 230.738 67.884,230.517 67.919,230.397 67.845 C 229.680 67.402,230.099 68.361,231.243 69.781 C 233.837 73.002,235.933 74.801,237.774 75.385 C 238.219 75.527,239.139 76.072,239.820 76.598 C 244.140 79.936,252.365 81.976,256.243 80.673 C 256.924 80.444,259.049 79.519,260.967 78.618 C 268.160 75.237,269.539 75.439,277.053 80.972 C 285.721 87.355,290.414 87.682,301.247 82.657 C 308.496 79.294,311.674 78.855,319.009 80.199 C 322.546 80.847,324.321 80.026,329.070 75.543 C 332.553 72.255,333.045 71.999,336.912 71.462 C 339.340 71.124,340.770 70.679,345.107 68.910 C 348.663 67.460,348.749 67.338,346.376 67.116 C 345.554 67.039,344.882 66.912,344.882 66.833 C 344.882 66.754,344.603 66.667,344.263 66.640 C 343.923 66.613,343.094 66.490,342.422 66.366 C 341.750 66.243,340.864 66.142,340.454 66.142 C 340.043 66.142,339.708 66.063,339.708 65.967 C 339.708 65.671,334.913 65.497,331.644 65.674 C 330.746 65.723,330.328 65.823,330.519 65.943 C 330.714 66.067,330.498 66.136,329.906 66.138 C 328.808 66.142,326.498 66.529,325.872 66.813 C 325.624 66.926,324.617 67.177,323.633 67.372 C 322.648 67.566,321.788 67.803,321.720 67.898 C 321.653 67.992,321.040 68.193,320.360 68.344 C 318.994 68.646,318.945 68.661,318.039 69.032 C 317.691 69.175,317.176 69.291,316.896 69.291 C 316.615 69.291,316.313 69.364,316.225 69.452 C 316.136 69.541,315.841 69.639,315.569 69.670 C 315.296 69.702,314.516 69.845,313.836 69.988 C 312.399 70.290,305.737 70.424,305.737 70.151 C 305.737 70.049,305.338 69.966,304.850 69.966 C 304.363 69.966,303.894 69.854,303.810 69.717 C 303.702 69.544,303.597 69.561,303.462 69.774 C 303.308 70.017,303.268 70.019,303.266 69.784 C 303.264 69.622,303.168 69.548,303.053 69.619 C 302.937 69.690,302.787 69.657,302.718 69.545 C 302.649 69.434,302.211 69.271,301.746 69.184 C 301.281 69.097,300.773 68.922,300.619 68.794 C 300.464 68.666,300.337 68.627,300.337 68.707 C 300.337 68.786,300.084 68.686,299.775 68.483 C 299.466 68.281,299.213 68.181,299.213 68.263 C 299.213 68.344,298.782 68.161,298.256 67.855 C 297.731 67.550,296.895 67.229,296.400 67.142 C 295.906 67.054,295.399 66.914,295.276 66.829 C 294.604 66.370,285.770 66.361,286.054 66.820 C 286.107 66.906,284.939 67.112,283.458 67.277 C 281.977 67.441,280.765 67.660,280.765 67.763 C 280.765 67.866,280.493 67.901,280.161 67.841 C 279.828 67.780,279.448 67.816,279.317 67.920 C 278.546 68.528,266.706 68.548,263.330 67.946 C 261.876 67.688,258.500 67.603,254.556 67.726 C 253.690 67.753,252.829 67.719,252.643 67.651 C 252.458 67.582,251.930 67.464,251.470 67.388 C 251.010 67.311,250.485 67.101,250.305 66.920 C 250.124 66.740,249.873 66.592,249.748 66.592 C 249.622 66.592,249.362 66.367,249.169 66.092 C 248.976 65.817,248.819 65.673,248.819 65.772 C 248.819 65.870,248.507 65.640,248.127 65.259 C 247.746 64.878,247.309 64.567,247.157 64.567 C 247.004 64.567,246.668 64.370,246.409 64.129 C 245.977 63.727,243.874 63.287,243.616 63.546 M397.243 68.524 C 397.170 68.596,396.445 68.651,395.631 68.644 C 394.765 68.638,394.151 68.729,394.151 68.863 C 394.151 68.989,394.049 69.030,393.926 68.954 C 393.802 68.877,393.700 68.897,393.700 68.997 C 393.699 69.097,393.271 69.195,392.750 69.216 C 392.228 69.236,391.767 69.357,391.724 69.484 C 391.682 69.612,391.502 69.660,391.324 69.592 C 391.146 69.524,391.001 69.586,391.001 69.730 C 391.001 69.875,390.907 69.935,390.792 69.863 C 390.677 69.792,390.519 69.837,390.441 69.963 C 390.351 70.108,390.821 70.191,391.739 70.191 C 394.693 70.191,396.311 71.075,398.472 73.870 L 399.888 75.700 399.950 72.337 C 399.984 70.487,399.962 68.843,399.901 68.683 C 399.788 68.388,397.514 68.252,397.243 68.524 M375.478 70.312 C 375.478 71.356,377.111 72.441,378.459 72.294 L 379.753 72.153 379.753 71.150 L 379.753 70.147 378.397 70.250 C 377.651 70.307,376.987 70.266,376.921 70.160 C 376.703 69.808,375.478 69.937,375.478 70.312 M388.976 70.191 C 388.439 70.363,388.446 70.372,389.132 70.394 C 389.527 70.406,389.912 70.315,389.989 70.191 C 390.149 69.933,389.784 69.933,388.976 70.191 M75.816 173.678 C 75.363 173.823,75.341 173.860,75.703 173.865 C 75.951 173.869,76.355 173.785,76.603 173.678 C 77.176 173.432,76.585 173.432,75.816 173.678 " stroke="none" fill-rule="evenodd" style="fill: rgb(239, 241, 243);"/>
    <path id="path3" d="M102.760 61.130 C 103.164 61.180,103.772 61.179,104.110 61.128 C 104.448 61.077,104.117 61.036,103.375 61.037 C 102.632 61.038,102.356 61.080,102.760 61.130 M380.484 68.946 C 379.931 69.423,379.865 69.631,379.865 70.890 L 379.865 72.301 378.360 72.548 C 376.641 72.831,376.245 73.120,374.990 75.004 C 373.426 77.352,372.539 77.798,369.389 77.823 C 364.862 77.859,363.071 78.489,362.520 80.241 C 361.811 82.496,360.777 83.186,356.903 83.992 C 353.774 84.643,352.634 85.210,350.523 87.169 C 347.617 89.865,346.598 90.688,345.216 91.462 C 343.919 92.186,343.802 92.317,343.663 93.188 C 343.263 95.690,341.994 96.444,337.703 96.728 C 333.779 96.989,333.188 97.296,330.818 100.314 C 329.621 101.838,328.271 102.474,325.534 102.802 C 322.749 103.136,320.979 103.911,316.559 106.730 C 308.876 111.629,302.874 112.877,300.347 110.100 C 298.886 108.495,298.377 108.421,290.551 108.673 L 287.402 108.774 285.714 108.043 C 284.786 107.642,283.116 106.797,282.002 106.165 C 278.743 104.318,277.961 104.096,274.526 104.050 L 271.549 104.009 270.266 102.792 C 269.560 102.123,268.470 101.086,267.844 100.488 C 266.595 99.297,264.627 97.925,263.120 97.195 C 262.284 96.791,261.670 96.720,258.580 96.673 C 254.126 96.606,253.051 96.224,251.536 94.174 L 250.604 92.913 248.634 92.913 C 244.088 92.913,237.014 96.510,234.033 100.337 C 231.206 103.968,230.252 104.656,226.209 105.985 C 224.215 106.640,223.829 106.857,222.814 107.892 C 221.878 108.845,221.452 109.105,220.489 109.312 C 218.270 109.788,217.183 110.647,212.915 115.298 C 210.509 117.919,210.292 118.075,203.262 122.253 C 201.654 123.209,199.123 124.956,197.638 126.135 C 191.790 130.777,187.966 133.206,175.028 140.497 C 170.017 143.321,165.562 145.859,165.129 146.136 C 164.696 146.414,161.153 148.460,157.255 150.682 C 153.358 152.904,149.409 155.173,148.481 155.724 C 142.316 159.387,130.048 165.654,122.385 169.057 C 117.646 171.160,117.535 171.203,115.017 171.899 C 113.996 172.182,113.161 172.494,113.161 172.593 C 113.161 172.692,112.749 172.839,112.246 172.919 C 111.743 173.000,111.211 173.178,111.065 173.316 C 110.918 173.453,110.697 173.577,110.574 173.590 C 108.706 173.793,108.926 174.703,110.855 174.751 C 135.630 175.361,219.815 175.246,220.240 174.602 C 220.306 174.502,223.751 174.354,227.897 174.273 C 238.832 174.058,244.191 173.864,244.319 173.680 C 244.381 173.591,246.963 173.438,250.056 173.340 C 253.150 173.243,256.136 173.139,256.693 173.110 C 257.250 173.081,258.718 173.033,259.955 173.004 C 261.192 172.975,262.306 172.889,262.430 172.814 C 262.553 172.740,263.750 172.703,265.090 172.734 C 266.429 172.764,267.476 172.711,267.417 172.615 C 267.358 172.519,267.528 172.434,267.794 172.425 C 270.334 172.340,276.249 172.031,276.603 171.964 C 276.850 171.917,277.762 171.868,278.628 171.854 C 279.494 171.840,280.253 171.753,280.315 171.659 C 280.377 171.566,281.744 171.422,283.352 171.339 C 285.847 171.211,287.096 171.113,289.283 170.875 C 289.486 170.852,289.803 170.774,289.989 170.700 C 290.174 170.627,291.490 170.505,292.913 170.429 C 295.920 170.269,297.751 170.130,299.325 169.941 C 299.944 169.867,301.026 169.797,301.730 169.786 C 302.433 169.775,302.966 169.696,302.913 169.610 C 302.860 169.525,302.942 169.467,303.096 169.483 C 303.249 169.499,304.387 169.436,305.624 169.345 C 306.862 169.253,308.878 169.116,310.104 169.040 C 312.770 168.876,312.741 168.880,313.139 168.632 C 313.356 168.497,313.405 168.516,313.295 168.694 C 313.201 168.846,313.274 168.954,313.472 168.954 C 313.657 168.954,313.863 168.867,313.929 168.760 C 313.995 168.653,315.292 168.501,316.811 168.422 C 318.330 168.343,320.838 168.211,322.385 168.129 C 323.931 168.047,325.475 167.972,325.816 167.962 C 326.156 167.951,326.434 167.846,326.434 167.728 C 326.434 167.610,326.556 167.636,326.704 167.784 C 327.036 168.116,327.943 168.140,328.050 167.819 C 328.177 167.438,350.746 167.489,350.983 167.871 C 351.132 168.110,351.254 168.113,351.624 167.883 C 351.875 167.728,352.081 167.682,352.081 167.782 C 352.081 167.882,354.125 168.090,356.624 168.243 C 359.123 168.396,361.274 168.604,361.405 168.706 C 361.535 168.808,362.047 168.905,362.542 168.922 C 363.037 168.939,363.796 169.000,364.229 169.057 C 364.663 169.115,365.675 169.227,366.479 169.308 C 367.283 169.388,368.054 169.545,368.193 169.656 C 368.331 169.768,368.832 169.809,369.307 169.748 C 369.782 169.687,370.226 169.724,370.293 169.830 C 370.361 169.937,371.682 170.156,373.228 170.318 C 374.775 170.480,376.102 170.704,376.178 170.815 C 376.254 170.926,376.382 170.995,376.462 170.968 C 376.717 170.882,382.330 171.472,382.555 171.608 C 383.351 172.088,394.207 172.488,398.144 172.181 L 400.000 172.037 400.000 124.025 L 400.000 76.014 398.400 74.098 C 395.524 70.655,394.457 70.233,389.820 70.707 C 388.353 70.857,388.076 70.832,388.076 70.553 C 388.076 70.239,386.813 69.180,386.437 69.179 C 386.340 69.179,386.188 69.078,386.100 68.954 C 385.589 68.238,381.312 68.232,380.484 68.946 " stroke="none" fill-rule="evenodd" style="fill: rgb(203, 209, 216);"/>
  </g>
</svg>