<?xml version="1.0" encoding="utf-8"?>
<svg viewBox="0 179.92 1366 588.08" xmlns="http://www.w3.org/2000/svg">
  <path d="M 0 295.892 L 0 388 0.911 388 C 1.412 388, 2.875 386.734, 4.161 385.186 C 5.447 383.638, 7.387 380.038, 8.470 377.186 C 9.554 374.334, 10.771 372, 11.175 372 C 11.579 372, 12.970 370.939, 14.267 369.643 L 16.624 367.285 25.062 365.964 L 33.500 364.643 45 364.388 L 56.500 364.134 59.366 365.236 L 62.231 366.338 63.177 364.648 L 64.123 362.958 64.978 363.486 L 65.832 364.014 68.462 363.015 L 71.091 362.015 70.796 360.463 L 70.500 358.910 73.107 357.310 L 75.714 355.711 78.978 357.339 L 82.243 358.968 83.101 358.438 L 83.959 357.908 85.979 358.989 L 88 360.070 88 362.035 L 88 364 86.567 364 L 85.135 364 84.477 366.072 L 83.820 368.143 85.660 370.281 C 86.672 371.456, 88.316 373.337, 89.314 374.459 L 91.128 376.500 93.314 376.500 L 95.500 376.500 95.206 378.250 L 94.912 380 95.851 380 C 96.368 380, 97.850 381.117, 99.145 382.483 C 100.440 383.848, 101.950 384.966, 102.500 384.966 C 103.050 384.966, 105.604 385.986, 108.174 387.233 L 112.849 389.500 114.134 392 C 114.841 393.375, 116.563 395.648, 117.960 397.051 C 119.357 398.454, 122.043 401.492, 123.928 403.801 L 127.356 408 128.703 408 L 130.050 408 131.043 410.612 L 132.036 413.224 134.231 412.650 L 136.426 412.076 138.113 413.602 L 139.799 415.128 143.400 414.453 L 147 413.777 147 412.889 L 147 412 150.031 412 L 153.063 412 153.638 410.500 L 154.214 409 155.540 409 L 156.865 409 157.500 407 L 158.135 405 160.367 405 L 162.600 405 163.707 403.893 L 164.815 402.785 165.968 404.941 L 167.122 407.096 168.811 406.589 L 170.500 406.081 172.267 407.414 L 174.035 408.746 173.410 410.373 L 172.786 412 174.010 412 L 175.233 412 174.730 413.923 L 174.227 415.846 178.614 417.142 L 183 418.437 183 420.312 L 183 422.187 185 422.710 C 186.100 422.998, 187 423.541, 187 423.917 C 187 424.292, 186.499 425.101, 185.888 425.712 L 184.775 426.825 187.638 430.412 C 189.212 432.386, 190.962 434, 191.527 434 C 192.093 434, 193.610 434.739, 194.899 435.642 L 197.244 437.284 195.601 438.204 L 193.958 439.123 194.538 440.061 L 195.118 441 193.559 441 L 192 441 192 441.982 C 192 442.522, 194.431 445.268, 197.402 448.084 L 202.804 453.204 208.652 464.184 C 211.868 470.222, 215.400 476.061, 216.500 477.158 C 217.600 478.255, 220.207 480.243, 222.294 481.576 C 224.381 482.909, 226.758 484, 227.576 484 L 229.063 484 229.659 482.445 L 230.256 480.890 232.378 481.056 C 233.545 481.147, 234.950 481.105, 235.500 480.963 C 236.050 480.820, 237.339 480.658, 238.364 480.602 L 240.228 480.500 241.387 477 L 242.545 473.500 245.273 473.788 L 248 474.076 248 473.038 L 248 472 249.542 472 C 250.390 472, 252.027 472.879, 253.181 473.954 L 255.278 475.908 258.389 474.315 C 260.100 473.439, 262.451 471.772, 263.613 470.611 L 265.726 468.500 265.566 466.482 C 265.477 465.373, 265.031 463.860, 264.575 463.121 L 263.744 461.776 265.122 460.904 C 265.880 460.423, 267.426 460.024, 268.559 460.015 L 270.618 460 272.559 458.532 C 273.626 457.724, 275.423 457.049, 276.550 457.032 L 278.600 457 279.707 458.107 C 280.316 458.716, 282.316 459.522, 284.151 459.897 L 287.488 460.580 287.828 462.540 C 288.016 463.618, 288.816 465.007, 289.607 465.626 L 291.044 466.753 290.017 469.456 L 288.989 472.158 289.878 473.746 L 290.767 475.334 289.090 477.134 L 287.413 478.934 283.466 479.237 L 279.520 479.540 279.144 481.520 C 278.938 482.609, 278.313 483.787, 277.756 484.138 L 276.744 484.776 277.404 485.845 L 278.064 486.913 279.532 486.349 L 281 485.786 281 486.799 L 281 487.813 283 487.290 L 285 486.767 285 488.038 L 285 489.310 286.831 487.653 L 288.662 485.996 289.262 486.596 L 289.862 487.196 289.337 488.565 L 288.811 489.934 291.656 492.435 L 294.500 494.937 296.167 494.968 L 297.833 495 298.286 496.250 L 298.739 497.500 300.830 496.266 L 302.921 495.032 304.460 495.623 L 306 496.214 306 494.690 L 306 493.167 307.246 492.751 L 308.492 492.336 308.593 490.918 C 308.650 490.138, 308.764 488.656, 308.848 487.625 L 309 485.750 312.223 486.395 L 315.445 487.039 318.473 489.859 C 320.138 491.410, 323.126 493.418, 325.112 494.321 C 327.099 495.224, 329.292 496.646, 329.985 497.482 L 331.245 499 334.372 498.968 L 337.500 498.936 340.837 495.581 L 344.175 492.226 343.085 491.552 L 341.995 490.879 342.997 489.006 L 343.999 487.133 346.495 486.816 L 348.990 486.500 347.485 483.617 L 345.981 480.734 348.443 475.529 C 349.798 472.666, 351.602 469.745, 352.453 469.039 C 353.304 468.333, 354 468.075, 354 468.466 C 354 468.858, 355.385 468.013, 357.077 466.589 L 360.153 464 364.327 463.849 C 366.622 463.766, 369.850 463.774, 371.500 463.866 C 373.150 463.959, 375.962 464.272, 377.750 464.563 L 381 465.091 381 461.184 L 381 457.277 378.500 457.755 L 376 458.233 376 456.235 L 376 454.237 379.250 451.773 C 381.037 450.418, 383.850 448.978, 385.500 448.574 C 387.150 448.170, 390.218 447.600, 392.317 447.308 L 396.134 446.777 398.421 448.926 L 400.708 451.075 400.220 453.787 C 399.951 455.279, 399.255 457.101, 398.672 457.836 L 397.612 459.172 394.918 458.634 L 392.224 458.095 390.612 459.876 C 389.725 460.856, 389 461.960, 389 462.329 C 389 462.698, 389.788 463.002, 390.750 463.004 C 391.712 463.006, 394.075 463.990, 396 465.190 L 399.500 467.373 401.500 467.158 L 403.500 466.943 406.238 469.501 L 408.977 472.059 409.575 474.443 L 410.173 476.827 408.087 478.913 C 406.939 480.061, 405.663 480.947, 405.250 480.882 C 404.838 480.816, 404.095 480.816, 403.601 480.882 C 403.107 480.947, 404.907 482.164, 407.601 483.587 C 410.295 485.010, 413.512 487.113, 414.750 488.261 L 417 490.349 417 492.196 L 417 494.043 414.428 495.215 L 411.857 496.386 411.178 495.296 C 410.805 494.697, 409.556 494.047, 408.402 493.853 L 406.303 493.500 403.652 494.919 L 401 496.338 401.018 498.419 L 401.036 500.500 404.067 504.973 L 407.098 509.447 412.102 511.825 L 417.105 514.203 422.906 519.574 L 428.707 524.944 432.097 523.972 L 435.487 523 441.993 523.022 L 448.500 523.044 453 525.072 L 457.500 527.100 463.151 532.670 L 468.801 538.241 470.007 537.495 L 471.214 536.750 469.979 535.987 L 468.744 535.224 469.431 534.112 L 470.118 533 473.309 532.970 L 476.500 532.939 474.763 531.927 L 473.027 530.915 470.886 532.061 L 468.746 533.206 467.974 531.958 L 467.202 530.709 465.601 531.323 C 464.720 531.661, 464 531.756, 464 531.534 C 464 531.312, 464.439 529.976, 464.975 528.565 L 465.950 526 468.775 526 L 471.600 526 472.724 527.124 L 473.848 528.248 476.841 527.205 L 479.833 526.162 483.524 528.141 L 487.214 530.119 487.774 529.559 L 488.333 529 487.532 529 C 487.091 529, 487.803 528.201, 489.115 527.224 C 490.427 526.247, 492.625 524.934, 494 524.307 C 495.375 523.681, 497.962 522.570, 499.750 521.840 C 501.538 521.109, 503 520.121, 503 519.642 L 503 518.773 506.250 519.265 L 509.500 519.756 512.250 518.353 L 515 516.949 515 514.367 L 515 511.786 513.413 512.395 C 512.539 512.730, 510.064 513.286, 507.913 513.630 L 504 514.256 504 513.288 C 504 512.756, 502.849 511.797, 501.443 511.156 L 498.886 509.991 497.009 510.995 C 495.976 511.548, 493.977 512, 492.566 512 L 490 512 490 511 C 490 510.450, 490.477 510, 491.059 510 L 492.118 510 491.456 508.929 L 490.795 507.859 486.897 508.517 L 483 509.176 483 508.016 C 483 507.379, 482.325 506.182, 481.500 505.357 C 480.675 504.532, 480 503.172, 480 502.335 L 480 500.813 482.040 500.279 L 484.080 499.746 482.385 497.873 L 480.690 496 484.345 496 L 488 496 488 494.250 L 488 492.500 492.250 492.632 L 496.500 492.763 498.715 491.382 L 500.930 490 503.512 490 L 506.093 490 504.297 487.458 L 502.500 484.916 496.253 485.255 L 490.006 485.594 489.380 483.623 L 488.755 481.652 490.300 480.522 L 491.846 479.392 490.248 478.384 L 488.649 477.376 489.394 476.172 L 490.138 474.967 491.318 475.697 L 492.499 476.426 495.499 476.122 L 498.500 475.818 500.170 474.326 L 501.841 472.834 502.996 474.992 L 504.151 477.150 508.199 476.466 L 512.247 475.782 513.108 477.141 L 513.969 478.500 513.985 476.781 L 514 475.063 515.371 475.589 L 516.742 476.115 517.255 474.779 L 517.767 473.443 520.884 473.206 L 524 472.968 524 473.914 L 524 474.860 527.243 473.930 C 529.027 473.419, 531.038 473, 531.712 473 L 532.937 473 532.306 474.645 L 531.675 476.289 533.088 477.395 C 533.864 478.003, 534.641 479.324, 534.813 480.332 L 535.125 482.164 532.087 481.845 L 529.050 481.527 529.045 482.513 L 529.041 483.500 532.546 483.500 L 536.050 483.500 535.446 486.250 L 534.841 489 535.921 489 C 536.514 489, 536.990 489.337, 536.978 489.750 C 536.966 490.163, 536.131 491.573, 535.123 492.884 L 533.290 495.267 529.065 495.506 L 524.840 495.744 522.937 493.702 L 521.034 491.659 519.017 493.485 L 517 495.310 517 496.722 L 517 498.135 518.831 497.554 L 520.662 496.972 522.912 498.924 L 525.162 500.875 526.581 500.331 L 528 499.786 528 502.811 L 528 505.837 532.021 510.022 L 536.042 514.206 538.771 513.522 L 541.500 512.838 543.289 510.919 C 544.273 509.863, 545.230 509, 545.417 509 C 545.603 509, 547.386 509.681, 549.378 510.513 C 551.370 511.346, 553 512.395, 553 512.844 C 553 513.294, 554.125 514.264, 555.500 515 L 558 516.338 558 517.669 L 558 519 556.500 519 L 555 519 555 520.525 L 555 522.050 557.569 523.026 L 560.139 524.003 559.819 526.193 L 559.500 528.382 556.345 529.195 L 553.189 530.008 553.681 531.887 L 554.172 533.766 551.864 535.383 C 550.594 536.272, 548.807 537, 547.893 537 L 546.230 537 544.592 534.500 L 542.954 532 540.437 532 L 537.920 532 534 534 C 531.844 535.100, 529.167 536, 528.052 536 L 526.025 536 523.522 539.750 C 522.145 541.813, 520.054 544.700, 518.876 546.167 L 516.733 548.835 515.486 553.667 C 514.801 556.325, 514.413 558.689, 514.624 558.921 C 514.835 559.152, 516.019 558.477, 517.254 557.421 C 518.489 556.364, 520.513 554.934, 521.750 554.242 C 522.988 553.549, 524 553.170, 524 553.398 C 524 553.626, 521.750 555.429, 519 557.405 C 516.250 559.380, 514 561.459, 514 562.023 L 514 563.050 516.461 563.985 C 517.814 564.500, 521.257 565.231, 524.112 565.609 L 529.302 566.298 528.550 565.081 L 527.798 563.864 526.309 564.435 L 524.820 565.006 523.946 564.467 L 523.073 563.927 525.036 561.964 L 527 560 529 560 L 531 560 531.007 558.750 L 531.014 557.500 534.502 555.124 L 537.991 552.748 541.034 553.357 L 544.076 553.965 544.645 552.483 L 545.214 551 548.247 551 L 551.280 551 552.608 552.750 C 553.339 553.712, 553.951 554.795, 553.968 555.156 L 554 555.813 551.985 555.286 L 549.970 554.759 550.574 556.331 L 551.177 557.903 547.715 557.341 L 544.254 556.780 543.720 557.644 L 543.186 558.508 546.343 558.504 L 549.500 558.500 549.524 560.500 L 549.547 562.500 551.289 562.203 L 553.031 561.905 555.765 563.374 C 557.269 564.182, 559.316 565.100, 560.313 565.414 L 562.127 565.986 561.504 566.993 L 560.882 568 562.540 568 C 563.452 568, 565.654 568.691, 567.433 569.535 C 569.213 570.380, 574.373 574.205, 578.901 578.035 L 587.133 585 588.985 585 C 590.003 585, 591.542 585.271, 592.404 585.602 L 593.972 586.203 594.903 583.755 L 595.834 581.307 599.428 579.601 L 603.022 577.896 603.902 578.440 L 604.782 578.983 608.403 574.975 L 612.025 570.967 610.521 568.672 L 609.017 566.376 612.387 563.110 L 615.757 559.843 615.451 555.303 L 615.145 550.762 618.333 551.279 L 621.522 551.797 623.156 547.969 L 624.791 544.142 628.114 543.821 L 631.437 543.500 632.363 540.250 L 633.289 537 636.022 537 L 638.755 537 639.865 535.662 L 640.975 534.325 644.364 534.198 L 647.754 534.070 649.627 536.140 L 651.500 538.210 651.500 543.355 L 651.500 548.500 653.750 548.820 L 656 549.139 656 550.461 L 656 551.783 658.454 552.399 L 660.909 553.015 666.383 550.594 L 671.858 548.173 671.300 546.041 L 670.743 543.909 672.524 542.606 L 674.306 541.303 673.590 540.145 L 672.874 538.986 675.064 535.910 L 677.255 532.833 679.141 533.326 L 681.026 533.820 681.985 532.027 C 682.513 531.042, 683.631 529.972, 684.469 529.650 L 685.994 529.065 695.636 531.079 C 700.939 532.186, 706.552 533.751, 708.109 534.556 C 709.666 535.362, 711.396 536.871, 711.952 537.910 L 712.963 539.799 717.660 541.400 L 722.356 543 726.678 543 L 731 543 731 544.933 L 731 546.865 732.855 547.454 L 734.710 548.043 740.105 545.531 L 745.500 543.020 749.229 543.010 L 752.958 543 759.479 540.859 L 766 538.719 766 537.691 C 766 537.126, 765.504 533.814, 764.897 530.332 C 764.291 526.849, 763.661 524, 763.497 524 C 763.333 524, 757.867 524.960, 751.349 526.133 L 739.500 528.266 721 528.294 L 702.500 528.322 696.500 525.285 C 693.200 523.615, 688.925 521.912, 687 521.501 C 685.075 521.090, 681.317 519.653, 678.649 518.309 L 673.798 515.864 672.361 516.415 L 670.924 516.966 670.366 515.510 L 669.807 514.054 666.224 513.382 L 662.641 512.710 658.262 508.674 L 653.883 504.638 651.037 506.319 L 648.191 508 646.024 508 L 643.857 508 642.357 506.500 L 640.857 505 635.262 505 L 629.667 505 630.298 504.369 L 630.930 503.737 629.930 501.869 L 628.930 500 627.047 500 C 626.011 500, 624.452 499.727, 623.582 499.393 L 622 498.786 622 497.393 L 622 496 620.741 496 C 620.048 496, 618.985 495.206, 618.379 494.236 L 617.277 492.471 617.752 489.236 L 618.227 486 619.578 486 L 620.930 486 622.020 483.962 L 623.111 481.924 622.495 479.983 L 621.878 478.041 619.054 476.373 L 616.229 474.704 614.616 471.321 L 613.003 467.938 611.346 467.302 L 609.688 466.666 607.727 469.083 L 605.766 471.500 603.265 471.500 L 600.765 471.500 599.401 473.538 L 598.037 475.576 600.554 479.114 L 603.071 482.651 602.481 484.190 L 601.890 485.729 599.410 486.859 L 596.929 487.989 593.820 484.447 L 590.710 480.906 587.605 479.504 C 585.897 478.733, 583.245 477.036, 581.712 475.733 L 578.923 473.364 579.534 471.772 L 580.145 470.180 582.761 469.524 L 585.376 468.867 586.656 467.184 C 587.360 466.258, 587.951 464.706, 587.968 463.735 L 588 461.971 584.750 459.989 L 581.500 458.007 578.500 458.007 L 575.500 458.007 572.206 460.016 L 568.913 462.024 566.878 460.935 L 564.844 459.846 563.367 460.413 L 561.891 460.979 559.195 459.083 L 556.500 457.187 552.827 456.563 L 549.154 455.938 548.510 457.968 L 547.866 459.998 545.851 458.921 L 543.837 457.843 539.169 451.383 L 534.500 444.924 530.688 445.561 L 526.875 446.197 524.938 444.443 L 523 442.690 523 440.952 L 523 439.214 521.418 438.607 C 520.548 438.273, 518.509 438, 516.887 438 L 513.937 438 513.396 436.250 C 513.099 435.288, 512.493 433.825, 512.050 433 L 511.244 431.500 508.242 431.798 L 505.241 432.096 504.642 429.710 C 504.313 428.398, 503.101 426.127, 501.949 424.662 L 499.855 422 497.484 422 L 495.113 422 493.557 419.777 L 492 417.555 492 412.662 L 492 407.770 488.422 404.492 L 484.843 401.214 485.172 397.857 L 485.500 394.500 483.441 394.205 L 481.382 393.911 479.743 383.707 L 478.104 373.503 475.818 371.652 L 473.532 369.801 466.611 370.192 L 459.689 370.583 458.222 372.791 L 456.756 375 455.435 375 C 454.709 375, 452.493 374.043, 450.512 372.874 L 446.909 370.749 442.705 371.484 C 440.392 371.888, 437.375 372.194, 436 372.164 C 434.625 372.134, 431.811 371.810, 429.746 371.445 L 425.993 370.780 423.496 367.813 C 422.123 366.182, 421 364.440, 421 363.944 C 421 363.447, 419.313 362.127, 417.250 361.010 C 415.188 359.893, 412.673 358.421, 411.663 357.740 C 410.652 357.058, 408.118 354.813, 406.030 352.750 L 402.235 349 399.273 349 L 396.310 349 394.500 351 L 392.690 353 390.545 353 C 389.365 353, 387.948 352.548, 387.396 351.996 C 386.844 351.444, 383.808 350.319, 380.648 349.496 C 377.488 348.673, 373.111 348, 370.921 348 L 366.939 348 363.974 344.623 L 361.009 341.246 358.255 340.198 C 356.740 339.621, 352.217 338.172, 348.205 336.977 L 340.910 334.806 338.370 335.443 L 335.830 336.081 333.504 338.590 L 331.179 341.099 330.358 339.799 L 329.537 338.500 329.519 331.518 L 329.500 324.536 327.573 324.161 L 325.647 323.785 323.992 321.742 L 322.337 319.698 319.669 320.368 L 317 321.038 317 323.664 L 317 326.291 310.808 332.183 L 304.616 338.075 301.717 337.438 L 298.817 336.801 295.974 339.525 L 293.131 342.248 290.424 340.119 L 287.717 337.990 286.329 339.142 L 284.941 340.294 282.423 339.147 C 281.039 338.516, 278.892 338, 277.653 338 L 275.400 338 274.200 339.200 L 273 340.400 273 343.245 L 273 346.091 270.595 348.295 C 269.273 349.508, 267.492 351.063, 266.637 351.750 C 265.783 352.438, 264.417 353, 263.601 353 C 262.785 353, 261.766 353.563, 261.335 354.250 C 260.905 354.938, 260.541 356.161, 260.526 356.969 L 260.500 358.437 256.098 360.066 L 251.696 361.695 250.488 363.348 L 249.280 365 245.837 365 L 242.394 365 238.133 361.867 L 233.873 358.733 228.290 359.309 L 222.708 359.886 217.673 357.334 C 214.903 355.931, 207.207 351.399, 200.569 347.264 C 193.931 343.128, 185.463 337.509, 181.750 334.778 C 178.037 332.046, 175 329.403, 175 328.905 L 175 328 170.942 328 C 168.709 328, 163.704 327.507, 159.819 326.904 C 155.934 326.301, 150.265 324.951, 147.223 323.905 L 141.690 322.001 138.392 319.485 C 136.578 318.102, 133.055 314.320, 130.563 311.082 L 126.032 305.194 121.756 303.124 L 117.480 301.054 112.990 300.935 C 110.520 300.869, 105.350 301.132, 101.500 301.519 L 94.500 302.222 80 299.078 C 72.025 297.349, 63.700 295.240, 61.500 294.392 L 57.500 292.850 54.165 289.675 C 52.330 287.929, 50.230 285.356, 49.497 283.959 L 48.164 281.417 47.127 273.959 C 46.556 269.856, 45.429 264.700, 44.624 262.500 C 43.818 260.300, 42.223 256.717, 41.079 254.539 L 39 250.577 39.035 247.539 L 39.071 244.500 40.500 242 L 41.929 239.500 41.965 236.654 L 42 233.809 40.019 231.027 L 38.038 228.245 28.895 221.982 C 23.866 218.538, 17.509 213.728, 14.768 211.294 C 12.028 208.860, 8.689 206.452, 7.349 205.943 C 6.008 205.433, 3.807 204.739, 2.456 204.400 L 0 203.783 0 295.892 M 382.711 459 C 383.028 460.925, 383.335 462.560, 383.394 462.633 C 383.452 462.707, 384.512 462.384, 385.750 461.916 L 388 461.064 388 458.924 L 388 456.783 385.583 457.390 L 383.166 457.997 382.650 456.748 C 382.367 456.062, 382.395 457.075, 382.711 459 M 392.423 480.339 L 391.823 481.904 392.470 482.952 C 392.827 483.528, 393.766 484, 394.559 484 L 396 484 396 482.622 C 396 481.865, 395.330 480.689, 394.512 480.010 L 393.024 478.775 392.423 480.339 M 380.358 484.664 C 380.659 485.674, 381.213 487.850, 381.590 489.500 C 381.967 491.150, 382.709 493.051, 383.238 493.724 L 384.201 494.947 387.850 495.607 C 389.858 495.970, 392.680 496.864, 394.123 497.594 L 396.746 498.920 397.373 498.293 C 397.718 497.949, 398 496.926, 398 496.020 L 398 494.374 394.974 491.475 L 391.949 488.577 392.508 487.118 L 393.068 485.660 391.870 484.919 L 390.672 484.179 387.473 484.698 L 384.274 485.217 382.043 484.023 L 379.811 482.828 380.358 484.664 M 374.885 486.839 C 375.997 488.400, 377.668 490.309, 378.598 491.081 L 380.288 492.484 379.644 490.242 C 379.290 489.009, 378.745 487.100, 378.433 486 L 377.865 484 375.365 484 L 372.864 484 374.885 486.839 M 368.375 493.204 L 367.433 496.500 364.967 496.821 L 362.500 497.141 361.322 498.664 L 360.143 500.187 363.738 503.343 L 367.334 506.500 382.667 506.500 C 391.100 506.500, 398 506.358, 398 506.184 C 398 506.011, 397.542 505.013, 396.983 503.968 L 395.966 502.068 392.233 501.134 C 390.180 500.621, 387.287 499.928, 385.805 499.595 L 383.109 498.989 378.494 494.995 C 375.955 492.798, 373.493 491, 373.021 491 C 372.549 491, 371.523 490.754, 370.740 490.454 L 369.316 489.907 368.375 493.204 M 510.548 495.567 L 508.866 498.134 510.056 499.567 C 510.710 500.355, 511.879 501, 512.654 501 L 514.063 501 514.639 499.498 L 515.216 497.996 514.589 495.498 L 513.962 493 513.096 493 C 512.620 493, 511.473 494.155, 510.548 495.567 M 934 500.622 C 930.975 500.831, 919.950 501.700, 909.500 502.552 C 899.050 503.405, 883.075 504.995, 874 506.086 C 864.925 507.177, 849.850 509.197, 840.500 510.575 C 831.150 511.953, 819.900 513.711, 815.500 514.482 L 807.500 515.884 804.023 517.628 L 800.547 519.373 803.773 520.689 L 807 522.006 807 523.440 L 807 524.874 803.500 524.306 L 800 523.738 800 524.714 C 800 525.251, 800.900 526.505, 802 527.500 L 804 529.310 804 531.155 L 804 533 803.122 533 C 802.640 533, 801.685 532.325, 801 531.500 C 800.315 530.675, 799.101 530, 798.302 530 L 796.849 530 797.031 532.750 C 797.130 534.263, 797.164 536.063, 797.106 536.750 C 797.048 537.438, 796.556 538, 796.013 538 L 795.027 538 793.314 534.250 C 792.372 532.188, 791.313 529.375, 790.961 528 L 790.319 525.500 789.285 528 C 788.716 529.375, 787.944 532.325, 787.570 534.555 L 786.890 538.610 793.086 541.805 L 799.281 545 802.894 545 L 806.506 545 813.503 542.950 L 820.500 540.899 834 541.048 C 841.425 541.129, 851.207 540.957, 855.739 540.664 C 860.270 540.371, 864.454 539.837, 865.037 539.477 L 866.097 538.822 864.936 537.423 L 863.775 536.024 865.387 535.405 L 867 534.786 867 532.960 L 867 531.135 868.859 530.545 L 870.718 529.955 872.258 530.545 L 873.798 531.136 874.458 530.068 C 874.821 529.481, 875.743 529, 876.507 529 C 877.272 529, 879.111 530.125, 880.595 531.500 C 882.078 532.875, 883.817 534, 884.459 534 C 885.101 534, 886.835 532.738, 888.313 531.195 L 891 528.391 891 526.477 L 891 524.564 893.536 522.385 L 896.071 520.206 898.032 520.719 L 899.992 521.231 901.843 518.946 L 903.694 516.660 907.867 518.330 C 910.162 519.249, 912.460 520, 912.972 520 C 913.485 520, 915.327 517.932, 917.065 515.405 L 920.227 510.810 922.363 511.323 C 923.539 511.605, 926.520 512.583, 928.989 513.495 L 933.477 515.155 936.228 514.604 L 938.978 514.054 942.454 516.106 L 945.931 518.157 947.965 517.511 L 949.998 516.866 951.017 519.545 L 952.036 522.224 954.018 521.612 C 955.108 521.275, 956.866 520.731, 957.924 520.403 L 959.849 519.806 961.450 522.903 L 963.051 526 965.003 526 L 966.954 526 968.490 523.656 L 970.026 521.312 974.263 519.976 C 976.593 519.241, 979.097 518.187, 979.826 517.634 L 981.152 516.629 982.061 518.064 C 982.561 518.854, 982.976 520.444, 982.985 521.597 L 983 523.694 980.922 526.089 L 978.845 528.485 980.922 529.864 L 983 531.244 983 532.622 L 983 534 984.617 534 L 986.233 534 985.696 536.055 L 985.159 538.110 987.370 538.951 C 988.587 539.413, 990.221 540.562, 991.002 541.502 C 991.783 542.443, 992.983 544.178, 993.668 545.357 C 994.353 546.535, 995.414 548.622, 996.025 549.994 L 997.136 552.488 1000.653 555.387 L 1004.170 558.286 1004.967 560.393 L 1005.764 562.500 1004.857 564.231 C 1004.358 565.183, 1002.834 566.547, 1001.470 567.262 L 998.990 568.561 1013.245 581.520 C 1021.085 588.647, 1032.450 599.264, 1038.500 605.114 L 1049.500 615.749 1052 614.959 C 1053.375 614.524, 1062.150 612.046, 1071.500 609.453 C 1080.850 606.860, 1094.575 602.963, 1102 600.793 C 1109.425 598.622, 1123.150 594.381, 1132.500 591.368 C 1141.850 588.354, 1154.675 583.887, 1161 581.441 C 1167.325 578.995, 1174.862 575.636, 1177.750 573.977 C 1180.638 572.317, 1183 570.591, 1183 570.140 C 1183 569.689, 1175.013 565.458, 1165.250 560.738 C 1155.487 556.018, 1137.150 547.345, 1124.500 541.466 C 1111.850 535.586, 1097.743 529.026, 1093.151 526.888 C 1088.559 524.750, 1084.672 523, 1084.514 523 C 1084.356 523, 1080.013 521.027, 1074.864 518.617 C 1069.714 516.206, 1062.350 513.108, 1058.500 511.732 C 1054.650 510.357, 1046.100 508.054, 1039.500 506.615 C 1032.900 505.176, 1022.325 503.291, 1016 502.426 L 1004.500 500.853 972 500.548 C 954.125 500.380, 937.025 500.413, 934 500.622 M 768.121 522.723 L 765.742 523.173 766.423 529.836 C 766.798 533.501, 767.419 536.805, 767.802 537.179 L 768.500 537.857 773.417 536.928 L 778.334 535.998 781.723 536.934 L 785.113 537.870 785.485 536.685 C 785.690 536.033, 786.498 533.198, 787.280 530.384 L 788.702 525.269 784.101 528.343 C 781.571 530.035, 779.350 531.774, 779.167 532.209 C 778.983 532.644, 778.421 533, 777.917 533 L 777 533 777 531.155 L 777 529.310 779 527.500 C 780.100 526.505, 781 525.275, 781 524.768 L 781 523.847 777.330 524.163 L 773.660 524.479 773.247 523.240 L 772.833 522 771.667 522.136 C 771.025 522.211, 769.429 522.475, 768.121 522.723 M 519 533.123 L 519 542 519.750 541.961 C 520.163 541.940, 521.400 540.503, 522.500 538.767 L 524.500 535.612 527.750 534.777 C 529.538 534.318, 531 533.840, 531 533.715 C 531 533.589, 531.436 531.966, 531.969 530.108 C 532.502 528.249, 532.651 527.015, 532.300 527.366 L 531.662 528.004 530.081 526.629 L 528.500 525.254 523.750 524.750 L 519 524.246 519 533.123 M 536.303 526.744 C 535.194 527.710, 533.954 529.551, 533.548 530.836 L 532.811 533.172 534.933 532.036 L 537.056 530.900 536.428 529.883 L 535.800 528.867 537.648 527.515 L 539.497 526.164 538.909 525.575 L 538.321 524.987 536.303 526.744 M 514.743 526.666 L 513.985 527.833 510.549 527.560 L 507.112 527.287 503.806 530.576 L 500.500 533.864 498.485 532.563 C 497.377 531.848, 495.015 530.943, 493.235 530.552 L 490 529.841 490 530.921 L 490 532 491.309 532 C 492.029 532, 493.491 532.668, 494.559 533.484 L 496.500 534.967 494.250 535.600 L 492 536.233 491.882 537.867 C 491.816 538.765, 491.828 539.873, 491.908 540.328 L 492.052 541.157 490.276 540.823 L 488.500 540.488 487.513 538.244 L 486.526 536 485.356 536 L 484.187 536 484.707 537.989 L 485.227 539.978 486.114 539.430 L 487 538.882 487 540.868 L 487 542.855 489.734 545.006 L 492.468 547.156 495.089 546.632 L 497.709 546.108 500.105 547.733 C 501.422 548.627, 503.978 550.627, 505.785 552.179 C 507.591 553.730, 509.616 554.998, 510.285 554.995 L 511.500 554.990 513.802 546.655 L 516.104 538.320 515.802 531.910 L 515.500 525.500 514.743 526.666 M 479.250 537.706 C 478.012 537.944, 477 538.518, 477 538.981 C 477 539.444, 478.385 540.987, 480.077 542.411 C 481.769 543.835, 483.532 545, 483.995 545 C 484.458 545, 485.638 545.307, 486.617 545.683 L 488.397 546.366 486.361 543.433 C 485.242 541.820, 484.041 539.712, 483.694 538.750 C 483.347 537.788, 482.711 537.061, 482.281 537.136 C 481.852 537.211, 480.488 537.467, 479.250 537.706 M 472.430 541.677 L 472.977 543.104 471.989 542.493 L 471 541.882 471 543.241 C 471 543.988, 471.534 545.134, 472.186 545.786 C 472.839 546.439, 473.513 547.891, 473.684 549.013 C 473.856 550.136, 474.622 552.554, 475.388 554.387 L 476.781 557.720 484.140 558.508 C 488.188 558.941, 492.625 559.443, 494 559.622 C 495.375 559.802, 499.605 560.643, 503.400 561.491 C 507.196 562.339, 510.471 562.862, 510.678 562.655 C 510.886 562.447, 510.615 561.117, 510.076 559.699 L 509.096 557.122 506.961 555.979 C 505.786 555.350, 503.570 553.431, 502.036 551.714 L 499.246 548.592 493.202 548.373 L 487.158 548.155 485.274 547.146 L 483.389 546.138 478.945 546.553 L 474.500 546.967 476.809 546.234 L 479.118 545.500 478.960 544.500 C 478.874 543.950, 478.411 542.769, 477.933 541.875 L 477.063 540.250 474.473 540.250 L 471.882 540.250 472.430 541.677 M 537 565.500 L 537 567 540 567 L 543 567 543 565.500 L 543 564 540 564 L 537 564 537 565.500" stroke="none" fill-rule="evenodd" style="fill: rgb(198, 204, 210);"/>
  <path d="M 72.500 357.588 L 70.500 359.111 70.796 360.563 L 71.091 362.015 68.462 363.015 L 65.832 364.014 64.978 363.486 L 64.123 362.958 63.177 364.648 L 62.231 366.338 59.366 365.236 L 56.500 364.134 45 364.388 L 33.500 364.643 25.062 365.964 L 16.624 367.285 14.267 369.643 C 12.970 370.939, 11.584 372, 11.187 372 C 10.790 372, 9.383 374.726, 8.060 378.057 L 5.654 384.113 2.827 386.492 L 0 388.871 0 578.435 L 0 768 457.422 768 L 914.845 768 927.672 762.398 C 934.728 759.317, 947.156 754.154, 955.291 750.924 C 963.426 747.694, 976.421 743.010, 984.167 740.516 C 991.914 738.021, 1007.083 733.692, 1017.876 730.894 C 1028.669 728.097, 1044.041 723.660, 1052.036 721.035 C 1060.030 718.410, 1069.255 715.010, 1072.536 713.481 C 1075.816 711.952, 1081.487 708.947, 1085.139 706.803 C 1088.790 704.658, 1093.515 701.395, 1095.639 699.550 L 1099.500 696.195 1097.165 689.348 C 1095.881 685.581, 1092.474 677.775, 1089.595 672 C 1086.715 666.225, 1081.745 657.457, 1078.551 652.516 C 1075.356 647.574, 1069.779 639.699, 1066.156 635.016 L 1059.569 626.500 1043.535 610.440 C 1034.716 601.606, 1021.085 588.570, 1013.245 581.470 L 998.990 568.561 1001.470 567.262 C 1002.834 566.547, 1004.358 565.183, 1004.857 564.231 L 1005.764 562.500 1004.967 560.393 L 1004.170 558.286 1000.653 555.387 L 997.136 552.488 996.025 549.994 C 995.414 548.622, 994.353 546.535, 993.668 545.357 C 992.983 544.178, 991.783 542.443, 991.002 541.502 C 990.221 540.562, 988.587 539.413, 987.370 538.951 L 985.159 538.110 985.696 536.055 L 986.233 534 984.617 534 L 983 534 983 532.622 L 983 531.244 980.922 529.864 L 978.845 528.485 980.922 526.089 L 983 523.694 982.985 521.597 C 982.976 520.444, 982.561 518.854, 982.061 518.064 L 981.152 516.629 979.826 517.634 C 979.097 518.187, 976.593 519.241, 974.263 519.976 L 970.026 521.312 968.490 523.656 L 966.954 526 965.003 526 L 963.051 526 961.450 522.903 L 959.849 519.806 957.924 520.403 C 956.866 520.731, 955.108 521.275, 954.018 521.612 L 952.036 522.224 951.017 519.545 L 949.998 516.866 947.965 517.511 L 945.931 518.157 942.454 516.106 L 938.978 514.054 936.228 514.604 L 933.477 515.155 928.989 513.495 C 926.520 512.583, 923.539 511.605, 922.363 511.323 L 920.227 510.810 917.065 515.405 C 915.327 517.932, 913.485 520, 912.972 520 C 912.460 520, 910.162 519.249, 907.867 518.330 L 903.694 516.660 901.843 518.946 L 899.992 521.231 898.032 520.719 L 896.071 520.206 893.536 522.385 L 891 524.564 891 526.477 L 891 528.391 888.313 531.195 C 886.835 532.738, 885.101 534, 884.459 534 C 883.817 534, 882.078 532.875, 880.595 531.500 C 879.111 530.125, 877.272 529, 876.507 529 C 875.743 529, 874.829 529.468, 874.475 530.041 L 873.832 531.081 872.057 530.518 L 870.282 529.955 868.641 530.584 L 867 531.214 867 533 L 867 534.786 865.387 535.405 L 863.775 536.024 864.936 537.423 L 866.097 538.822 865.037 539.477 C 864.454 539.837, 860.270 540.371, 855.739 540.664 C 851.207 540.957, 841.425 541.129, 834 541.048 L 820.500 540.899 813.503 542.950 L 806.506 545 802.894 545 L 799.281 545 793.086 541.805 L 786.890 538.610 787.570 534.555 C 787.944 532.325, 788.716 529.375, 789.285 528 L 790.319 525.500 790.961 528 C 791.313 529.375, 792.372 532.188, 793.314 534.250 L 795.027 538 796.013 538 C 796.556 538, 797.048 537.438, 797.106 536.750 C 797.164 536.063, 797.130 534.263, 797.031 532.750 L 796.849 530 798.302 530 C 799.101 530, 800.315 530.675, 801 531.500 C 801.685 532.325, 802.640 533, 803.122 533 L 804 533 804 531.155 L 804 529.310 802 527.500 C 800.900 526.505, 800 525.251, 800 524.714 L 800 523.738 803.500 524.306 L 807 524.874 807 523.440 L 807 522.006 803.750 520.626 L 800.500 519.246 803.331 518.117 L 806.163 516.988 805.727 515.744 L 805.292 514.500 801.646 514.614 C 799.641 514.677, 798 514.487, 798 514.193 C 798 513.898, 798.719 512.863, 799.598 511.892 L 801.196 510.126 800.539 509.063 C 800.178 508.478, 799.229 508, 798.431 508 L 796.980 508 795.252 510.019 L 793.523 512.038 792.427 508.769 L 791.332 505.500 789.106 505.173 L 786.880 504.845 787.568 508.673 L 788.255 512.500 785.323 509.750 L 782.391 507 780.802 507 L 779.214 507 778.624 508.538 L 778.034 510.076 779.517 510.645 C 780.333 510.958, 781 511.611, 781 512.096 L 781 512.978 778.500 512.771 L 776 512.564 776 511.456 C 776 510.847, 774.889 509.305, 773.531 508.029 L 771.062 505.709 771.509 504.985 L 771.957 504.261 776.056 505.010 L 780.155 505.760 780.714 504.302 L 781.273 502.845 779.784 501.355 C 778.964 500.536, 776.637 499.296, 774.613 498.600 L 770.932 497.334 775.007 495.497 L 779.081 493.660 778.762 492.080 L 778.442 490.500 773.780 490.559 L 769.118 490.618 769.748 489.559 C 770.094 488.977, 771.174 487.925, 772.147 487.223 L 773.916 485.945 773.351 484.473 L 772.786 483 770.691 483 L 768.595 483 765.173 486.250 L 761.751 489.500 762.246 484.807 L 762.741 480.115 761.579 479.669 L 760.416 479.222 758.774 480.423 L 757.133 481.624 756.428 484.562 C 756.041 486.178, 755.552 487.808, 755.343 488.185 L 754.962 488.871 752.526 486.435 L 750.091 484 748.104 484 L 746.118 484 745.494 485.010 L 744.870 486.019 746.935 488.645 C 748.071 490.088, 749 491.604, 749 492.012 L 749 492.754 744.750 492.334 L 740.500 491.913 739.104 492.856 L 737.709 493.798 738.268 495.257 L 738.828 496.716 742.164 497.451 L 745.500 498.187 742.500 499.224 C 740.850 499.794, 738.743 500.920, 737.817 501.724 L 736.135 503.188 736.691 504.637 L 737.247 506.086 741.858 505.394 L 746.468 504.703 743.234 508.386 C 741.455 510.412, 740 512.674, 740 513.412 C 740 514.151, 740.631 515.279, 741.403 515.920 L 742.806 517.084 745.549 514.542 C 747.058 513.144, 748.697 512, 749.191 512 L 750.091 512 749.450 515.413 L 748.810 518.826 749.472 520.913 L 750.135 523 752.067 523 C 753.130 523, 754.057 522.663, 754.128 522.250 C 754.198 521.837, 754.388 520.600, 754.549 519.500 C 754.711 518.400, 755.923 515.444, 757.244 512.932 L 759.644 508.364 762.301 519.432 C 763.763 525.519, 765.238 532.334, 765.579 534.576 L 766.200 538.653 759.579 540.826 L 752.958 543 749.229 543.010 L 745.500 543.020 740.105 545.531 L 734.710 548.043 732.855 547.454 L 731 546.865 731 544.933 L 731 543 726.678 543 L 722.356 543 717.660 541.400 L 712.963 539.799 711.952 537.910 C 711.396 536.871, 709.666 535.362, 708.109 534.556 C 706.552 533.751, 700.939 532.186, 695.636 531.079 L 685.994 529.065 684.469 529.650 C 683.631 529.972, 682.513 531.042, 681.985 532.027 L 681.026 533.820 679.141 533.326 L 677.255 532.833 675.064 535.910 L 672.874 538.986 673.590 540.145 L 674.306 541.303 672.524 542.606 L 670.743 543.909 671.300 546.041 L 671.858 548.173 666.383 550.594 L 660.909 553.015 658.454 552.399 L 656 551.783 656 550.461 L 656 549.139 653.750 548.820 L 651.500 548.500 651.500 543.355 L 651.500 538.210 649.627 536.140 L 647.754 534.070 644.364 534.198 L 640.975 534.325 639.865 535.662 L 638.755 537 636.022 537 L 633.289 537 632.363 540.250 L 631.437 543.500 628.114 543.821 L 624.791 544.142 623.156 547.969 L 621.522 551.797 618.333 551.279 L 615.145 550.762 615.451 555.303 L 615.757 559.843 612.387 563.110 L 609.017 566.376 610.521 568.672 L 612.025 570.967 608.403 574.975 L 604.782 578.983 603.902 578.440 L 603.022 577.896 599.428 579.601 L 595.834 581.307 594.903 583.755 L 593.972 586.203 592.404 585.602 C 591.542 585.271, 590.003 585, 588.985 585 L 587.133 585 578.901 578.035 C 574.373 574.205, 569.213 570.380, 567.433 569.535 C 565.654 568.691, 563.452 568, 562.540 568 L 560.882 568 561.504 566.993 L 562.127 565.986 560.313 565.414 C 559.316 565.100, 557.269 564.182, 555.765 563.374 L 553.031 561.905 551.289 562.203 L 549.547 562.500 549.524 560.500 L 549.500 558.500 546.343 558.504 L 543.186 558.508 543.720 557.644 L 544.254 556.780 547.715 557.341 L 551.177 557.903 550.574 556.331 L 549.970 554.759 551.985 555.286 L 554 555.813 553.968 555.156 C 553.951 554.795, 553.339 553.712, 552.608 552.750 L 551.280 551 548.247 551 L 545.214 551 544.645 552.483 L 544.076 553.965 541.034 553.357 L 537.991 552.748 534.502 555.124 L 531.014 557.500 531.007 558.750 L 531 560 529 560 L 527 560 525.036 561.964 L 523.073 563.927 523.946 564.467 L 524.820 565.006 526.309 564.435 L 527.798 563.864 528.550 565.081 L 529.302 566.298 524.112 565.609 C 521.257 565.231, 517.814 564.500, 516.461 563.985 L 514 563.050 514 562.023 C 514 561.459, 516.250 559.380, 519 557.405 C 521.750 555.429, 524 553.626, 524 553.398 C 524 553.170, 522.987 553.549, 521.750 554.242 C 520.513 554.934, 518.489 556.364, 517.254 557.421 C 516.019 558.477, 514.835 559.152, 514.624 558.921 C 514.413 558.689, 514.801 556.325, 515.486 553.667 L 516.733 548.835 518.876 546.167 C 520.054 544.700, 522.145 541.813, 523.522 539.750 L 526.025 536 528.052 536 C 529.167 536, 531.844 535.100, 534 534 L 537.920 532 540.437 532 L 542.954 532 544.592 534.500 L 546.230 537 547.893 537 C 548.807 537, 550.594 536.272, 551.864 535.383 L 554.172 533.766 553.681 531.887 L 553.189 530.008 556.345 529.195 L 559.500 528.382 559.819 526.193 L 560.139 524.003 557.569 523.026 L 555 522.050 555 520.525 L 555 519 556.500 519 L 558 519 558 517.669 L 558 516.338 555.500 515 C 554.125 514.264, 553 513.294, 553 512.844 C 553 512.395, 551.370 511.346, 549.378 510.513 C 547.386 509.681, 545.603 509, 545.417 509 C 545.230 509, 544.273 509.863, 543.289 510.919 L 541.500 512.838 538.771 513.522 L 536.042 514.206 532.021 510.022 L 528 505.837 528 502.811 L 528 499.786 526.581 500.331 L 525.162 500.875 522.912 498.924 L 520.662 496.972 518.831 497.554 L 517 498.135 517 496.722 L 517 495.310 519.017 493.485 L 521.034 491.659 522.937 493.702 L 524.840 495.744 529.065 495.506 L 533.290 495.267 535.123 492.884 C 536.131 491.573, 536.966 490.163, 536.978 489.750 C 536.990 489.337, 536.514 489, 535.921 489 L 534.841 489 535.446 486.250 L 536.050 483.500 532.546 483.500 L 529.041 483.500 529.045 482.513 L 529.050 481.527 532.087 481.845 L 535.125 482.164 534.813 480.332 C 534.641 479.324, 533.864 478.003, 533.088 477.395 L 531.675 476.289 532.306 474.645 L 532.937 473 531.712 473 C 531.038 473, 529.027 473.419, 527.243 473.930 L 524 474.860 524 473.914 L 524 472.968 520.884 473.206 L 517.767 473.443 517.255 474.779 L 516.742 476.115 515.371 475.589 L 514 475.063 513.985 476.781 L 513.969 478.500 513.108 477.141 L 512.247 475.782 508.199 476.466 L 504.151 477.150 502.996 474.992 L 501.841 472.834 500.170 474.326 L 498.500 475.818 495.499 476.122 L 492.499 476.426 491.318 475.697 L 490.138 474.967 489.416 476.135 L 488.694 477.303 490.270 478.456 L 491.846 479.608 490.288 480.590 L 488.730 481.573 489.368 483.584 L 490.006 485.594 496.253 485.255 L 502.500 484.916 504.297 487.458 L 506.093 490 503.512 490 L 500.930 490 498.715 491.382 L 496.500 492.763 492.250 492.632 L 488 492.500 488 494.250 L 488 496 484.345 496 L 480.690 496 482.385 497.873 L 484.080 499.746 482.040 500.279 L 480 500.813 480 502.335 C 480 503.172, 480.675 504.532, 481.500 505.357 C 482.325 506.182, 483 507.379, 483 508.016 L 483 509.176 486.897 508.517 L 490.795 507.859 491.456 508.929 L 492.118 510 491.059 510 C 490.477 510, 490 510.450, 490 511 L 490 512 492.566 512 C 493.977 512, 495.976 511.548, 497.009 510.995 L 498.886 509.991 501.443 511.156 C 502.849 511.797, 504 512.756, 504 513.288 L 504 514.256 507.913 513.630 C 510.064 513.286, 512.539 512.730, 513.413 512.395 L 515 511.786 515 514.367 L 515 516.949 512.250 518.353 L 509.500 519.756 506.250 519.265 L 503 518.773 503 519.642 C 503 520.121, 501.538 521.109, 499.750 521.840 C 497.963 522.570, 495.375 523.681, 494 524.307 C 492.625 524.934, 490.503 526.187, 489.284 527.091 L 487.068 528.734 487.701 529.367 L 488.333 530 487.663 530 C 487.294 530, 485.382 529.137, 483.413 528.081 L 479.833 526.162 476.841 527.205 L 473.848 528.248 472.724 527.124 L 471.600 526 468.775 526 L 465.950 526 464.975 528.565 C 464.439 529.976, 464 531.312, 464 531.534 C 464 531.756, 464.720 531.661, 465.601 531.323 L 467.202 530.709 467.974 531.958 L 468.746 533.206 470.886 532.061 L 473.027 530.915 474.763 531.927 L 476.500 532.939 473.309 532.970 L 470.118 533 469.431 534.112 L 468.744 535.224 469.979 535.987 L 471.214 536.750 470.007 537.495 L 468.801 538.241 463.151 532.670 L 457.500 527.100 453 525.072 L 448.500 523.044 441.993 523.022 L 435.487 523 432.097 523.972 L 428.707 524.944 422.906 519.574 L 417.105 514.203 412.102 511.825 L 407.098 509.447 404.067 504.973 L 401.036 500.500 401.018 498.419 L 401 496.338 403.652 494.919 L 406.303 493.500 408.402 493.853 C 409.556 494.047, 410.805 494.697, 411.178 495.296 L 411.857 496.386 414.428 495.215 L 417 494.043 417 492.196 L 417 490.349 414.750 488.261 C 413.512 487.113, 410.295 485.010, 407.601 483.587 C 404.907 482.164, 403.107 480.947, 403.601 480.882 C 404.095 480.816, 404.838 480.816, 405.250 480.882 C 405.663 480.947, 406.939 480.061, 408.087 478.913 L 410.173 476.827 409.575 474.443 L 408.977 472.059 406.238 469.501 L 403.500 466.943 401.500 467.158 L 399.500 467.373 396 465.190 C 394.075 463.990, 391.712 463.006, 390.750 463.004 C 389.788 463.002, 389 462.698, 389 462.329 C 389 461.960, 389.725 460.856, 390.612 459.876 L 392.224 458.095 394.918 458.634 L 397.612 459.172 398.672 457.836 C 399.255 457.101, 399.951 455.279, 400.220 453.787 L 400.708 451.075 398.421 448.926 L 396.134 446.777 392.317 447.308 C 390.218 447.600, 387.150 448.170, 385.500 448.574 C 383.850 448.978, 381.038 450.418, 379.250 451.773 L 376 454.237 376 456.235 L 376 458.233 378.500 457.755 L 381 457.277 381 461.184 L 381 465.091 377.750 464.563 C 375.962 464.272, 373.150 463.959, 371.500 463.866 C 369.850 463.774, 366.622 463.766, 364.327 463.849 L 360.153 464 357.077 466.589 C 355.385 468.013, 354 468.858, 354 468.466 C 354 468.075, 353.304 468.333, 352.453 469.039 C 351.602 469.745, 349.798 472.666, 348.443 475.529 L 345.981 480.734 347.485 483.617 L 348.990 486.500 346.495 486.816 L 343.999 487.133 342.997 489.006 L 341.995 490.879 343.085 491.552 L 344.175 492.226 340.837 495.581 L 337.500 498.936 334.372 498.968 L 331.245 499 329.985 497.482 C 329.292 496.646, 327.099 495.224, 325.112 494.321 C 323.126 493.418, 320.138 491.410, 318.473 489.859 L 315.445 487.039 312.223 486.395 L 309 485.750 308.848 487.625 C 308.764 488.656, 308.650 490.138, 308.593 490.918 L 308.492 492.336 307.246 492.751 L 306 493.167 306 494.690 L 306 496.214 304.460 495.623 L 302.921 495.032 300.830 496.266 L 298.739 497.500 298.286 496.250 L 297.833 495 296.167 494.968 L 294.500 494.937 291.656 492.435 L 288.811 489.934 289.337 488.565 L 289.862 487.196 289.262 486.596 L 288.662 485.996 286.831 487.653 L 285 489.310 285 488.038 L 285 486.767 283 487.290 L 281 487.813 281 486.799 L 281 485.786 279.532 486.349 L 278.064 486.913 277.404 485.845 L 276.744 484.776 277.756 484.138 C 278.313 483.787, 278.938 482.609, 279.144 481.520 L 279.520 479.540 283.466 479.237 L 287.413 478.934 289.090 477.134 L 290.767 475.334 289.878 473.746 L 288.989 472.158 290.017 469.456 L 291.044 466.753 289.607 465.626 C 288.816 465.007, 288.016 463.618, 287.828 462.540 L 287.488 460.580 284.151 459.897 C 282.316 459.522, 280.316 458.716, 279.707 458.107 L 278.600 457 276.550 457.032 C 275.423 457.049, 273.626 457.724, 272.559 458.532 L 270.618 460 268.559 460.015 C 267.426 460.024, 265.880 460.423, 265.122 460.904 L 263.744 461.776 264.575 463.121 C 265.031 463.860, 265.477 465.373, 265.566 466.482 L 265.726 468.500 263.613 470.611 C 262.451 471.772, 260.100 473.439, 258.389 474.315 L 255.278 475.908 253.181 473.954 C 252.027 472.879, 250.390 472, 249.542 472 L 248 472 248 473.038 L 248 474.076 245.273 473.788 L 242.545 473.500 241.387 477 L 240.228 480.500 238.364 480.602 C 237.339 480.658, 236.050 480.820, 235.500 480.963 C 234.950 481.105, 233.545 481.147, 232.378 481.056 L 230.256 480.890 229.659 482.445 L 229.063 484 227.576 484 C 226.758 484, 224.381 482.909, 222.294 481.576 C 220.207 480.243, 217.600 478.255, 216.500 477.158 C 215.400 476.061, 211.868 470.222, 208.652 464.184 L 202.804 453.204 197.402 448.084 C 194.431 445.268, 192 442.522, 192 441.982 L 192 441 193.559 441 L 195.118 441 194.538 440.061 L 193.958 439.123 195.601 438.204 L 197.244 437.284 194.899 435.642 C 193.610 434.739, 192.093 434, 191.527 434 C 190.962 434, 189.212 432.386, 187.638 430.412 L 184.775 426.825 185.888 425.712 C 186.499 425.101, 187 424.292, 187 423.917 C 187 423.541, 186.100 422.998, 185 422.710 L 183 422.187 183 420.312 L 183 418.437 178.614 417.142 L 174.227 415.846 174.730 413.923 L 175.233 412 174.010 412 L 172.786 412 173.410 410.373 L 174.035 408.746 172.267 407.414 L 170.500 406.081 168.811 406.589 L 167.122 407.096 165.968 404.941 L 164.815 402.785 163.707 403.893 L 162.600 405 160.367 405 L 158.135 405 157.500 407 L 156.865 409 155.540 409 L 154.214 409 153.638 410.500 L 153.063 412 150.031 412 L 147 412 147 412.889 L 147 413.777 143.400 414.453 L 139.799 415.128 138.113 413.602 L 136.426 412.076 134.231 412.650 L 132.036 413.224 131.043 410.612 L 130.050 408 128.703 408 L 127.356 408 123.928 403.801 C 122.043 401.492, 119.357 398.454, 117.960 397.051 C 116.563 395.648, 114.841 393.375, 114.134 392 L 112.849 389.500 108.174 387.233 C 105.604 385.986, 103.050 384.966, 102.500 384.966 C 101.950 384.966, 100.440 383.848, 99.145 382.483 C 97.850 381.117, 96.368 380, 95.851 380 L 94.912 380 95.206 378.250 L 95.500 376.500 93.314 376.500 L 91.128 376.500 89.314 374.459 C 88.316 373.337, 86.672 371.456, 85.660 370.281 L 83.820 368.143 84.477 366.072 L 85.135 364 86.567 364 L 88 364 88 362.035 L 88 360.070 85.979 358.989 L 83.959 357.908 83.083 358.448 L 82.208 358.989 79.354 357.501 C 77.784 356.682, 76.050 356.024, 75.500 356.038 C 74.950 356.052, 73.600 356.749, 72.500 357.588 M 382.711 459 C 383.028 460.925, 383.335 462.560, 383.394 462.633 C 383.452 462.707, 384.512 462.384, 385.750 461.916 L 388 461.064 388 458.924 L 388 456.783 385.583 457.390 L 383.166 457.997 382.650 456.748 C 382.367 456.062, 382.395 457.075, 382.711 459 M 392.423 480.339 L 391.823 481.904 392.470 482.952 C 392.827 483.528, 393.766 484, 394.559 484 L 396 484 396 482.622 C 396 481.865, 395.330 480.689, 394.512 480.010 L 393.024 478.775 392.423 480.339 M 380.358 484.664 C 380.659 485.674, 381.213 487.850, 381.590 489.500 C 381.967 491.150, 382.709 493.051, 383.238 493.724 L 384.201 494.947 387.850 495.607 C 389.858 495.970, 392.680 496.864, 394.123 497.594 L 396.746 498.920 397.373 498.293 C 397.718 497.949, 398 496.926, 398 496.020 L 398 494.374 394.974 491.475 L 391.949 488.577 392.508 487.118 L 393.068 485.660 391.870 484.919 L 390.672 484.179 387.473 484.698 L 384.274 485.217 382.043 484.023 L 379.811 482.828 380.358 484.664 M 374.885 486.839 C 375.997 488.400, 377.668 490.309, 378.598 491.081 L 380.288 492.484 379.644 490.242 C 379.290 489.009, 378.745 487.100, 378.433 486 L 377.865 484 375.365 484 L 372.864 484 374.885 486.839 M 368.375 493.204 L 367.433 496.500 364.967 496.821 L 362.500 497.141 361.322 498.664 L 360.143 500.187 363.738 503.343 L 367.334 506.500 382.667 506.500 C 391.100 506.500, 398 506.358, 398 506.184 C 398 506.011, 397.542 505.013, 396.983 503.968 L 395.966 502.068 392.233 501.134 C 390.180 500.621, 387.287 499.928, 385.805 499.595 L 383.109 498.989 378.494 494.995 C 375.955 492.798, 373.493 491, 373.021 491 C 372.549 491, 371.523 490.754, 370.740 490.454 L 369.316 489.907 368.375 493.204 M 510.548 495.567 L 508.866 498.134 510.056 499.567 C 510.710 500.355, 511.879 501, 512.654 501 L 514.063 501 514.639 499.498 L 515.216 497.996 514.589 495.498 L 513.962 493 513.096 493 C 512.620 493, 511.473 494.155, 510.548 495.567 M 762 507.348 C 762 507.746, 762.873 511.769, 763.941 516.286 C 765.008 520.804, 766.245 527.425, 766.691 531 L 767.500 537.500 769.500 537.233 C 770.600 537.086, 773.975 536.901, 777 536.823 C 780.025 536.745, 783.112 536.865, 783.859 537.090 L 785.218 537.500 786.924 531.408 L 788.631 525.317 784.065 528.368 C 781.554 530.045, 779.350 531.774, 779.167 532.209 C 778.983 532.644, 778.421 533, 777.917 533 L 777 533 777 531.155 L 777 529.310 779 527.500 C 780.100 526.505, 781 525.275, 781 524.768 L 781 523.847 777.263 524.169 L 773.526 524.491 773.219 522.898 L 772.912 521.305 776.706 519.765 L 780.500 518.225 777.360 517.509 L 774.220 516.794 771.048 513.897 C 769.304 512.304, 767.472 511, 766.977 511 C 766.483 511, 765.160 510.015, 764.039 508.811 C 762.918 507.608, 762 506.949, 762 507.348 M 519 533.123 L 519 542 519.750 541.961 C 520.163 541.940, 521.400 540.503, 522.500 538.767 L 524.500 535.612 527.750 534.777 C 529.538 534.318, 531 533.840, 531 533.715 C 531 533.589, 531.436 531.966, 531.969 530.108 C 532.502 528.249, 532.651 527.015, 532.300 527.366 L 531.662 528.004 530.081 526.629 L 528.500 525.254 523.750 524.750 L 519 524.246 519 533.123 M 536.303 526.744 C 535.194 527.710, 533.954 529.551, 533.548 530.836 L 532.811 533.172 534.933 532.036 L 537.056 530.900 536.428 529.883 L 535.800 528.867 537.648 527.515 L 539.497 526.164 538.909 525.575 L 538.321 524.987 536.303 526.744 M 514.743 526.666 L 513.985 527.833 510.549 527.560 L 507.112 527.287 503.806 530.576 L 500.500 533.864 498.485 532.563 C 497.377 531.848, 495.015 530.943, 493.235 530.552 L 490 529.841 490 530.921 L 490 532 491.309 532 C 492.029 532, 493.491 532.668, 494.559 533.484 L 496.500 534.967 494.250 535.600 L 492 536.233 491.882 537.867 C 491.816 538.765, 491.828 539.873, 491.908 540.328 L 492.052 541.157 490.276 540.823 L 488.500 540.488 487.513 538.244 L 486.526 536 485.356 536 L 484.187 536 484.707 537.989 L 485.227 539.978 486.114 539.430 L 487 538.882 487 540.868 L 487 542.855 489.734 545.006 L 492.468 547.156 495.089 546.632 L 497.709 546.108 500.105 547.733 C 501.422 548.627, 503.978 550.627, 505.785 552.179 C 507.591 553.730, 509.616 554.998, 510.285 554.995 L 511.500 554.990 513.802 546.655 L 516.104 538.320 515.802 531.910 L 515.500 525.500 514.743 526.666 M 479.250 537.706 C 478.012 537.944, 477 538.518, 477 538.981 C 477 539.444, 478.385 540.987, 480.077 542.411 C 481.769 543.835, 483.532 545, 483.995 545 C 484.458 545, 485.638 545.307, 486.617 545.683 L 488.397 546.366 486.361 543.433 C 485.242 541.820, 484.041 539.712, 483.694 538.750 C 483.347 537.788, 482.711 537.061, 482.281 537.136 C 481.852 537.211, 480.488 537.467, 479.250 537.706 M 472.430 541.677 L 472.977 543.104 471.989 542.493 L 471 541.882 471 543.241 C 471 543.988, 471.534 545.134, 472.186 545.786 C 472.839 546.439, 473.513 547.891, 473.684 549.013 C 473.856 550.136, 474.622 552.554, 475.388 554.387 L 476.781 557.720 484.140 558.508 C 488.188 558.941, 492.625 559.443, 494 559.622 C 495.375 559.802, 499.605 560.643, 503.400 561.491 C 507.196 562.339, 510.471 562.862, 510.678 562.655 C 510.886 562.447, 510.615 561.117, 510.076 559.699 L 509.096 557.122 506.961 555.979 C 505.786 555.350, 503.570 553.431, 502.036 551.714 L 499.246 548.592 493.202 548.373 L 487.158 548.155 485.274 547.146 L 483.389 546.138 478.945 546.553 L 474.500 546.967 476.809 546.234 L 479.118 545.500 478.960 544.500 C 478.874 543.950, 478.411 542.769, 477.933 541.875 L 477.063 540.250 474.473 540.250 L 471.882 540.250 472.430 541.677 M 537 565.500 L 537 567 540 567 L 543 567 543 565.500 L 543 564 540 564 L 537 564 537 565.500" stroke="none" fill-rule="evenodd" style="fill: rgb(181, 186, 192);"/>
</svg>