<?xml version="1.0" encoding="utf-8"?>
<svg viewBox="0 231.257 1366 536.743" xmlns="http://www.w3.org/2000/svg">
  <path d="M 1184.921 340.755 L 1183.698 342.712 L 1180.871 341.645 L 1178.043 340.578 L 1175.271 342.61 L 1172.5 344.643 L 1171.115 347.715 L 1169.73 350.787 L 1165.995 351.385 L 1162.26 351.982 L 1161.019 353.477 L 1159.779 354.971 L 1157.255 352.986 L 1154.73 351 L 1152.487 351 C 1151.254 351 1148.533 351.715 1146.443 352.588 L 1142.641 354.177 L 1139.57 353.636 C 1137.882 353.338 1135.05 352.799 1133.278 352.438 L 1130.057 351.781 L 1128.854 354.421 L 1127.652 357.06 L 1122.051 356.426 L 1116.45 355.793 L 1114.975 359.08 L 1113.5 362.368 L 1109.704 363.434 L 1105.908 364.5 L 1102.704 367.607 C 1100.942 369.316 1098.517 371.228 1097.316 371.857 C 1096.114 372.486 1093.752 373 1092.066 373 L 1089 373 L 1089 374.5 L 1089 376 L 1085.508 376 L 1082.017 376 L 1080.833 377.896 L 1079.649 379.792 L 1078.189 378.332 L 1076.729 376.871 L 1075.664 377.936 C 1075.079 378.521 1073.817 379 1072.859 379 L 1071.118 379 L 1070.382 377.809 L 1069.646 376.618 L 1070.823 376.226 C 1071.47 376.01 1071.99 375.308 1071.978 374.667 C 1071.966 374.025 1071.13 372.426 1070.121 371.114 L 1068.286 368.728 L 1067.584 369.864 L 1066.882 371 L 1061.441 371 L 1056 371 L 1056 369.567 L 1056 368.135 L 1053.947 367.483 L 1051.895 366.832 L 1053.033 365.46 L 1054.172 364.088 L 1053.598 363.159 L 1053.024 362.231 L 1050.262 362.49 C 1048.743 362.632 1046.15 363.092 1044.5 363.512 C 1042.85 363.932 1040.956 364.703 1040.292 365.225 L 1039.084 366.175 L 1036.524 363.615 L 1033.965 361.056 L 1029.044 361.4 L 1024.123 361.745 L 1021.593 364.623 C 1020.202 366.205 1019.049 367.837 1019.032 368.25 C 1019.014 368.663 1019.711 369 1020.579 369 L 1022.159 369 L 1021.5 372 L 1020.841 375 L 1021.702 375 L 1022.564 375 L 1022.788 377.714 L 1023.013 380.428 L 1024.465 381.24 L 1025.917 382.053 L 1025.355 383.518 L 1024.792 384.983 L 1026.463 385.624 L 1028.134 386.266 L 1029.267 385.133 C 1029.89 384.51 1031.21 384 1032.2 384 L 1034 384 L 1034 384.917 C 1034 385.421 1033.438 386.037 1032.75 386.286 L 1031.5 386.739 L 1032.678 388.741 L 1033.857 390.743 L 1032.95 391.65 L 1032.043 392.557 L 1028.022 392.173 L 1024 391.79 L 1023.985 388.645 C 1023.976 386.915 1023.552 384.84 1023.042 384.034 L 1022.114 382.567 L 1020.057 387.366 C 1018.926 390.006 1018 392.748 1018 393.46 C 1018 394.173 1017.373 395.275 1016.607 395.911 L 1015.214 397.067 L 1014.32 393.283 L 1013.425 389.5 L 1012.462 389.707 L 1011.5 389.913 L 1010.779 393.707 C 1010.383 395.793 1010.108 401.154 1010.169 405.62 C 1010.229 410.086 1009.991 414.206 1009.638 414.776 L 1008.998 415.812 L 1006.897 415.263 L 1004.795 414.713 L 1004.148 415.607 C 1003.791 416.098 1001.545 417.512 999.155 418.75 C 996.766 419.988 994.629 421 994.405 421 C 994.182 421 994 419.865 994 418.479 L 994 415.957 L 991.461 414.8 L 988.923 413.644 L 989.464 412.234 L 990.005 410.824 L 987.752 408.945 L 985.5 407.067 L 983.691 407.033 L 981.882 407 L 982.536 405.941 L 983.191 404.882 L 985.827 405.191 L 988.463 405.5 L 988.804 403.754 L 989.145 402.007 L 987.561 402.615 L 985.977 403.223 L 986.596 401.611 L 987.214 400 L 985.844 400 L 984.474 400 L 983.487 402.25 L 982.5 404.5 L 980.796 404.5 L 979.093 404.5 L 977.578 406.5 L 976.064 408.5 L 976.032 405.75 L 976 403 L 976.839 403 C 977.301 403 978.166 401.931 978.761 400.625 L 979.843 398.25 L 983.172 397.593 C 985.002 397.232 989.131 396.501 992.347 395.969 L 998.193 395.001 L 999.097 395.56 L 1000 396.118 L 1000 393.559 L 1000 391 L 998.75 390.968 C 998.063 390.951 996.602 390.258 995.505 389.429 L 993.51 387.921 L 994.941 387.037 L 996.371 386.152 L 995.047 384.557 L 993.723 382.961 L 990.112 383.636 L 986.5 384.311 L 982.75 386.788 C 980.688 388.151 979 389.556 979 389.911 C 979 390.265 979.862 391.294 980.915 392.196 L 982.831 393.836 L 983.415 393.251 L 984 392.667 L 984 393.82 L 984 394.973 L 980.5 396.436 L 977 397.898 L 976.93 399.199 L 976.859 400.5 L 976 398.5 C 975.527 397.4 975.109 394.845 975.07 392.823 L 975 389.145 L 977.635 387.073 L 980.27 385 L 982.635 385 L 985 385 L 985 383.441 L 985 381.882 L 984.105 382.435 L 983.21 382.989 L 982.505 381.244 L 981.8 379.5 L 980.901 381.834 L 980.002 384.167 L 978.751 383.73 L 977.5 383.293 L 976.285 385.397 L 975.071 387.5 L 975.035 385.947 L 975 384.394 L 977.917 380.428 L 980.833 376.462 L 984.488 375.141 L 988.143 373.819 L 989.988 375.489 L 991.834 377.159 L 993.917 376.045 L 996 374.93 L 996 373.465 L 996 372 L 997.5 372 L 999 372 L 999 370.469 L 999 368.937 L 997.416 368.329 L 995.832 367.722 L 997.166 366.88 L 998.5 366.038 L 995.594 363.519 C 993.996 362.133 992.052 361 991.273 361 C 990.494 361 989.192 361.665 988.379 362.478 L 986.902 363.956 L 984.889 362.728 L 982.877 361.5 L 982.324 358.804 L 981.772 356.109 L 978.845 355.466 L 975.918 354.823 L 974.617 355.903 L 973.316 356.983 L 972.727 356.394 C 972.403 356.07 972.352 355.246 972.614 354.562 L 973.091 353.32 L 971.637 352.114 L 970.183 350.907 L 965.091 351.582 L 960 352.258 L 960 353.129 L 960 354 L 958.117 354 L 956.233 354 L 955.68 356.115 L 955.127 358.23 L 956.287 360.087 L 957.446 361.944 L 961.973 362.523 C 964.463 362.842 967.182 363.467 968.014 363.913 L 969.529 364.723 L 973.014 364.291 L 976.5 363.858 L 975 364.914 C 974.175 365.494 972.375 365.982 971 365.997 L 968.5 366.024 L 964.247 368.456 L 959.994 370.887 L 954.105 370.441 L 948.216 369.994 L 947.574 371.667 L 946.932 373.34 L 948.216 374.188 L 949.5 375.036 L 946.986 377.268 L 944.472 379.5 L 944.789 381.148 L 945.107 382.795 L 948.991 382.274 L 952.874 381.754 L 959.44 382.457 L 966.006 383.16 L 969.003 386.157 L 972 389.154 L 972 391.136 L 972 393.118 L 971 392.5 C 970.45 392.16 970 391.185 970 390.334 L 970 388.786 L 968.507 389.359 L 967.014 389.932 L 964.86 387.716 L 962.705 385.5 L 963.364 387.361 L 964.023 389.223 L 962.511 388.643 L 961 388.063 L 961 389.531 L 961 391 L 963.54 391 L 966.081 391 L 969.04 393.188 L 972 395.376 L 972 398.094 L 972 400.813 L 970.113 400.319 L 968.226 399.826 L 967.554 400.913 C 967.184 401.511 966.185 402 965.334 402 L 963.786 402 L 964.41 400.373 L 965.035 398.747 L 963.895 397.373 L 962.755 396 L 960.437 396 L 958.118 396 L 957.442 397.094 L 956.766 398.188 L 954.383 397.733 L 952 397.277 L 952 398.022 C 952 398.432 951.055 399.014 949.899 399.316 L 947.799 399.865 L 948.416 400.864 L 949.033 401.862 L 948.027 402.483 L 947.022 403.104 L 948.587 405.492 L 950.151 407.879 L 951.575 407.333 L 953 406.786 L 953 408.01 L 953 409.233 L 954.882 408.741 L 956.763 408.249 L 961.632 409.557 L 966.5 410.865 L 965 411.051 C 964.175 411.153 963.185 411.191 962.799 411.135 C 962.414 411.079 959.827 412.174 957.049 413.569 L 952 416.105 L 952 417.596 L 952 419.088 L 953.25 418.848 C 953.938 418.716 955.456 418.934 956.625 419.332 L 958.749 420.055 L 956.902 425.278 C 955.886 428.15 954.327 433.118 953.436 436.319 L 951.818 442.138 L 948.832 445.539 L 945.845 448.94 L 946.425 449.878 L 947.004 450.815 L 946.159 453.1 L 945.313 455.385 L 944.638 452.692 L 943.962 450 L 942.901 450 L 941.841 450 L 942.51 453.25 C 942.878 455.038 943.386 457.625 943.639 459 L 944.099 461.5 L 942.092 458 L 940.084 454.5 L 940.042 451.809 L 940 449.118 L 939 448.5 L 938 447.882 L 937.882 450.191 C 937.816 451.461 937.836 453.063 937.925 453.75 L 938.088 455 L 936.985 455 L 935.882 455 L 936.633 456.25 L 937.384 457.5 L 935.629 456.075 L 933.874 454.651 L 934.518 457.575 L 935.162 460.5 L 934.021 459 C 933.393 458.175 932.023 455.587 930.976 453.25 C 929.928 450.913 928.695 449 928.236 449 L 927.402 449 L 927.733 452.75 L 928.065 456.5 L 925.991 452.716 L 923.918 448.933 L 922.952 449.53 L 921.986 450.127 L 921.386 448.563 C 921.056 447.704 920.415 447 919.963 447 C 919.51 447 918.995 447.969 918.82 449.154 L 918.5 451.308 L 915.389 448.682 C 913.678 447.238 911.091 445.605 909.639 445.053 L 907 444.05 L 907 444.93 C 907 445.414 908.948 446.952 911.33 448.347 C 913.711 449.743 916.241 451.586 916.952 452.442 C 917.663 453.299 917.935 454 917.557 454 C 917.178 454 916.025 453.549 914.995 452.997 L 913.121 451.995 L 912.497 453.004 L 911.873 454.014 L 913.614 454.682 L 915.354 455.35 L 913.5 456 L 911.646 456.65 L 916.375 458.94 C 918.976 460.199 920.869 461.465 920.581 461.752 C 920.293 462.04 918.007 461.702 915.5 461 L 910.943 459.724 L 910.318 460.349 L 909.693 460.974 L 913.096 462.339 C 914.968 463.09 917.4 464.03 918.5 464.427 L 920.5 465.149 L 917.25 466.526 L 914 467.903 L 914 468.952 L 914 470 L 915.378 470 C 916.135 470 917.369 470.74 918.12 471.644 L 919.484 473.288 L 917.492 472.692 C 916.396 472.364 914.263 471.8 912.75 471.439 L 910 470.783 L 910 471.684 L 910 472.585 L 914.671 473.834 L 919.341 475.084 L 915.671 477.578 C 913.652 478.95 912 480.258 912 480.485 C 912 480.712 913.624 480.22 915.608 479.39 C 917.593 478.561 919.356 478.022 919.526 478.193 C 919.697 478.364 919.311 479.222 918.668 480.1 C 918.026 480.978 915.7 482.685 913.5 483.893 L 909.5 486.09 L 912.362 485.663 L 915.224 485.235 L 917.783 486.562 L 920.342 487.89 L 914.421 488.195 L 908.5 488.5 L 911.388 490.1 L 914.276 491.7 L 910.268 492.341 L 906.26 492.982 L 904.88 494.657 L 903.5 496.332 L 906.157 495.67 C 907.619 495.306 909.644 494.705 910.657 494.334 L 912.5 493.659 L 909.632 496.58 C 908.055 498.186 906.355 500.575 905.854 501.889 C 905.354 503.202 905.182 504.515 905.472 504.805 C 905.762 505.096 907.597 503.571 909.549 501.417 L 913.098 497.5 L 912.049 499.684 C 911.472 500.886 911 502.219 911 502.646 C 911 503.074 912.369 501.866 914.041 499.962 L 917.082 496.5 L 916.434 500 L 915.786 503.5 L 918.143 500.077 C 919.439 498.194 921.147 496.441 921.937 496.181 L 923.374 495.709 L 921.187 498.489 C 919.984 500.018 919 501.743 919 502.32 C 919 502.898 918.022 504.413 916.826 505.686 L 914.651 508 L 915.997 508 C 916.737 508 918.165 507.255 919.171 506.345 L 921 504.69 L 921 506.332 L 921 507.975 L 917.244 510.346 C 915.179 511.65 911.916 514.506 909.994 516.693 C 908.072 518.881 904.871 522.657 902.879 525.085 L 899.259 529.5 L 893.719 532.817 L 888.18 536.135 L 886.141 534.389 L 884.102 532.643 L 884.583 531.866 C 884.847 531.438 884.35 529.381 883.479 527.294 C 882.607 525.207 880.741 522.296 879.332 520.825 L 876.77 518.151 L 875.385 518.682 L 874 519.214 L 874 517.857 L 874 516.499 L 870.13 512.5 C 868.002 510.3 865.611 507.998 864.817 507.385 C 864.023 506.772 862.385 505.741 861.176 505.094 C 859.967 504.447 858.42 504.007 857.739 504.116 C 857.057 504.226 855.63 503.94 854.566 503.48 L 852.632 502.645 L 847.091 504.637 L 841.55 506.629 L 840.307 510.924 C 839.623 513.286 838.649 515.732 838.142 516.359 C 837.635 516.987 837.313 518.4 837.426 519.5 C 837.54 520.6 837.987 522.73 838.421 524.233 L 839.208 526.966 L 842.63 529.081 L 846.053 531.196 L 848.395 529.661 L 850.737 528.126 L 851.868 530.61 L 853 533.094 L 853 536.579 L 853 540.064 L 854.538 543.746 C 855.384 545.77 856.768 548.191 857.613 549.125 L 859.15 550.823 L 858.825 553.638 L 858.5 556.454 L 856.169 557.609 L 853.838 558.765 L 850.919 557.663 L 848 556.562 L 848 555.187 L 848 553.813 L 846.011 553.293 L 844.022 552.773 L 844.52 551.967 L 845.018 551.161 L 843.509 549.652 C 842.679 548.822 842 547.436 842 546.571 L 842 545 L 839.75 545.015 C 838.513 545.024 836.838 545.449 836.03 545.961 L 834.559 546.891 L 831.254 544.848 L 827.949 542.806 L 826.475 543.371 L 825 543.937 L 825 542.297 C 825 541.395 825.763 539.815 826.695 538.785 L 828.389 536.912 L 824.12 532.768 L 819.85 528.624 L 819.064 529.896 L 818.278 531.168 L 817.671 529.584 L 817.063 528 L 815.531 528 L 814 528 L 814 529.04 C 814 529.613 813.029 531.394 811.843 532.999 L 809.686 535.916 L 810.965 537.458 L 812.245 539 L 810.622 539 L 809 539 L 809 539.969 L 809 540.937 L 807.75 540.474 L 806.5 540.011 L 804.172 543.61 L 801.844 547.21 L 802.988 549.971 L 804.132 552.733 L 806.316 553.902 L 808.5 555.072 L 808.637 557.427 L 808.775 559.782 L 806.637 560.755 L 804.5 561.729 L 802.174 560.869 L 799.849 560.008 L 798.424 561.433 C 797.641 562.216 797 563.291 797 563.822 C 797 564.352 796.288 565.059 795.418 565.393 C 794.548 565.727 792.748 566 791.418 566 L 789 566 L 789 564.167 C 789 563.158 788.747 562.081 788.438 561.772 L 787.876 561.21 L 783.438 563.69 L 779 566.171 L 779 567.845 L 779 569.519 L 776.937 570.807 L 774.875 572.095 L 773.022 571.507 L 771.168 570.919 L 770.525 571.959 L 769.882 573 L 767.941 573 L 766 573 L 766 571 L 766 569 L 763.723 569 L 761.445 569 L 759.176 567.411 L 756.907 565.822 L 755.579 566.331 L 754.25 566.841 L 753.767 569.671 C 753.501 571.227 752.977 573.207 752.603 574.072 L 751.923 575.644 L 754.54 576.836 L 757.157 578.029 L 756.755 579.235 L 756.353 580.441 L 752.498 581.242 L 748.643 582.043 L 747.621 581.021 C 747.06 580.46 745.79 580 744.8 580 L 743 580 L 743 583.066 C 743 584.752 743.409 586.896 743.909 587.831 L 744.819 589.53 L 741.159 589.387 C 739.147 589.309 736.693 588.909 735.707 588.499 L 733.914 587.753 L 733.333 588.334 L 732.752 588.914 L 728.705 586.849 L 724.657 584.784 L 719.079 585.204 L 713.5 585.624 L 707.323 588.416 L 701.145 591.208 L 699.823 590.372 C 699.095 589.913 697.273 589.469 695.774 589.387 L 693.049 589.236 L 691.902 590.618 C 691.271 591.378 690.36 592 689.878 592 L 689 592 L 689 589.559 L 689 587.118 L 688 586.5 L 687 585.882 L 687 583.834 L 687 581.786 L 685.25 582.557 C 684.288 582.98 682.6 583.29 681.5 583.244 C 680.4 583.198 678.375 583.099 677 583.024 C 675.625 582.949 673.098 583.18 671.385 583.537 L 668.27 584.187 L 666.065 581.092 C 664.853 579.389 662.955 577.511 661.847 576.918 L 659.834 575.841 L 658.088 577.42 C 657.128 578.289 655.846 579 655.239 579 L 654.135 579 L 653.52 580.938 L 652.904 582.876 L 650.301 583.188 L 647.697 583.5 L 646.28 588.381 L 644.863 593.263 L 645.931 594.331 C 646.519 594.919 647 596.216 647 597.214 C 647 598.211 646.592 599.809 646.094 600.764 C 645.595 601.719 644.691 604.365 644.085 606.645 L 642.982 610.791 L 643.522 612.197 L 644.061 613.603 L 640.531 614.988 L 637 616.373 L 637 618.533 C 637 619.721 636.292 622.112 635.427 623.846 L 633.854 627 L 631.082 627 L 628.31 627 L 626.655 625.171 L 625 623.343 L 625 621.583 L 625 619.824 L 621 620.5 L 617 621.176 L 617 618.979 L 617 616.783 L 614.25 617.446 C 612.737 617.811 611.05 618.653 610.5 619.317 C 609.95 619.981 608.263 621.072 606.75 621.741 L 604 622.957 L 604 624.411 L 604 625.865 L 602.25 626.436 L 600.5 627.008 L 598.656 632.254 C 597.642 635.139 596.584 639.525 596.303 642 L 595.794 646.5 L 594.331 648.151 L 592.869 649.802 L 588.684 650.214 L 584.5 650.626 L 583.365 649.109 L 582.229 647.593 L 575.865 654.035 C 572.364 657.578 569.05 661.185 568.5 662.05 C 567.95 662.915 566.443 665.283 565.151 667.312 C 563.859 669.34 562.46 671 562.041 671 C 561.622 671 559.621 669.875 557.595 668.5 L 553.911 666 L 551.981 666 L 550.051 666 L 548.5 663 L 546.949 660 L 545.129 660 L 543.31 660 L 541.416 662.093 L 539.521 664.186 L 538.866 672.843 L 538.211 681.5 L 536.059 686.25 L 533.906 691 L 531.932 691 L 529.957 691 L 529.089 693.25 C 528.612 694.487 527.593 697.75 526.825 700.5 L 525.428 705.5 L 516.964 711.317 C 512.309 714.516 504.45 719.658 499.5 722.744 C 494.55 725.829 482.85 732.29 473.5 737.1 C 464.15 741.91 450.048 748.595 442.161 751.955 C 434.275 755.315 424.825 759.588 421.161 761.45 C 417.498 763.313 413.6 765.534 412.5 766.386 L 410.5 767.936 L 888.25 767.968 L 1366 768 L 1366 617.203 L 1366 466.406 L 1361.873 462.453 C 1359.603 460.279 1355.814 455.912 1353.453 452.748 L 1349.16 446.997 L 1347.542 439.884 L 1345.924 432.772 L 1343.815 428.636 C 1342.656 426.361 1340.198 422.523 1338.353 420.106 C 1336.509 417.69 1335 415.135 1335 414.429 L 1335 413.145 L 1332.25 410.961 L 1329.5 408.777 L 1320.944 409.41 L 1312.389 410.043 L 1310.343 407.771 C 1309.218 406.522 1308.036 404.755 1307.717 403.844 L 1307.135 402.189 L 1303.818 401.478 L 1300.5 400.767 L 1298.621 398.786 C 1297.587 397.697 1295.449 396.355 1293.871 395.805 L 1291 394.804 L 1290.98 392.652 L 1290.96 390.5 L 1285.841 387.5 L 1280.721 384.5 L 1278.883 380.5 L 1277.044 376.5 L 1277.022 373.866 L 1277 371.233 L 1272.961 367.584 L 1268.922 363.934 L 1265.961 363.342 L 1263 362.75 L 1263 360.83 L 1263 358.909 L 1260.61 356.519 L 1258.22 354.13 L 1256.263 354.641 L 1254.306 355.153 L 1253.073 352.175 C 1252.394 350.538 1250.8 348.221 1249.529 347.027 L 1247.219 344.857 L 1243.859 345.178 L 1240.5 345.5 L 1238.768 343.365 L 1237.035 341.229 L 1233.768 340.633 L 1230.5 340.037 L 1223.5 341.518 C 1219.651 342.333 1215.138 343 1213.473 343 L 1210.444 343 L 1208.645 340.898 L 1206.845 338.796 L 1204.173 339.523 C 1202.703 339.923 1199.7 340.231 1197.5 340.208 C 1195.3 340.184 1191.845 339.858 1189.822 339.482 L 1186.143 338.798 L 1184.921 340.755 M 977 374.156 L 977 378.445 L 978.557 376.223 L 980.113 374 L 981.63 374 L 983.147 374 L 982.815 372.25 L 982.483 370.5 L 979.741 370.184 L 977 369.867 L 977 374.156 M 968.775 373.368 C 968.022 374.121 966.457 375.038 965.296 375.406 L 963.185 376.076 L 962.599 377.601 L 962.014 379.127 L 960.757 378.371 L 959.5 377.616 L 960.872 379.308 L 962.245 381 L 964.308 381 L 966.371 381 L 968.612 383.105 L 970.852 385.21 L 971.803 384.622 C 972.326 384.298 973.259 382.027 973.877 379.574 C 974.495 377.121 975 374.414 975 373.557 L 975 372 L 972.571 372 L 970.143 372 L 968.775 373.368 M 919.531 468.95 L 918.944 469.9 L 921.124 471.066 L 923.303 472.233 L 922.683 470.616 L 922.063 469 L 922.972 469 C 923.473 469 924.148 469.43 924.473 469.956 L 925.064 470.913 L 926.532 470.349 C 927.339 470.04 928 469.384 928 468.893 L 928 468 L 924.059 468 L 920.118 468 L 919.531 468.95 M 859.181 535.764 L 856.861 539.348 L 859.681 545.12 L 862.5 550.892 L 863.765 550.946 L 865.029 551 L 867.048 547.75 L 869.066 544.5 L 868.449 541 L 867.833 537.5 L 866.863 537.149 C 866.33 536.956 864.905 535.759 863.697 534.489 L 861.5 532.18 L 859.181 535.764" stroke="none" fill-rule="evenodd" style="fill: rgb(46, 46, 46);"/>
</svg>