<?xml version="1.0" encoding="utf-8"?>
<svg viewBox="0 179.92 1366 588.08" xmlns="http://www.w3.org/2000/svg">
  <path d="M 0 296.892 L 0 389 L 0.911 389 C 1.412 389 2.875 387.734 4.161 386.186 C 5.447 384.638 7.387 381.038 8.47 378.186 C 9.554 375.334 10.771 373 11.175 373 C 11.579 373 12.97 371.939 14.267 370.643 L 16.624 368.285 L 25.062 366.964 L 33.5 365.643 L 45 365.388 L 56.5 365.134 L 59.366 366.236 L 62.231 367.338 L 63.177 365.648 L 64.123 363.958 L 64.978 364.486 L 65.832 365.014 L 68.462 364.015 L 71.091 363.015 L 70.796 361.463 L 70.5 359.91 L 73.107 358.31 L 75.714 356.711 L 78.978 358.339 L 82.243 359.968 L 83.101 359.438 L 83.959 358.908 L 85.979 359.989 L 88 361.07 L 88 363.035 L 88 365 L 86.567 365 L 85.135 365 L 84.477 367.072 L 83.82 369.143 L 85.66 371.281 C 86.672 372.456 88.316 374.337 89.314 375.459 L 91.128 377.5 L 93.314 377.5 L 95.5 377.5 L 95.206 379.25 L 94.912 381 L 95.851 381 C 96.368 381 97.85 382.117 99.145 383.483 C 100.44 384.848 101.95 385.966 102.5 385.966 C 103.05 385.966 105.604 386.986 108.174 388.233 L 112.849 390.5 L 114.134 393 C 114.841 394.375 116.563 396.648 117.96 398.051 C 119.357 399.454 122.043 402.492 123.928 404.801 L 127.356 409 L 128.703 409 L 130.05 409 L 131.043 411.612 L 132.036 414.224 L 134.231 413.65 L 136.426 413.076 L 138.113 414.602 L 139.799 416.128 L 143.4 415.453 L 147 414.777 L 147 413.889 L 147 413 L 150.031 413 L 153.063 413 L 153.638 411.5 L 154.214 410 L 155.54 410 L 156.865 410 L 157.5 408 L 158.135 406 L 160.367 406 L 162.6 406 L 163.707 404.893 L 164.815 403.785 L 165.968 405.941 L 167.122 408.096 L 168.811 407.589 L 170.5 407.081 L 172.267 408.414 L 174.035 409.746 L 173.41 411.373 L 172.786 413 L 174.01 413 L 175.233 413 L 174.73 414.923 L 174.227 416.846 L 178.614 418.142 L 183 419.437 L 183 421.312 L 183 423.187 L 185 423.71 C 186.1 423.998 187 424.541 187 424.917 C 187 425.292 186.499 426.101 185.888 426.712 L 184.775 427.825 L 187.638 431.412 C 189.212 433.386 190.962 435 191.527 435 C 192.093 435 193.61 435.739 194.899 436.642 L 197.244 438.284 L 195.601 439.204 L 193.958 440.123 L 194.538 441.061 L 195.118 442 L 193.559 442 L 192 442 L 192 442.982 C 192 443.522 194.431 446.268 197.402 449.084 L 202.804 454.204 L 208.652 465.184 C 211.868 471.222 215.4 477.061 216.5 478.158 C 217.6 479.255 220.207 481.243 222.294 482.576 C 224.381 483.909 226.758 485 227.576 485 L 229.063 485 L 229.659 483.445 L 230.256 481.89 L 232.378 482.056 C 233.545 482.147 234.95 482.105 235.5 481.963 C 236.05 481.82 237.339 481.658 238.364 481.602 L 240.228 481.5 L 241.387 478 L 242.545 474.5 L 245.273 474.788 L 248 475.076 L 248 474.038 L 248 473 L 249.542 473 C 250.39 473 252.027 473.879 253.181 474.954 L 255.278 476.908 L 258.389 475.315 C 260.1 474.439 262.451 472.772 263.613 471.611 L 265.726 469.5 L 265.566 467.482 C 265.477 466.373 265.031 464.86 264.575 464.121 L 263.744 462.776 L 265.122 461.904 C 265.88 461.423 267.426 461.024 268.559 461.015 L 270.618 461 L 272.559 459.532 C 273.626 458.724 275.423 458.049 276.55 458.032 L 278.6 458 L 279.707 459.107 C 280.316 459.716 282.316 460.522 284.151 460.897 L 287.488 461.58 L 287.828 463.54 C 288.016 464.618 288.816 466.007 289.607 466.626 L 291.044 467.753 L 290.017 470.456 L 288.989 473.158 L 289.878 474.746 L 290.767 476.334 L 289.09 478.134 L 287.413 479.934 L 283.466 480.237 L 279.52 480.54 L 279.144 482.52 C 278.938 483.609 278.313 484.787 277.756 485.138 L 276.744 485.776 L 277.404 486.845 L 278.064 487.913 L 279.532 487.349 L 281 486.786 L 281 487.799 L 281 488.813 L 283 488.29 L 285 487.767 L 285 489.038 L 285 490.31 L 286.831 488.653 L 288.662 486.996 L 289.262 487.596 L 289.862 488.196 L 289.337 489.565 L 288.811 490.934 L 291.656 493.435 L 294.5 495.937 L 296.167 495.968 L 297.833 496 L 298.286 497.25 L 298.739 498.5 L 300.83 497.266 L 302.921 496.032 L 304.46 496.623 L 306 497.214 L 306 495.69 L 306 494.167 L 307.246 493.751 L 308.492 493.336 L 308.593 491.918 C 308.65 491.138 308.764 489.656 308.848 488.625 L 309 486.75 L 312.223 487.395 L 315.445 488.039 L 318.473 490.859 C 320.138 492.41 323.126 494.418 325.112 495.321 C 327.099 496.224 329.292 497.646 329.985 498.482 L 331.245 500 L 334.372 499.968 L 337.5 499.936 L 340.837 496.581 L 344.175 493.226 L 343.085 492.552 L 341.995 491.879 L 342.997 490.006 L 343.999 488.133 L 346.495 487.816 L 348.99 487.5 L 347.485 484.617 L 345.981 481.734 L 348.443 476.529 C 349.798 473.666 351.602 470.745 352.453 470.039 C 353.304 469.333 354 469.075 354 469.466 C 354 469.858 355.385 469.013 357.077 467.589 L 360.153 465 L 364.327 464.849 C 366.622 464.766 369.85 464.774 371.5 464.866 C 373.15 464.959 375.962 465.272 377.75 465.563 L 381 466.091 L 381 462.184 L 381 458.277 L 378.5 458.755 L 376 459.233 L 376 457.235 L 376 455.237 L 379.25 452.773 C 381.037 451.418 383.85 449.978 385.5 449.574 C 387.15 449.17 390.218 448.6 392.317 448.308 L 396.134 447.777 L 398.421 449.926 L 400.708 452.075 L 400.22 454.787 C 399.951 456.279 399.255 458.101 398.672 458.836 L 397.612 460.172 L 394.918 459.634 L 392.224 459.095 L 390.612 460.876 C 389.725 461.856 389 462.96 389 463.329 C 389 463.698 389.788 464.002 390.75 464.004 C 391.712 464.006 394.075 464.99 396 466.19 L 399.5 468.373 L 401.5 468.158 L 403.5 467.943 L 406.238 470.501 L 408.977 473.059 L 409.575 475.443 L 410.173 477.827 L 408.087 479.913 C 406.939 481.061 405.663 481.947 405.25 481.882 C 404.838 481.816 404.095 481.816 403.601 481.882 C 403.107 481.947 404.907 483.164 407.601 484.587 C 410.295 486.01 413.512 488.113 414.75 489.261 L 417 491.349 L 417 493.196 L 417 495.043 L 414.428 496.215 L 411.857 497.386 L 411.178 496.296 C 410.805 495.697 409.556 495.047 408.402 494.853 L 406.303 494.5 L 403.652 495.919 L 401 497.338 L 401.018 499.419 L 401.036 501.5 L 404.067 505.973 L 407.098 510.447 L 412.102 512.825 L 417.105 515.203 L 422.906 520.574 L 428.707 525.944 L 432.097 524.972 L 435.487 524 L 441.993 524.022 L 448.5 524.044 L 453 526.072 L 457.5 528.1 L 463.151 533.67 L 468.801 539.241 L 470.007 538.495 L 471.214 537.75 L 469.979 536.987 L 468.744 536.224 L 469.431 535.112 L 470.118 534 L 473.309 533.97 L 476.5 533.939 L 474.763 532.927 L 473.027 531.915 L 470.886 533.061 L 468.746 534.206 L 467.974 532.958 L 467.202 531.709 L 465.601 532.323 C 464.72 532.661 464 532.756 464 532.534 C 464 532.312 464.439 530.976 464.975 529.565 L 465.95 527 L 468.775 527 L 471.6 527 L 472.724 528.124 L 473.848 529.248 L 476.841 528.205 L 479.833 527.162 L 483.524 529.141 L 487.214 531.119 L 487.774 530.559 L 488.333 530 L 487.532 530 C 487.091 530 487.803 529.201 489.115 528.224 C 490.427 527.247 492.625 525.934 494 525.307 C 495.375 524.681 497.962 523.57 499.75 522.84 C 501.538 522.109 503 521.121 503 520.642 L 503 519.773 L 506.25 520.265 L 509.5 520.756 L 512.25 519.353 L 515 517.949 L 515 515.367 L 515 512.786 L 513.413 513.395 C 512.539 513.73 510.064 514.286 507.913 514.63 L 504 515.256 L 504 514.288 C 504 513.756 502.849 512.797 501.443 512.156 L 498.886 510.991 L 497.009 511.995 C 495.976 512.548 493.977 513 492.566 513 L 490 513 L 490 512 C 490 511.45 490.477 511 491.059 511 L 492.118 511 L 491.456 509.929 L 490.795 508.859 L 486.897 509.517 L 483 510.176 L 483 509.016 C 483 508.379 482.325 507.182 481.5 506.357 C 480.675 505.532 480 504.172 480 503.335 L 480 501.813 L 482.04 501.279 L 484.08 500.746 L 482.385 498.873 L 480.69 497 L 484.345 497 L 488 497 L 488 495.25 L 488 493.5 L 492.25 493.632 L 496.5 493.763 L 498.715 492.382 L 500.93 491 L 503.512 491 L 506.093 491 L 504.297 488.458 L 502.5 485.916 L 496.253 486.255 L 490.006 486.594 L 489.38 484.623 L 488.755 482.652 L 490.3 481.522 L 491.846 480.392 L 490.248 479.384 L 488.649 478.376 L 489.394 477.172 L 490.138 475.967 L 491.318 476.697 L 492.499 477.426 L 495.499 477.122 L 498.5 476.818 L 500.17 475.326 L 501.841 473.834 L 502.996 475.992 L 504.151 478.15 L 508.199 477.466 L 512.247 476.782 L 513.108 478.141 L 513.969 479.5 L 513.985 477.781 L 514 476.063 L 515.371 476.589 L 516.742 477.115 L 517.255 475.779 L 517.767 474.443 L 520.884 474.206 L 524 473.968 L 524 474.914 L 524 475.86 L 527.243 474.93 C 529.027 474.419 531.038 474 531.712 474 L 532.937 474 L 532.306 475.645 L 531.675 477.289 L 533.088 478.395 C 533.864 479.003 534.641 480.324 534.813 481.332 L 535.125 483.164 L 532.087 482.845 L 529.05 482.527 L 529.045 483.513 L 529.041 484.5 L 532.546 484.5 L 536.05 484.5 L 535.446 487.25 L 534.841 490 L 535.921 490 C 536.514 490 536.99 490.337 536.978 490.75 C 536.966 491.163 536.131 492.573 535.123 493.884 L 533.29 496.267 L 529.065 496.506 L 524.84 496.744 L 522.937 494.702 L 521.034 492.659 L 519.017 494.485 L 517 496.31 L 517 497.722 L 517 499.135 L 518.831 498.554 L 520.662 497.972 L 522.912 499.924 L 525.162 501.875 L 526.581 501.331 L 528 500.786 L 528 503.811 L 528 506.837 L 532.021 511.022 L 536.042 515.206 L 538.771 514.522 L 541.5 513.838 L 543.289 511.919 C 544.273 510.863 545.23 510 545.417 510 C 545.603 510 547.386 510.681 549.378 511.513 C 551.37 512.346 553 513.395 553 513.844 C 553 514.294 554.125 515.264 555.5 516 L 558 517.338 L 558 518.669 L 558 520 L 556.5 520 L 555 520 L 555 521.525 L 555 523.05 L 557.569 524.026 L 560.139 525.003 L 559.819 527.193 L 559.5 529.382 L 556.345 530.195 L 553.189 531.008 L 553.681 532.887 L 554.172 534.766 L 551.864 536.383 C 550.594 537.272 548.807 538 547.893 538 L 546.23 538 L 544.592 535.5 L 542.954 533 L 540.437 533 L 537.92 533 L 534 535 C 531.844 536.1 529.167 537 528.052 537 L 526.025 537 L 523.522 540.75 C 522.145 542.813 520.054 545.7 518.876 547.167 L 516.733 549.835 L 515.486 554.667 C 514.801 557.325 514.413 559.689 514.624 559.921 C 514.835 560.152 516.019 559.477 517.254 558.421 C 518.489 557.364 520.513 555.934 521.75 555.242 C 522.988 554.549 524 554.17 524 554.398 C 524 554.626 521.75 556.429 519 558.405 C 516.25 560.38 514 562.459 514 563.023 L 514 564.05 L 516.461 564.985 C 517.814 565.5 521.257 566.231 524.112 566.609 L 529.302 567.298 L 528.55 566.081 L 527.798 564.864 L 526.309 565.435 L 524.82 566.006 L 523.946 565.467 L 523.073 564.927 L 525.036 562.964 L 527 561 L 529 561 L 531 561 L 531.007 559.75 L 531.014 558.5 L 534.502 556.124 L 537.991 553.748 L 541.034 554.357 L 544.076 554.965 L 544.645 553.483 L 545.214 552 L 548.247 552 L 551.28 552 L 552.608 553.75 C 553.339 554.712 553.951 555.795 553.968 556.156 L 554 556.813 L 551.985 556.286 L 549.97 555.759 L 550.574 557.331 L 551.177 558.903 L 547.715 558.341 L 544.254 557.78 L 543.72 558.644 L 543.186 559.508 L 546.343 559.504 L 549.5 559.5 L 549.524 561.5 L 549.547 563.5 L 551.289 563.203 L 553.031 562.905 L 555.765 564.374 C 557.269 565.182 559.316 566.1 560.313 566.414 L 562.127 566.986 L 561.504 567.993 L 560.882 569 L 562.54 569 C 563.452 569 565.654 569.691 567.433 570.535 C 569.213 571.38 574.373 575.205 578.901 579.035 L 587.133 586 L 588.985 586 C 590.003 586 591.542 586.271 592.404 586.602 L 593.972 587.203 L 594.903 584.755 L 595.834 582.307 L 599.428 580.601 L 603.022 578.896 L 603.902 579.44 L 604.782 579.983 L 608.403 575.975 L 612.025 571.967 L 610.521 569.672 L 609.017 567.376 L 612.387 564.11 L 615.757 560.843 L 615.451 556.303 L 615.145 551.762 L 618.333 552.279 L 621.522 552.797 L 623.156 548.969 L 624.791 545.142 L 628.114 544.821 L 631.437 544.5 L 632.363 541.25 L 633.289 538 L 636.022 538 L 638.755 538 L 639.865 536.662 L 640.975 535.325 L 644.364 535.198 L 647.754 535.07 L 649.627 537.14 L 651.5 539.21 L 651.5 544.355 L 651.5 549.5 L 653.75 549.82 L 656 550.139 L 656 551.461 L 656 552.783 L 658.454 553.399 L 660.909 554.015 L 666.383 551.594 L 671.858 549.173 L 671.3 547.041 L 670.743 544.909 L 672.524 543.606 L 674.306 542.303 L 673.59 541.145 L 672.874 539.986 L 675.064 536.91 L 677.255 533.833 L 679.141 534.326 L 681.026 534.82 L 681.985 533.027 C 682.513 532.042 683.631 530.972 684.469 530.65 L 685.994 530.065 L 695.636 532.079 C 700.939 533.186 706.552 534.751 708.109 535.556 C 709.666 536.362 711.396 537.871 711.952 538.91 L 712.963 540.799 L 717.66 542.4 L 722.356 544 L 726.678 544 L 731 544 L 731 545.933 L 731 547.865 L 732.855 548.454 L 734.71 549.043 L 740.105 546.531 L 745.5 544.02 L 749.229 544.01 L 752.958 544 L 759.479 541.859 L 766 539.719 L 766 538.691 C 766 538.126 765.504 534.814 764.897 531.332 C 764.291 527.849 763.661 525 763.497 525 C 763.333 525 757.867 525.96 751.349 527.133 L 739.5 529.266 L 721 529.294 L 702.5 529.322 L 696.5 526.285 C 693.2 524.615 688.925 522.912 687 522.501 C 685.075 522.09 681.317 520.653 678.649 519.309 L 673.798 516.864 L 672.361 517.415 L 670.924 517.966 L 670.366 516.51 L 669.807 515.054 L 666.224 514.382 L 662.641 513.71 L 658.262 509.674 L 653.883 505.638 L 651.037 507.319 L 648.191 509 L 646.024 509 L 643.857 509 L 642.357 507.5 L 640.857 506 L 635.262 506 L 629.667 506 L 630.298 505.369 L 630.93 504.737 L 629.93 502.869 L 628.93 501 L 627.047 501 C 626.011 501 624.452 500.727 623.582 500.393 L 622 499.786 L 622 498.393 L 622 497 L 620.741 497 C 620.048 497 618.985 496.206 618.379 495.236 L 617.277 493.471 L 617.752 490.236 L 618.227 487 L 619.578 487 L 620.93 487 L 622.02 484.962 L 623.111 482.924 L 622.495 480.983 L 621.878 479.041 L 619.054 477.373 L 616.229 475.704 L 614.616 472.321 L 613.003 468.938 L 611.346 468.302 L 609.688 467.666 L 607.727 470.083 L 605.766 472.5 L 603.265 472.5 L 600.765 472.5 L 599.401 474.538 L 598.037 476.576 L 600.554 480.114 L 603.071 483.651 L 602.481 485.19 L 601.89 486.729 L 599.41 487.859 L 596.929 488.989 L 593.82 485.447 L 590.71 481.906 L 587.605 480.504 C 585.897 479.733 583.245 478.036 581.712 476.733 L 578.923 474.364 L 579.534 472.772 L 580.145 471.18 L 582.761 470.524 L 585.376 469.867 L 586.656 468.184 C 587.36 467.258 587.951 465.706 587.968 464.735 L 588 462.971 L 584.75 460.989 L 581.5 459.007 L 578.5 459.007 L 575.5 459.007 L 572.206 461.016 L 568.913 463.024 L 566.878 461.935 L 564.844 460.846 L 563.367 461.413 L 561.891 461.979 L 559.195 460.083 L 556.5 458.187 L 552.827 457.563 L 549.154 456.938 L 548.51 458.968 L 547.866 460.998 L 545.851 459.921 L 543.837 458.843 L 539.169 452.383 L 534.5 445.924 L 530.688 446.561 L 526.875 447.197 L 524.938 445.443 L 523 443.69 L 523 441.952 L 523 440.214 L 521.418 439.607 C 520.548 439.273 518.509 439 516.887 439 L 513.937 439 L 513.396 437.25 C 513.099 436.288 512.493 434.825 512.05 434 L 511.244 432.5 L 508.242 432.798 L 505.241 433.096 L 504.642 430.71 C 504.313 429.398 503.101 427.127 501.949 425.662 L 499.855 423 L 497.484 423 L 495.113 423 L 493.557 420.777 L 492 418.555 L 492 413.662 L 492 408.77 L 488.422 405.492 L 484.843 402.214 L 485.172 398.857 L 485.5 395.5 L 483.441 395.205 L 481.382 394.911 L 479.743 384.707 L 478.104 374.503 L 475.818 372.652 L 473.532 370.801 L 466.611 371.192 L 459.689 371.583 L 458.222 373.791 L 456.756 376 L 455.435 376 C 454.709 376 452.493 375.043 450.512 373.874 L 446.909 371.749 L 442.705 372.484 C 440.392 372.888 437.375 373.194 436 373.164 C 434.625 373.134 431.811 372.81 429.746 372.445 L 425.993 371.78 L 423.496 368.813 C 422.123 367.182 421 365.44 421 364.944 C 421 364.447 419.313 363.127 417.25 362.01 C 415.188 360.893 412.673 359.421 411.663 358.74 C 410.652 358.058 408.118 355.813 406.03 353.75 L 402.235 350 L 399.273 350 L 396.31 350 L 394.5 352 L 392.69 354 L 390.545 354 C 389.365 354 387.948 353.548 387.396 352.996 C 386.844 352.444 383.808 351.319 380.648 350.496 C 377.488 349.673 373.111 349 370.921 349 L 366.939 349 L 363.974 345.623 L 361.009 342.246 L 358.255 341.198 C 356.74 340.621 352.217 339.172 348.205 337.977 L 340.91 335.806 L 338.37 336.443 L 335.83 337.081 L 333.504 339.59 L 331.179 342.099 L 330.358 340.799 L 329.537 339.5 L 329.519 332.518 L 329.5 325.536 L 327.573 325.161 L 325.647 324.785 L 323.992 322.742 L 322.337 320.698 L 319.669 321.368 L 317 322.038 L 317 324.664 L 317 327.291 L 310.808 333.183 L 304.616 339.075 L 301.717 338.438 L 298.817 337.801 L 295.974 340.525 L 293.131 343.248 L 290.424 341.119 L 287.717 338.99 L 286.329 340.142 L 284.941 341.294 L 282.423 340.147 C 281.039 339.516 278.892 339 277.653 339 L 275.4 339 L 274.2 340.2 L 273 341.4 L 273 344.245 L 273 347.091 L 270.595 349.295 C 269.273 350.508 267.492 352.063 266.637 352.75 C 265.783 353.438 264.417 354 263.601 354 C 262.785 354 261.766 354.563 261.335 355.25 C 260.905 355.938 260.541 357.161 260.526 357.969 L 260.5 359.437 L 256.098 361.066 L 251.696 362.695 L 250.488 364.348 L 249.28 366 L 245.837 366 L 242.394 366 L 238.133 362.867 L 233.873 359.733 L 228.29 360.309 L 222.708 360.886 L 217.673 358.334 C 214.903 356.931 207.207 352.399 200.569 348.264 C 193.931 344.128 185.463 338.509 181.75 335.778 C 178.037 333.046 175 330.403 175 329.905 L 175 329 L 170.942 329 C 168.709 329 163.704 328.507 159.819 327.904 C 155.934 327.301 150.265 325.951 147.223 324.905 L 141.69 323.001 L 138.392 320.485 C 136.578 319.102 133.055 315.32 130.563 312.082 L 126.032 306.194 L 121.756 304.124 L 117.48 302.054 L 112.99 301.935 C 110.52 301.869 105.35 302.132 101.5 302.519 L 94.5 303.222 L 80 300.078 C 72.025 298.349 63.7 296.24 61.5 295.392 L 57.5 293.85 L 54.165 290.675 C 52.33 288.929 50.23 286.356 49.497 284.959 L 48.164 282.417 L 47.127 274.959 C 46.556 270.856 45.429 265.7 44.624 263.5 C 43.818 261.3 42.223 257.717 41.079 255.539 L 39 251.577 L 39.035 248.539 L 39.071 245.5 L 40.5 243 L 41.929 240.5 L 41.965 237.654 L 42 234.809 L 40.019 232.027 L 38.038 229.245 L 28.895 222.982 C 23.866 219.538 17.509 214.728 14.768 212.294 C 12.028 209.86 8.689 207.452 7.349 206.943 C 6.008 206.433 3.807 205.739 2.456 205.4 L 0 204.783 L 0 296.892 M 382.711 460 C 383.028 461.925 383.335 463.56 383.394 463.633 C 383.452 463.707 384.512 463.384 385.75 462.916 L 388 462.064 L 388 459.924 L 388 457.783 L 385.583 458.39 L 383.166 458.997 L 382.65 457.748 C 382.367 457.062 382.395 458.075 382.711 460 M 392.423 481.339 L 391.823 482.904 L 392.47 483.952 C 392.827 484.528 393.766 485 394.559 485 L 396 485 L 396 483.622 C 396 482.865 395.33 481.689 394.512 481.01 L 393.024 479.775 L 392.423 481.339 M 380.358 485.664 C 380.659 486.674 381.213 488.85 381.59 490.5 C 381.967 492.15 382.709 494.051 383.238 494.724 L 384.201 495.947 L 387.85 496.607 C 389.858 496.97 392.68 497.864 394.123 498.594 L 396.746 499.92 L 397.373 499.293 C 397.718 498.949 398 497.926 398 497.02 L 398 495.374 L 394.974 492.475 L 391.949 489.577 L 392.508 488.118 L 393.068 486.66 L 391.87 485.919 L 390.672 485.179 L 387.473 485.698 L 384.274 486.217 L 382.043 485.023 L 379.811 483.828 L 380.358 485.664 M 374.885 487.839 C 375.997 489.4 377.668 491.309 378.598 492.081 L 380.288 493.484 L 379.644 491.242 C 379.29 490.009 378.745 488.1 378.433 487 L 377.865 485 L 375.365 485 L 372.864 485 L 374.885 487.839 M 368.375 494.204 L 367.433 497.5 L 364.967 497.821 L 362.5 498.141 L 361.322 499.664 L 360.143 501.187 L 363.738 504.343 L 367.334 507.5 L 382.667 507.5 C 391.1 507.5 398 507.358 398 507.184 C 398 507.011 397.542 506.013 396.983 504.968 L 395.966 503.068 L 392.233 502.134 C 390.18 501.621 387.287 500.928 385.805 500.595 L 383.109 499.989 L 378.494 495.995 C 375.955 493.798 373.493 492 373.021 492 C 372.549 492 371.523 491.754 370.74 491.454 L 369.316 490.907 L 368.375 494.204 M 510.548 496.567 L 508.866 499.134 L 510.056 500.567 C 510.71 501.355 511.879 502 512.654 502 L 514.063 502 L 514.639 500.498 L 515.216 498.996 L 514.589 496.498 L 513.962 494 L 513.096 494 C 512.62 494 511.473 495.155 510.548 496.567 M 934 501.622 C 930.975 501.831 919.95 502.7 909.5 503.552 C 899.05 504.405 883.075 505.995 874 507.086 C 864.925 508.177 849.85 510.197 840.5 511.575 C 831.15 512.953 819.9 514.711 815.5 515.482 L 807.5 516.884 L 804.023 518.628 L 800.547 520.373 L 803.773 521.689 L 807 523.006 L 807 524.44 L 807 525.874 L 803.5 525.306 L 800 524.738 L 800 525.714 C 800 526.251 800.9 527.505 802 528.5 L 804 530.31 L 804 532.155 L 804 534 L 803.122 534 C 802.64 534 801.685 533.325 801 532.5 C 800.315 531.675 799.101 531 798.302 531 L 796.849 531 L 797.031 533.75 C 797.13 535.263 797.164 537.063 797.106 537.75 C 797.048 538.438 796.556 539 796.013 539 L 795.027 539 L 793.314 535.25 C 792.372 533.188 791.313 530.375 790.961 529 L 790.319 526.5 L 789.285 529 C 788.716 530.375 787.944 533.325 787.57 535.555 L 786.89 539.61 L 793.086 542.805 L 799.281 546 L 802.894 546 L 806.506 546 L 813.503 543.95 L 820.5 541.899 L 834 542.048 C 841.425 542.129 851.207 541.957 855.739 541.664 C 860.27 541.371 864.454 540.837 865.037 540.477 L 866.097 539.822 L 864.936 538.423 L 863.775 537.024 L 865.387 536.405 L 867 535.786 L 867 533.96 L 867 532.135 L 868.859 531.545 L 870.718 530.955 L 872.258 531.545 L 873.798 532.136 L 874.458 531.068 C 874.821 530.481 875.743 530 876.507 530 C 877.272 530 879.111 531.125 880.595 532.5 C 882.078 533.875 883.817 535 884.459 535 C 885.101 535 886.835 533.738 888.313 532.195 L 891 529.391 L 891 527.477 L 891 525.564 L 893.536 523.385 L 896.071 521.206 L 898.032 521.719 L 899.992 522.231 L 901.843 519.946 L 903.694 517.66 L 907.867 519.33 C 910.162 520.249 912.46 521 912.972 521 C 913.485 521 915.327 518.932 917.065 516.405 L 920.227 511.81 L 922.363 512.323 C 923.539 512.605 926.52 513.583 928.989 514.495 L 933.477 516.155 L 936.228 515.604 L 938.978 515.054 L 942.454 517.106 L 945.931 519.157 L 947.965 518.511 L 949.998 517.866 L 951.017 520.545 L 952.036 523.224 L 954.018 522.612 C 955.108 522.275 956.866 521.731 957.924 521.403 L 959.849 520.806 L 961.45 523.903 L 963.051 527 L 965.003 527 L 966.954 527 L 968.49 524.656 L 970.026 522.312 L 974.263 520.976 C 976.593 520.241 979.097 519.187 979.826 518.634 L 981.152 517.629 L 982.061 519.064 C 982.561 519.854 982.976 521.444 982.985 522.597 L 983 524.694 L 980.922 527.089 L 978.845 529.485 L 980.922 530.864 L 983 532.244 L 983 533.622 L 983 535 L 984.617 535 L 986.233 535 L 985.696 537.055 L 985.159 539.11 L 987.37 539.951 C 988.587 540.413 990.221 541.562 991.002 542.502 C 991.783 543.443 992.983 545.178 993.668 546.357 C 994.353 547.535 995.414 549.622 996.025 550.994 L 997.136 553.488 L 1000.653 556.387 L 1004.17 559.286 L 1004.967 561.393 L 1005.764 563.5 L 1004.857 565.231 C 1004.358 566.183 1002.834 567.547 1001.47 568.262 L 998.99 569.561 L 1013.245 582.52 C 1021.085 589.647 1032.45 600.264 1038.5 606.114 L 1049.5 616.749 L 1052 615.959 C 1053.375 615.524 1062.15 613.046 1071.5 610.453 C 1080.85 607.86 1094.575 603.963 1102 601.793 C 1109.425 599.622 1123.15 595.381 1132.5 592.368 C 1141.85 589.354 1154.675 584.887 1161 582.441 C 1167.325 579.995 1174.862 576.636 1177.75 574.977 C 1180.638 573.317 1183 571.591 1183 571.14 C 1183 570.689 1175.013 566.458 1165.25 561.738 C 1155.487 557.018 1137.15 548.345 1124.5 542.466 C 1111.85 536.586 1097.743 530.026 1093.151 527.888 C 1088.559 525.75 1084.672 524 1084.514 524 C 1084.356 524 1080.013 522.027 1074.864 519.617 C 1069.714 517.206 1062.35 514.108 1058.5 512.732 C 1054.65 511.357 1046.1 509.054 1039.5 507.615 C 1032.9 506.176 1022.325 504.291 1016 503.426 L 1004.5 501.853 L 972 501.548 C 954.125 501.38 937.025 501.413 934 501.622 M 768.121 523.723 L 765.742 524.173 L 766.423 530.836 C 766.798 534.501 767.419 537.805 767.802 538.179 L 768.5 538.857 L 773.417 537.928 L 778.334 536.998 L 781.723 537.934 L 785.113 538.87 L 785.485 537.685 C 785.69 537.033 786.498 534.198 787.28 531.384 L 788.702 526.269 L 784.101 529.343 C 781.571 531.035 779.35 532.774 779.167 533.209 C 778.983 533.644 778.421 534 777.917 534 L 777 534 L 777 532.155 L 777 530.31 L 779 528.5 C 780.1 527.505 781 526.275 781 525.768 L 781 524.847 L 777.33 525.163 L 773.66 525.479 L 773.247 524.24 L 772.833 523 L 771.667 523.136 C 771.025 523.211 769.429 523.475 768.121 523.723 M 519 534.123 L 519 543 L 519.75 542.961 C 520.163 542.94 521.4 541.503 522.5 539.767 L 524.5 536.612 L 527.75 535.777 C 529.538 535.318 531 534.84 531 534.715 C 531 534.589 531.436 532.966 531.969 531.108 C 532.502 529.249 532.651 528.015 532.3 528.366 L 531.662 529.004 L 530.081 527.629 L 528.5 526.254 L 523.75 525.75 L 519 525.246 L 519 534.123 M 536.303 527.744 C 535.194 528.71 533.954 530.551 533.548 531.836 L 532.811 534.172 L 534.933 533.036 L 537.056 531.9 L 536.428 530.883 L 535.8 529.867 L 537.648 528.515 L 539.497 527.164 L 538.909 526.575 L 538.321 525.987 L 536.303 527.744 M 514.743 527.666 L 513.985 528.833 L 510.549 528.56 L 507.112 528.287 L 503.806 531.576 L 500.5 534.864 L 498.485 533.563 C 497.377 532.848 495.015 531.943 493.235 531.552 L 490 530.841 L 490 531.921 L 490 533 L 491.309 533 C 492.029 533 493.491 533.668 494.559 534.484 L 496.5 535.967 L 494.25 536.6 L 492 537.233 L 491.882 538.867 C 491.816 539.765 491.828 540.873 491.908 541.328 L 492.052 542.157 L 490.276 541.823 L 488.5 541.488 L 487.513 539.244 L 486.526 537 L 485.356 537 L 484.187 537 L 484.707 538.989 L 485.227 540.978 L 486.114 540.43 L 487 539.882 L 487 541.868 L 487 543.855 L 489.734 546.006 L 492.468 548.156 L 495.089 547.632 L 497.709 547.108 L 500.105 548.733 C 501.422 549.627 503.978 551.627 505.785 553.179 C 507.591 554.73 509.616 555.998 510.285 555.995 L 511.5 555.99 L 513.802 547.655 L 516.104 539.32 L 515.802 532.91 L 515.5 526.5 L 514.743 527.666 M 479.25 538.706 C 478.012 538.944 477 539.518 477 539.981 C 477 540.444 478.385 541.987 480.077 543.411 C 481.769 544.835 483.532 546 483.995 546 C 484.458 546 485.638 546.307 486.617 546.683 L 488.397 547.366 L 486.361 544.433 C 485.242 542.82 484.041 540.712 483.694 539.75 C 483.347 538.788 482.711 538.061 482.281 538.136 C 481.852 538.211 480.488 538.467 479.25 538.706 M 472.43 542.677 L 472.977 544.104 L 471.989 543.493 L 471 542.882 L 471 544.241 C 471 544.988 471.534 546.134 472.186 546.786 C 472.839 547.439 473.513 548.891 473.684 550.013 C 473.856 551.136 474.622 553.554 475.388 555.387 L 476.781 558.72 L 484.14 559.508 C 488.188 559.941 492.625 560.443 494 560.622 C 495.375 560.802 499.605 561.643 503.4 562.491 C 507.196 563.339 510.471 563.862 510.678 563.655 C 510.886 563.447 510.615 562.117 510.076 560.699 L 509.096 558.122 L 506.961 556.979 C 505.786 556.35 503.57 554.431 502.036 552.714 L 499.246 549.592 L 493.202 549.373 L 487.158 549.155 L 485.274 548.146 L 483.389 547.138 L 478.945 547.553 L 474.5 547.967 L 476.809 547.234 L 479.118 546.5 L 478.96 545.5 C 478.874 544.95 478.411 543.769 477.933 542.875 L 477.063 541.25 L 474.473 541.25 L 471.882 541.25 L 472.43 542.677 M 537 566.5 L 537 568 L 540 568 L 543 568 L 543 566.5 L 543 565 L 540 565 L 537 565 L 537 566.5" stroke="none" fill-rule="evenodd" style="fill: rgb(46, 46, 46);"/>
  <path d="M 72.500 357.588 L 70.500 359.111 70.796 360.563 L 71.091 362.015 68.462 363.015 L 65.832 364.014 64.978 363.486 L 64.123 362.958 63.177 364.648 L 62.231 366.338 59.366 365.236 L 56.500 364.134 45 364.388 L 33.500 364.643 25.062 365.964 L 16.624 367.285 14.267 369.643 C 12.970 370.939, 11.584 372, 11.187 372 C 10.790 372, 9.383 374.726, 8.060 378.057 L 5.654 384.113 2.827 386.492 L 0 388.871 0 578.435 L 0 768 457.422 768 L 914.845 768 927.672 762.398 C 934.728 759.317, 947.156 754.154, 955.291 750.924 C 963.426 747.694, 976.421 743.010, 984.167 740.516 C 991.914 738.021, 1007.083 733.692, 1017.876 730.894 C 1028.669 728.097, 1044.041 723.660, 1052.036 721.035 C 1060.030 718.410, 1069.255 715.010, 1072.536 713.481 C 1075.816 711.952, 1081.487 708.947, 1085.139 706.803 C 1088.790 704.658, 1093.515 701.395, 1095.639 699.550 L 1099.500 696.195 1097.165 689.348 C 1095.881 685.581, 1092.474 677.775, 1089.595 672 C 1086.715 666.225, 1081.745 657.457, 1078.551 652.516 C 1075.356 647.574, 1069.779 639.699, 1066.156 635.016 L 1059.569 626.500 1043.535 610.440 C 1034.716 601.606, 1021.085 588.570, 1013.245 581.470 L 998.990 568.561 1001.470 567.262 C 1002.834 566.547, 1004.358 565.183, 1004.857 564.231 L 1005.764 562.500 1004.967 560.393 L 1004.170 558.286 1000.653 555.387 L 997.136 552.488 996.025 549.994 C 995.414 548.622, 994.353 546.535, 993.668 545.357 C 992.983 544.178, 991.783 542.443, 991.002 541.502 C 990.221 540.562, 988.587 539.413, 987.370 538.951 L 985.159 538.110 985.696 536.055 L 986.233 534 984.617 534 L 983 534 983 532.622 L 983 531.244 980.922 529.864 L 978.845 528.485 980.922 526.089 L 983 523.694 982.985 521.597 C 982.976 520.444, 982.561 518.854, 982.061 518.064 L 981.152 516.629 979.826 517.634 C 979.097 518.187, 976.593 519.241, 974.263 519.976 L 970.026 521.312 968.490 523.656 L 966.954 526 965.003 526 L 963.051 526 961.450 522.903 L 959.849 519.806 957.924 520.403 C 956.866 520.731, 955.108 521.275, 954.018 521.612 L 952.036 522.224 951.017 519.545 L 949.998 516.866 947.965 517.511 L 945.931 518.157 942.454 516.106 L 938.978 514.054 936.228 514.604 L 933.477 515.155 928.989 513.495 C 926.520 512.583, 923.539 511.605, 922.363 511.323 L 920.227 510.810 917.065 515.405 C 915.327 517.932, 913.485 520, 912.972 520 C 912.460 520, 910.162 519.249, 907.867 518.330 L 903.694 516.660 901.843 518.946 L 899.992 521.231 898.032 520.719 L 896.071 520.206 893.536 522.385 L 891 524.564 891 526.477 L 891 528.391 888.313 531.195 C 886.835 532.738, 885.101 534, 884.459 534 C 883.817 534, 882.078 532.875, 880.595 531.500 C 879.111 530.125, 877.272 529, 876.507 529 C 875.743 529, 874.829 529.468, 874.475 530.041 L 873.832 531.081 872.057 530.518 L 870.282 529.955 868.641 530.584 L 867 531.214 867 533 L 867 534.786 865.387 535.405 L 863.775 536.024 864.936 537.423 L 866.097 538.822 865.037 539.477 C 864.454 539.837, 860.270 540.371, 855.739 540.664 C 851.207 540.957, 841.425 541.129, 834 541.048 L 820.500 540.899 813.503 542.950 L 806.506 545 802.894 545 L 799.281 545 793.086 541.805 L 786.890 538.610 787.570 534.555 C 787.944 532.325, 788.716 529.375, 789.285 528 L 790.319 525.500 790.961 528 C 791.313 529.375, 792.372 532.188, 793.314 534.250 L 795.027 538 796.013 538 C 796.556 538, 797.048 537.438, 797.106 536.750 C 797.164 536.063, 797.130 534.263, 797.031 532.750 L 796.849 530 798.302 530 C 799.101 530, 800.315 530.675, 801 531.500 C 801.685 532.325, 802.640 533, 803.122 533 L 804 533 804 531.155 L 804 529.310 802 527.500 C 800.900 526.505, 800 525.251, 800 524.714 L 800 523.738 803.500 524.306 L 807 524.874 807 523.440 L 807 522.006 803.750 520.626 L 800.500 519.246 803.331 518.117 L 806.163 516.988 805.727 515.744 L 805.292 514.500 801.646 514.614 C 799.641 514.677, 798 514.487, 798 514.193 C 798 513.898, 798.719 512.863, 799.598 511.892 L 801.196 510.126 800.539 509.063 C 800.178 508.478, 799.229 508, 798.431 508 L 796.980 508 795.252 510.019 L 793.523 512.038 792.427 508.769 L 791.332 505.500 789.106 505.173 L 786.880 504.845 787.568 508.673 L 788.255 512.500 785.323 509.750 L 782.391 507 780.802 507 L 779.214 507 778.624 508.538 L 778.034 510.076 779.517 510.645 C 780.333 510.958, 781 511.611, 781 512.096 L 781 512.978 778.500 512.771 L 776 512.564 776 511.456 C 776 510.847, 774.889 509.305, 773.531 508.029 L 771.062 505.709 771.509 504.985 L 771.957 504.261 776.056 505.010 L 780.155 505.760 780.714 504.302 L 781.273 502.845 779.784 501.355 C 778.964 500.536, 776.637 499.296, 774.613 498.600 L 770.932 497.334 775.007 495.497 L 779.081 493.660 778.762 492.080 L 778.442 490.500 773.780 490.559 L 769.118 490.618 769.748 489.559 C 770.094 488.977, 771.174 487.925, 772.147 487.223 L 773.916 485.945 773.351 484.473 L 772.786 483 770.691 483 L 768.595 483 765.173 486.250 L 761.751 489.500 762.246 484.807 L 762.741 480.115 761.579 479.669 L 760.416 479.222 758.774 480.423 L 757.133 481.624 756.428 484.562 C 756.041 486.178, 755.552 487.808, 755.343 488.185 L 754.962 488.871 752.526 486.435 L 750.091 484 748.104 484 L 746.118 484 745.494 485.010 L 744.870 486.019 746.935 488.645 C 748.071 490.088, 749 491.604, 749 492.012 L 749 492.754 744.750 492.334 L 740.500 491.913 739.104 492.856 L 737.709 493.798 738.268 495.257 L 738.828 496.716 742.164 497.451 L 745.500 498.187 742.500 499.224 C 740.850 499.794, 738.743 500.920, 737.817 501.724 L 736.135 503.188 736.691 504.637 L 737.247 506.086 741.858 505.394 L 746.468 504.703 743.234 508.386 C 741.455 510.412, 740 512.674, 740 513.412 C 740 514.151, 740.631 515.279, 741.403 515.920 L 742.806 517.084 745.549 514.542 C 747.058 513.144, 748.697 512, 749.191 512 L 750.091 512 749.450 515.413 L 748.810 518.826 749.472 520.913 L 750.135 523 752.067 523 C 753.130 523, 754.057 522.663, 754.128 522.250 C 754.198 521.837, 754.388 520.600, 754.549 519.500 C 754.711 518.400, 755.923 515.444, 757.244 512.932 L 759.644 508.364 762.301 519.432 C 763.763 525.519, 765.238 532.334, 765.579 534.576 L 766.200 538.653 759.579 540.826 L 752.958 543 749.229 543.010 L 745.500 543.020 740.105 545.531 L 734.710 548.043 732.855 547.454 L 731 546.865 731 544.933 L 731 543 726.678 543 L 722.356 543 717.660 541.400 L 712.963 539.799 711.952 537.910 C 711.396 536.871, 709.666 535.362, 708.109 534.556 C 706.552 533.751, 700.939 532.186, 695.636 531.079 L 685.994 529.065 684.469 529.650 C 683.631 529.972, 682.513 531.042, 681.985 532.027 L 681.026 533.820 679.141 533.326 L 677.255 532.833 675.064 535.910 L 672.874 538.986 673.590 540.145 L 674.306 541.303 672.524 542.606 L 670.743 543.909 671.300 546.041 L 671.858 548.173 666.383 550.594 L 660.909 553.015 658.454 552.399 L 656 551.783 656 550.461 L 656 549.139 653.750 548.820 L 651.500 548.500 651.500 543.355 L 651.500 538.210 649.627 536.140 L 647.754 534.070 644.364 534.198 L 640.975 534.325 639.865 535.662 L 638.755 537 636.022 537 L 633.289 537 632.363 540.250 L 631.437 543.500 628.114 543.821 L 624.791 544.142 623.156 547.969 L 621.522 551.797 618.333 551.279 L 615.145 550.762 615.451 555.303 L 615.757 559.843 612.387 563.110 L 609.017 566.376 610.521 568.672 L 612.025 570.967 608.403 574.975 L 604.782 578.983 603.902 578.440 L 603.022 577.896 599.428 579.601 L 595.834 581.307 594.903 583.755 L 593.972 586.203 592.404 585.602 C 591.542 585.271, 590.003 585, 588.985 585 L 587.133 585 578.901 578.035 C 574.373 574.205, 569.213 570.380, 567.433 569.535 C 565.654 568.691, 563.452 568, 562.540 568 L 560.882 568 561.504 566.993 L 562.127 565.986 560.313 565.414 C 559.316 565.100, 557.269 564.182, 555.765 563.374 L 553.031 561.905 551.289 562.203 L 549.547 562.500 549.524 560.500 L 549.500 558.500 546.343 558.504 L 543.186 558.508 543.720 557.644 L 544.254 556.780 547.715 557.341 L 551.177 557.903 550.574 556.331 L 549.970 554.759 551.985 555.286 L 554 555.813 553.968 555.156 C 553.951 554.795, 553.339 553.712, 552.608 552.750 L 551.280 551 548.247 551 L 545.214 551 544.645 552.483 L 544.076 553.965 541.034 553.357 L 537.991 552.748 534.502 555.124 L 531.014 557.500 531.007 558.750 L 531 560 529 560 L 527 560 525.036 561.964 L 523.073 563.927 523.946 564.467 L 524.820 565.006 526.309 564.435 L 527.798 563.864 528.550 565.081 L 529.302 566.298 524.112 565.609 C 521.257 565.231, 517.814 564.500, 516.461 563.985 L 514 563.050 514 562.023 C 514 561.459, 516.250 559.380, 519 557.405 C 521.750 555.429, 524 553.626, 524 553.398 C 524 553.170, 522.987 553.549, 521.750 554.242 C 520.513 554.934, 518.489 556.364, 517.254 557.421 C 516.019 558.477, 514.835 559.152, 514.624 558.921 C 514.413 558.689, 514.801 556.325, 515.486 553.667 L 516.733 548.835 518.876 546.167 C 520.054 544.700, 522.145 541.813, 523.522 539.750 L 526.025 536 528.052 536 C 529.167 536, 531.844 535.100, 534 534 L 537.920 532 540.437 532 L 542.954 532 544.592 534.500 L 546.230 537 547.893 537 C 548.807 537, 550.594 536.272, 551.864 535.383 L 554.172 533.766 553.681 531.887 L 553.189 530.008 556.345 529.195 L 559.500 528.382 559.819 526.193 L 560.139 524.003 557.569 523.026 L 555 522.050 555 520.525 L 555 519 556.500 519 L 558 519 558 517.669 L 558 516.338 555.500 515 C 554.125 514.264, 553 513.294, 553 512.844 C 553 512.395, 551.370 511.346, 549.378 510.513 C 547.386 509.681, 545.603 509, 545.417 509 C 545.230 509, 544.273 509.863, 543.289 510.919 L 541.500 512.838 538.771 513.522 L 536.042 514.206 532.021 510.022 L 528 505.837 528 502.811 L 528 499.786 526.581 500.331 L 525.162 500.875 522.912 498.924 L 520.662 496.972 518.831 497.554 L 517 498.135 517 496.722 L 517 495.310 519.017 493.485 L 521.034 491.659 522.937 493.702 L 524.840 495.744 529.065 495.506 L 533.290 495.267 535.123 492.884 C 536.131 491.573, 536.966 490.163, 536.978 489.750 C 536.990 489.337, 536.514 489, 535.921 489 L 534.841 489 535.446 486.250 L 536.050 483.500 532.546 483.500 L 529.041 483.500 529.045 482.513 L 529.050 481.527 532.087 481.845 L 535.125 482.164 534.813 480.332 C 534.641 479.324, 533.864 478.003, 533.088 477.395 L 531.675 476.289 532.306 474.645 L 532.937 473 531.712 473 C 531.038 473, 529.027 473.419, 527.243 473.930 L 524 474.860 524 473.914 L 524 472.968 520.884 473.206 L 517.767 473.443 517.255 474.779 L 516.742 476.115 515.371 475.589 L 514 475.063 513.985 476.781 L 513.969 478.500 513.108 477.141 L 512.247 475.782 508.199 476.466 L 504.151 477.150 502.996 474.992 L 501.841 472.834 500.170 474.326 L 498.500 475.818 495.499 476.122 L 492.499 476.426 491.318 475.697 L 490.138 474.967 489.416 476.135 L 488.694 477.303 490.270 478.456 L 491.846 479.608 490.288 480.590 L 488.730 481.573 489.368 483.584 L 490.006 485.594 496.253 485.255 L 502.500 484.916 504.297 487.458 L 506.093 490 503.512 490 L 500.930 490 498.715 491.382 L 496.500 492.763 492.250 492.632 L 488 492.500 488 494.250 L 488 496 484.345 496 L 480.690 496 482.385 497.873 L 484.080 499.746 482.040 500.279 L 480 500.813 480 502.335 C 480 503.172, 480.675 504.532, 481.500 505.357 C 482.325 506.182, 483 507.379, 483 508.016 L 483 509.176 486.897 508.517 L 490.795 507.859 491.456 508.929 L 492.118 510 491.059 510 C 490.477 510, 490 510.450, 490 511 L 490 512 492.566 512 C 493.977 512, 495.976 511.548, 497.009 510.995 L 498.886 509.991 501.443 511.156 C 502.849 511.797, 504 512.756, 504 513.288 L 504 514.256 507.913 513.630 C 510.064 513.286, 512.539 512.730, 513.413 512.395 L 515 511.786 515 514.367 L 515 516.949 512.250 518.353 L 509.500 519.756 506.250 519.265 L 503 518.773 503 519.642 C 503 520.121, 501.538 521.109, 499.750 521.840 C 497.963 522.570, 495.375 523.681, 494 524.307 C 492.625 524.934, 490.503 526.187, 489.284 527.091 L 487.068 528.734 487.701 529.367 L 488.333 530 487.663 530 C 487.294 530, 485.382 529.137, 483.413 528.081 L 479.833 526.162 476.841 527.205 L 473.848 528.248 472.724 527.124 L 471.600 526 468.775 526 L 465.950 526 464.975 528.565 C 464.439 529.976, 464 531.312, 464 531.534 C 464 531.756, 464.720 531.661, 465.601 531.323 L 467.202 530.709 467.974 531.958 L 468.746 533.206 470.886 532.061 L 473.027 530.915 474.763 531.927 L 476.500 532.939 473.309 532.970 L 470.118 533 469.431 534.112 L 468.744 535.224 469.979 535.987 L 471.214 536.750 470.007 537.495 L 468.801 538.241 463.151 532.670 L 457.500 527.100 453 525.072 L 448.500 523.044 441.993 523.022 L 435.487 523 432.097 523.972 L 428.707 524.944 422.906 519.574 L 417.105 514.203 412.102 511.825 L 407.098 509.447 404.067 504.973 L 401.036 500.500 401.018 498.419 L 401 496.338 403.652 494.919 L 406.303 493.500 408.402 493.853 C 409.556 494.047, 410.805 494.697, 411.178 495.296 L 411.857 496.386 414.428 495.215 L 417 494.043 417 492.196 L 417 490.349 414.750 488.261 C 413.512 487.113, 410.295 485.010, 407.601 483.587 C 404.907 482.164, 403.107 480.947, 403.601 480.882 C 404.095 480.816, 404.838 480.816, 405.250 480.882 C 405.663 480.947, 406.939 480.061, 408.087 478.913 L 410.173 476.827 409.575 474.443 L 408.977 472.059 406.238 469.501 L 403.500 466.943 401.500 467.158 L 399.500 467.373 396 465.190 C 394.075 463.990, 391.712 463.006, 390.750 463.004 C 389.788 463.002, 389 462.698, 389 462.329 C 389 461.960, 389.725 460.856, 390.612 459.876 L 392.224 458.095 394.918 458.634 L 397.612 459.172 398.672 457.836 C 399.255 457.101, 399.951 455.279, 400.220 453.787 L 400.708 451.075 398.421 448.926 L 396.134 446.777 392.317 447.308 C 390.218 447.600, 387.150 448.170, 385.500 448.574 C 383.850 448.978, 381.038 450.418, 379.250 451.773 L 376 454.237 376 456.235 L 376 458.233 378.500 457.755 L 381 457.277 381 461.184 L 381 465.091 377.750 464.563 C 375.962 464.272, 373.150 463.959, 371.500 463.866 C 369.850 463.774, 366.622 463.766, 364.327 463.849 L 360.153 464 357.077 466.589 C 355.385 468.013, 354 468.858, 354 468.466 C 354 468.075, 353.304 468.333, 352.453 469.039 C 351.602 469.745, 349.798 472.666, 348.443 475.529 L 345.981 480.734 347.485 483.617 L 348.990 486.500 346.495 486.816 L 343.999 487.133 342.997 489.006 L 341.995 490.879 343.085 491.552 L 344.175 492.226 340.837 495.581 L 337.500 498.936 334.372 498.968 L 331.245 499 329.985 497.482 C 329.292 496.646, 327.099 495.224, 325.112 494.321 C 323.126 493.418, 320.138 491.410, 318.473 489.859 L 315.445 487.039 312.223 486.395 L 309 485.750 308.848 487.625 C 308.764 488.656, 308.650 490.138, 308.593 490.918 L 308.492 492.336 307.246 492.751 L 306 493.167 306 494.690 L 306 496.214 304.460 495.623 L 302.921 495.032 300.830 496.266 L 298.739 497.500 298.286 496.250 L 297.833 495 296.167 494.968 L 294.500 494.937 291.656 492.435 L 288.811 489.934 289.337 488.565 L 289.862 487.196 289.262 486.596 L 288.662 485.996 286.831 487.653 L 285 489.310 285 488.038 L 285 486.767 283 487.290 L 281 487.813 281 486.799 L 281 485.786 279.532 486.349 L 278.064 486.913 277.404 485.845 L 276.744 484.776 277.756 484.138 C 278.313 483.787, 278.938 482.609, 279.144 481.520 L 279.520 479.540 283.466 479.237 L 287.413 478.934 289.090 477.134 L 290.767 475.334 289.878 473.746 L 288.989 472.158 290.017 469.456 L 291.044 466.753 289.607 465.626 C 288.816 465.007, 288.016 463.618, 287.828 462.540 L 287.488 460.580 284.151 459.897 C 282.316 459.522, 280.316 458.716, 279.707 458.107 L 278.600 457 276.550 457.032 C 275.423 457.049, 273.626 457.724, 272.559 458.532 L 270.618 460 268.559 460.015 C 267.426 460.024, 265.880 460.423, 265.122 460.904 L 263.744 461.776 264.575 463.121 C 265.031 463.860, 265.477 465.373, 265.566 466.482 L 265.726 468.500 263.613 470.611 C 262.451 471.772, 260.100 473.439, 258.389 474.315 L 255.278 475.908 253.181 473.954 C 252.027 472.879, 250.390 472, 249.542 472 L 248 472 248 473.038 L 248 474.076 245.273 473.788 L 242.545 473.500 241.387 477 L 240.228 480.500 238.364 480.602 C 237.339 480.658, 236.050 480.820, 235.500 480.963 C 234.950 481.105, 233.545 481.147, 232.378 481.056 L 230.256 480.890 229.659 482.445 L 229.063 484 227.576 484 C 226.758 484, 224.381 482.909, 222.294 481.576 C 220.207 480.243, 217.600 478.255, 216.500 477.158 C 215.400 476.061, 211.868 470.222, 208.652 464.184 L 202.804 453.204 197.402 448.084 C 194.431 445.268, 192 442.522, 192 441.982 L 192 441 193.559 441 L 195.118 441 194.538 440.061 L 193.958 439.123 195.601 438.204 L 197.244 437.284 194.899 435.642 C 193.610 434.739, 192.093 434, 191.527 434 C 190.962 434, 189.212 432.386, 187.638 430.412 L 184.775 426.825 185.888 425.712 C 186.499 425.101, 187 424.292, 187 423.917 C 187 423.541, 186.100 422.998, 185 422.710 L 183 422.187 183 420.312 L 183 418.437 178.614 417.142 L 174.227 415.846 174.730 413.923 L 175.233 412 174.010 412 L 172.786 412 173.410 410.373 L 174.035 408.746 172.267 407.414 L 170.500 406.081 168.811 406.589 L 167.122 407.096 165.968 404.941 L 164.815 402.785 163.707 403.893 L 162.600 405 160.367 405 L 158.135 405 157.500 407 L 156.865 409 155.540 409 L 154.214 409 153.638 410.500 L 153.063 412 150.031 412 L 147 412 147 412.889 L 147 413.777 143.400 414.453 L 139.799 415.128 138.113 413.602 L 136.426 412.076 134.231 412.650 L 132.036 413.224 131.043 410.612 L 130.050 408 128.703 408 L 127.356 408 123.928 403.801 C 122.043 401.492, 119.357 398.454, 117.960 397.051 C 116.563 395.648, 114.841 393.375, 114.134 392 L 112.849 389.500 108.174 387.233 C 105.604 385.986, 103.050 384.966, 102.500 384.966 C 101.950 384.966, 100.440 383.848, 99.145 382.483 C 97.850 381.117, 96.368 380, 95.851 380 L 94.912 380 95.206 378.250 L 95.500 376.500 93.314 376.500 L 91.128 376.500 89.314 374.459 C 88.316 373.337, 86.672 371.456, 85.660 370.281 L 83.820 368.143 84.477 366.072 L 85.135 364 86.567 364 L 88 364 88 362.035 L 88 360.070 85.979 358.989 L 83.959 357.908 83.083 358.448 L 82.208 358.989 79.354 357.501 C 77.784 356.682, 76.050 356.024, 75.500 356.038 C 74.950 356.052, 73.600 356.749, 72.500 357.588 M 382.711 459 C 383.028 460.925, 383.335 462.560, 383.394 462.633 C 383.452 462.707, 384.512 462.384, 385.750 461.916 L 388 461.064 388 458.924 L 388 456.783 385.583 457.390 L 383.166 457.997 382.650 456.748 C 382.367 456.062, 382.395 457.075, 382.711 459 M 392.423 480.339 L 391.823 481.904 392.470 482.952 C 392.827 483.528, 393.766 484, 394.559 484 L 396 484 396 482.622 C 396 481.865, 395.330 480.689, 394.512 480.010 L 393.024 478.775 392.423 480.339 M 380.358 484.664 C 380.659 485.674, 381.213 487.850, 381.590 489.500 C 381.967 491.150, 382.709 493.051, 383.238 493.724 L 384.201 494.947 387.850 495.607 C 389.858 495.970, 392.680 496.864, 394.123 497.594 L 396.746 498.920 397.373 498.293 C 397.718 497.949, 398 496.926, 398 496.020 L 398 494.374 394.974 491.475 L 391.949 488.577 392.508 487.118 L 393.068 485.660 391.870 484.919 L 390.672 484.179 387.473 484.698 L 384.274 485.217 382.043 484.023 L 379.811 482.828 380.358 484.664 M 374.885 486.839 C 375.997 488.400, 377.668 490.309, 378.598 491.081 L 380.288 492.484 379.644 490.242 C 379.290 489.009, 378.745 487.100, 378.433 486 L 377.865 484 375.365 484 L 372.864 484 374.885 486.839 M 368.375 493.204 L 367.433 496.500 364.967 496.821 L 362.500 497.141 361.322 498.664 L 360.143 500.187 363.738 503.343 L 367.334 506.500 382.667 506.500 C 391.100 506.500, 398 506.358, 398 506.184 C 398 506.011, 397.542 505.013, 396.983 503.968 L 395.966 502.068 392.233 501.134 C 390.180 500.621, 387.287 499.928, 385.805 499.595 L 383.109 498.989 378.494 494.995 C 375.955 492.798, 373.493 491, 373.021 491 C 372.549 491, 371.523 490.754, 370.740 490.454 L 369.316 489.907 368.375 493.204 M 510.548 495.567 L 508.866 498.134 510.056 499.567 C 510.710 500.355, 511.879 501, 512.654 501 L 514.063 501 514.639 499.498 L 515.216 497.996 514.589 495.498 L 513.962 493 513.096 493 C 512.620 493, 511.473 494.155, 510.548 495.567 M 762 507.348 C 762 507.746, 762.873 511.769, 763.941 516.286 C 765.008 520.804, 766.245 527.425, 766.691 531 L 767.500 537.500 769.500 537.233 C 770.600 537.086, 773.975 536.901, 777 536.823 C 780.025 536.745, 783.112 536.865, 783.859 537.090 L 785.218 537.500 786.924 531.408 L 788.631 525.317 784.065 528.368 C 781.554 530.045, 779.350 531.774, 779.167 532.209 C 778.983 532.644, 778.421 533, 777.917 533 L 777 533 777 531.155 L 777 529.310 779 527.500 C 780.100 526.505, 781 525.275, 781 524.768 L 781 523.847 777.263 524.169 L 773.526 524.491 773.219 522.898 L 772.912 521.305 776.706 519.765 L 780.500 518.225 777.360 517.509 L 774.220 516.794 771.048 513.897 C 769.304 512.304, 767.472 511, 766.977 511 C 766.483 511, 765.160 510.015, 764.039 508.811 C 762.918 507.608, 762 506.949, 762 507.348 M 519 533.123 L 519 542 519.750 541.961 C 520.163 541.940, 521.400 540.503, 522.500 538.767 L 524.500 535.612 527.750 534.777 C 529.538 534.318, 531 533.840, 531 533.715 C 531 533.589, 531.436 531.966, 531.969 530.108 C 532.502 528.249, 532.651 527.015, 532.300 527.366 L 531.662 528.004 530.081 526.629 L 528.500 525.254 523.750 524.750 L 519 524.246 519 533.123 M 536.303 526.744 C 535.194 527.710, 533.954 529.551, 533.548 530.836 L 532.811 533.172 534.933 532.036 L 537.056 530.900 536.428 529.883 L 535.800 528.867 537.648 527.515 L 539.497 526.164 538.909 525.575 L 538.321 524.987 536.303 526.744 M 514.743 526.666 L 513.985 527.833 510.549 527.560 L 507.112 527.287 503.806 530.576 L 500.500 533.864 498.485 532.563 C 497.377 531.848, 495.015 530.943, 493.235 530.552 L 490 529.841 490 530.921 L 490 532 491.309 532 C 492.029 532, 493.491 532.668, 494.559 533.484 L 496.500 534.967 494.250 535.600 L 492 536.233 491.882 537.867 C 491.816 538.765, 491.828 539.873, 491.908 540.328 L 492.052 541.157 490.276 540.823 L 488.500 540.488 487.513 538.244 L 486.526 536 485.356 536 L 484.187 536 484.707 537.989 L 485.227 539.978 486.114 539.430 L 487 538.882 487 540.868 L 487 542.855 489.734 545.006 L 492.468 547.156 495.089 546.632 L 497.709 546.108 500.105 547.733 C 501.422 548.627, 503.978 550.627, 505.785 552.179 C 507.591 553.730, 509.616 554.998, 510.285 554.995 L 511.500 554.990 513.802 546.655 L 516.104 538.320 515.802 531.910 L 515.500 525.500 514.743 526.666 M 479.250 537.706 C 478.012 537.944, 477 538.518, 477 538.981 C 477 539.444, 478.385 540.987, 480.077 542.411 C 481.769 543.835, 483.532 545, 483.995 545 C 484.458 545, 485.638 545.307, 486.617 545.683 L 488.397 546.366 486.361 543.433 C 485.242 541.820, 484.041 539.712, 483.694 538.750 C 483.347 537.788, 482.711 537.061, 482.281 537.136 C 481.852 537.211, 480.488 537.467, 479.250 537.706 M 472.430 541.677 L 472.977 543.104 471.989 542.493 L 471 541.882 471 543.241 C 471 543.988, 471.534 545.134, 472.186 545.786 C 472.839 546.439, 473.513 547.891, 473.684 549.013 C 473.856 550.136, 474.622 552.554, 475.388 554.387 L 476.781 557.720 484.140 558.508 C 488.188 558.941, 492.625 559.443, 494 559.622 C 495.375 559.802, 499.605 560.643, 503.400 561.491 C 507.196 562.339, 510.471 562.862, 510.678 562.655 C 510.886 562.447, 510.615 561.117, 510.076 559.699 L 509.096 557.122 506.961 555.979 C 505.786 555.350, 503.570 553.431, 502.036 551.714 L 499.246 548.592 493.202 548.373 L 487.158 548.155 485.274 547.146 L 483.389 546.138 478.945 546.553 L 474.500 546.967 476.809 546.234 L 479.118 545.500 478.960 544.500 C 478.874 543.950, 478.411 542.769, 477.933 541.875 L 477.063 540.250 474.473 540.250 L 471.882 540.250 472.430 541.677 M 537 565.500 L 537 567 540 567 L 543 567 543 565.500 L 543 564 540 564 L 537 564 537 565.500" stroke="none" fill-rule="evenodd" style="fill: rgb(57, 57, 57);"/>
</svg>