<?xml version="1.0" encoding="UTF-8"?>
<!DOCTYPE svg PUBLIC "-//W3C//DTD SVG 1.1//EN" "http://www.w3.org/Graphics/SVG/1.1/DTD/svg11.dtd">
<!-- Creator: CorelDRAW -->
<svg xmlns="http://www.w3.org/2000/svg" xml:space="preserve" width="2048px" height="2048px" style="shape-rendering:geometricPrecision; text-rendering:geometricPrecision; image-rendering:optimizeQuality; fill-rule:evenodd; clip-rule:evenodd"
viewBox="0 0 2048 2048"
 xmlns:xlink="http://www.w3.org/1999/xlink">
 <defs>
  <style type="text/css">
   <![CDATA[
    .fil16 {fill:none}
    .fil1 {fill:#333333}
    .fil14 {fill:#414141}
    .fil11 {fill:#5D5D5D}
    .fil15 {fill:#6A6A6A}
    .fil10 {fill:#707070}
    .fil8 {fill:#7D7D7D}
    .fil2 {fill:#828282}
    .fil9 {fill:#9C9C9D}
    .fil7 {fill:#ADADAE}
    .fil5 {fill:#BEBEBE}
    .fil6 {fill:#D9D9DA}
    .fil12 {fill:#EAEAEA}
    .fil4 {fill:#FAFBFB}
    .fil0 {fill:#333333;fill-rule:nonzero}
    .fil13 {fill:#353535;fill-rule:nonzero}
    .fil3 {fill:#6A6A6A;fill-rule:nonzero}
   ]]>
  </style>
 </defs>
 <g id="Layer_x0020_1">
  <metadata id="CorelCorpID_0Corel-Layer"/>
  <path class="fil0" d="M1024 427.649c-11.9752,0 -23.1603,0.616536 -33.665,1.1941 -9.76418,0.53504 -18.9744,1.04291 -27.1004,1.04291 -35.524,0 -59.0788,-8.20985 -59.0788,-54.0437 0,-33.0933 13.4162,-63.0556 35.1024,-84.7418 21.6862,-21.6862 51.6473,-35.1012 84.7418,-35.1012 33.0933,0 63.0556,13.415 84.7418,35.1012 21.6862,21.6862 35.1012,51.6485 35.1012,84.7418 0,45.8339 -23.5547,54.0437 -59.0776,54.0437 -8.12599,0 -17.3362,-0.507874 -27.1004,-1.04291 -10.5047,-0.577559 -21.691,-1.1941 -33.665,-1.1941zm-34.4091 -12.3602c10.976,-0.604725 22.663,-1.24725 34.4091,-1.24725 11.7461,0 23.4319,0.64252 34.4079,1.24725 9.26339,0.509056 17.9988,0.989765 26.3575,0.989765 27.3402,0 45.4701,-6.14292 45.4701,-40.4363 0,-29.3362 -11.8913,-55.8957 -31.115,-75.1205 -19.2248,-19.2236 -45.7843,-31.115 -75.1205,-31.115 -29.3362,0 -55.8969,11.8913 -75.1205,31.115 -19.2236,19.2248 -31.1162,45.7843 -31.1162,75.1205 0,34.2933 18.1299,40.4363 45.4713,40.4363 8.35867,0 17.0941,-0.480709 26.3563,-0.989765z"/>
  <rect class="fil1" x="998.452" y="437.908" width="51.0981" height="57.763"/>
  <path class="fil2" d="M1273.54 535.5c79.8071,33.1229 151.732,81.7075 212.036,142.013l0.0531496 -0.0531496c60.1689,60.1808 108.697,132.108 141.855,212.056 31.9311,76.989 49.5638,161.265 49.5638,249.483 0,88.2201 -17.6339,172.502 -49.5697,249.496 -33.1642,79.9512 -81.6957,151.882 -141.869,212.058 -60.1689,60.1725 -132.096,108.709 -212.045,141.873 -76.9867,31.937 -161.265,49.5733 -249.483,49.5733 -88.1942,0 -172.464,-17.6398 -249.455,-49.5804 -79.8272,-33.117 -151.734,-81.6579 -211.977,-141.887l-0.106299 0c-60.2162,-60.2044 -108.791,-132.15 -141.985,-212.105 -31.9607,-76.9843 -49.6111,-161.244 -49.6111,-249.428 0,-88.2544 17.6351,-172.557 49.5744,-249.567 33.1654,-79.9654 81.704,-151.904 141.886,-212.082 60.1831,-60.1808 132.125,-108.717 212.094,-141.881 77.015,-31.9382 161.325,-49.5733 249.58,-49.5733 88.1965,0 172.466,17.6457 249.458,49.604z"/>
  <path class="fil3" d="M1273.27 536.217c39.5752,16.4256 77.2808,36.7158 112.648,60.4016 30.9638,20.7402 59.9871,43.9583 86.7568,69.3473l0.211417 -0.219685 12.2256 12.228c30.0673,30.0733 57.3166,63.2516 81.2682,99.058 23.6634,35.3752 43.9477,73.1138 60.3874,112.753 16.1752,39 28.6772,79.8473 37.0701,122.099 8.18268,41.1874 12.4748,83.6953 12.4748,127.115 0,43.4209 -4.29213,85.9312 -12.476,127.125 -8.3941,42.2528 -20.8996,83.1012 -37.076,122.104 -16.4421,39.6402 -36.7299,77.3823 -60.3934,112.756 -23.9551,35.8051 -51.2044,68.9823 -81.2729,99.0532 -30.0685,30.0685 -63.2434,57.3189 -99.0485,81.2753 -35.3717,23.6646 -73.1115,43.9524 -112.752,60.3957 -38.9977,16.1788 -79.8438,28.6831 -122.095,37.0772 -41.1898,8.18505 -83.6989,12.4772 -127.119,12.4772 -43.4091,0 -85.9111,-4.29331 -127.096,-12.4784 -42.2492,-8.39646 -83.093,-20.9043 -122.092,-37.0819 -39.5847,-16.4232 -77.2902,-36.7004 -112.652,-60.3709 -35.7815,-23.9492 -68.9587,-51.2056 -99.0544,-81.2918l-0.0602363 -0.0248032c-30.2256,-30.2185 -57.5197,-63.4075 -81.4064,-99.091 -23.6811,-35.3752 -43.9831,-73.1197 -60.4406,-112.763 -16.1894,-38.9941 -28.7044,-79.8367 -37.1067,-122.081 -8.18977,-41.1792 -12.4866,-83.6764 -12.4866,-127.08 0,-43.4386 4.29331,-85.9631 12.4772,-127.167 8.39528,-42.2634 20.8996,-83.1201 37.0796,-122.13 16.4445,-39.6485 36.7335,-77.3953 60.4016,-112.773 23.9563,-35.8099 51.2103,-68.9894 81.2835,-99.0603 30.0744,-30.0744 63.2563,-57.3272 99.0674,-81.2823 35.3799,-23.6669 73.128,-43.9548 112.779,-60.3969 39.0107,-16.1788 79.8697,-28.6831 122.136,-37.0784 41.2063,-8.18505 83.7331,-12.4784 127.172,-12.4784 43.4091,0 85.9123,4.29685 127.097,12.4854 42.2481,8.40001 83.093,20.9126 122.093,37.0985zm93.7796 88.5686c-33.3898,-22.3618 -69.1347,-41.5796 -106.799,-57.2115 -36.8764,-15.3036 -75.5422,-27.1453 -115.584,-35.1059 -38.9918,-7.75276 -79.3158,-11.8205 -120.587,-11.8205 -41.3032,0 -81.6497,4.06418 -120.662,11.8134 -40.063,7.95827 -78.7442,19.7894 -115.626,35.0859 -37.7469,15.6532 -73.5355,34.8673 -106.931,57.2067 -33.6685,22.5225 -65.1154,48.3957 -93.8847,77.165 -28.7705,28.7681 -54.6437,60.2126 -77.1662,93.8776 -22.3406,33.3933 -41.5559,69.1808 -57.2115,106.926 -15.2965,36.8799 -27.1299,75.5587 -35.087,115.619 -7.74804,39.0083 -11.8122,79.3536 -11.8122,120.657 0,41.2654 4.06772,81.5835 11.8217,120.569 7.96418,40.0359 19.8047,78.6981 35.1142,115.571 15.665,37.7339 34.8933,73.5201 57.2516,106.917 22.598,33.7583 48.4264,65.1733 77.0339,93.789l0.28937 0.119291c28.8,28.7941 60.2516,54.678 93.8977,77.1993 33.3792,22.3429 69.1276,41.5489 106.805,57.1808 36.8729,15.2965 75.5375,27.1311 115.582,35.0894 38.9906,7.74804 79.3134,11.8146 120.586,11.8146 41.2831,0 81.6142,-4.06536 120.61,-11.8134 40.0465,-7.95591 78.7146,-19.7894 115.584,-35.0835 37.7374,-15.6543 73.5178,-34.8697 106.904,-57.2067 33.6603,-22.5201 65.1012,-48.391 93.867,-77.1579 28.7658,-28.767 54.6343,-60.2103 77.1544,-93.8717 22.337,-33.3886 41.5512,-69.1713 57.2044,-106.909 15.2941,-36.874 27.1264,-75.5445 35.0835,-115.593 7.74686,-38.9977 11.811,-79.33 11.811,-120.614 0,-41.2843 -4.06418,-81.6131 -11.8099,-120.606 -7.95591,-40.0477 -19.7858,-78.717 -35.0776,-115.587 -15.6508,-37.7374 -34.8626,-73.5178 -57.1973,-106.905 -20.7425,-31.0087 -44.3292,-60.1347 -70.4008,-87.0213l-6.80079 -6.80197c-28.8331,-28.8343 -60.306,-54.7489 -93.9615,-77.2914z"/>
  <path class="fil4" d="M1231.56 637.02c66.3804,27.5516 126.204,67.9619 176.365,118.122l0.0448819 -0.0437008c50.0457,50.0563 90.4099,109.883 117.99,176.381 26.5595,64.0371 41.2264,134.136 41.2264,207.512 0,73.3796 -14.6681,143.482 -41.2311,207.523 -27.5847,66.5008 -67.9524,126.33 -118.002,176.382 -50.0481,50.0493 -109.874,90.4205 -176.372,118.005 -64.0359,26.5642 -134.136,41.2323 -207.513,41.2323 -73.3571,0 -143.449,-14.6705 -207.489,-41.2382 -66.3969,-27.5457 -126.206,-67.9205 -176.315,-118.017l-0.0885827 0c-50.0859,-50.0764 -90.489,-109.918 -118.099,-176.421 -26.5831,-64.0335 -41.2654,-134.118 -41.2654,-207.467 0,-73.4067 14.6693,-143.526 41.2359,-207.581 27.5858,-66.5126 67.9583,-126.349 118.016,-176.402 50.0587,-50.0563 109.897,-90.4276 176.413,-118.012 64.0583,-26.5654 134.184,-41.2335 207.592,-41.2335 73.3583,0 143.452,14.6776 207.491,41.2583z"/>
  <path class="fil5" d="M1231.56 637.02c66.3804,27.5516 126.204,67.9619 176.366,118.122l0.0425197 -0.0437008c50.0469,50.0563 90.4111,109.883 117.99,176.381 17.2087,41.4898 29.4213,85.5249 35.8902,131.346 -6.75237,-38.5512 -17.6847,-75.7075 -32.3138,-110.979 -26.9256,-64.9241 -66.3355,-123.334 -115.198,-172.206l-0.0413386 0.0413386c-48.9744,-48.9721 -107.382,-88.4257 -172.191,-115.325 -62.5252,-25.9524 -130.958,-40.2815 -202.582,-40.2815 -71.6717,0 -140.137,14.3197 -202.679,40.2567 -64.9418,26.9315 -123.365,66.3485 -172.237,115.219 -48.8729,48.8693 -88.291,107.289 -115.225,172.228 -25.937,62.5371 -40.2579,130.999 -40.2579,202.669 0,71.6103 14.3339,140.036 40.2874,202.556 26.9575,64.9288 66.4052,123.353 115.304,172.245l0.0862205 0c48.9237,48.9107 107.316,88.33 172.142,115.224 35.2878,14.6398 72.4583,25.5792 111.021,32.3315 -45.8315,-6.4689 -89.8808,-18.6886 -131.387,-35.9079 -66.3969,-27.5457 -126.206,-67.9205 -176.315,-118.017l-0.0874016 0c-50.0859,-50.0764 -90.4902,-109.918 -118.1,-176.421 -26.5831,-64.0347 -41.2654,-134.118 -41.2654,-207.466 0,-73.4079 14.6681,-143.528 41.2347,-207.581 27.587,-66.5138 67.9595,-126.35 118.017,-176.404 50.0575,-50.0552 109.897,-90.4276 176.413,-118.012 64.0571,-26.5654 134.184,-41.2335 207.592,-41.2335 73.3595,0 143.451,14.6776 207.491,41.2583z"/>
  <path class="fil6" d="M947.003 1065.06l76.9973 -272.706 76.9973 272.706 237.357 73.8886 -237.357 73.8898 -76.9973 272.706 -76.9973 -272.706 -237.357 -73.8898 237.357 -73.8886zm76.9973 157.869c-46.3807,0 -83.9788,-37.5992 -83.9788,-83.98 0,-46.3796 37.5981,-83.9788 83.9788,-83.9788 46.3807,0 83.9788,37.5992 83.9788,83.9788 0,46.3807 -37.5981,83.98 -83.9788,83.98z"/>
  <polygon class="fil7" points="1073.91,1089.04 1314.32,1429.27 974.094,1188.85 "/>
  <polygon class="fil8" points="974.094,1188.85 973.674,1188.26 733.679,848.626 1073.67,1088.87 1073.91,1089.04 "/>
  <polygon class="fil9" points="1073.91,1089.04 1314.32,1429.27 1314.31,1429.26 1024,1138.95 "/>
  <polygon class="fil10" points="733.686,848.637 733.679,848.626 1073.67,1088.87 1073.91,1089.04 1024,1138.95 "/>
  <path class="fil11" d="M1054.84 1169.79c-17.0315,17.0315 -44.6457,17.0315 -61.6772,0 -17.0315,-17.0315 -17.0315,-44.6469 0,-61.6784 17.0315,-17.0315 44.6457,-17.0315 61.6772,0 17.0315,17.0315 17.0315,44.6469 0,61.6784z"/>
  <path class="fil12" d="M1041.97 1156.92c-9.92363,9.92363 -26.0126,9.92363 -35.9362,0 -9.92245,-9.92245 -9.92245,-26.0126 0,-35.9351 9.92363,-9.92363 26.0126,-9.92363 35.9362,0 9.92245,9.92245 9.92245,26.0126 0,35.9351z"/>
  <path class="fil13" d="M698.119 822.086c-2.48977,-2.48977 -2.48977,-6.52914 0,-9.0189 2.48977,-2.48977 6.52914,-2.48977 9.0189,0l21.2941 21.2953c2.48977,2.48977 2.48977,6.52914 0,9.0189 -2.48977,2.48977 -6.52914,2.48977 -9.0189,0l-21.2941 -21.2953z"/>
  <path class="fil13" d="M606.213 959.896c-3.20433,-1.43032 -4.64292,-5.19095 -3.2126,-8.39528 1.43032,-3.20551 5.19095,-4.64292 8.39528,-3.21378l27.5114 12.2492c3.20433,1.43032 4.64292,5.19095 3.2126,8.39528 -1.43032,3.20433 -5.18977,4.64292 -8.39528,3.2126l-27.5114 -12.248z"/>
  <path class="fil13" d="M1436.61 948.287c3.20433,-1.42913 6.96497,0.00826772 8.39528,3.21378 1.43032,3.20433 -0.00826772,6.96497 -3.2126,8.39528l-27.5126 12.248c-3.20551,1.43032 -6.96497,-0.00826772 -8.39528,-3.2126 -1.43032,-3.20433 0.00826772,-6.96497 3.2126,-8.39528l27.5126 -12.2492z"/>
  <path class="fil13" d="M1196.95 718.617c1.3748,-3.23268 5.11181,-4.73859 8.34449,-3.36378 3.23386,1.3748 4.73859,5.11181 3.36378,8.34568l-11.8488 27.6862c-1.3748,3.23386 -5.11181,4.73859 -8.34449,3.36378 -3.23268,-1.3748 -4.73859,-5.11181 -3.36378,-8.34449l11.8488 -27.6874z"/>
  <path class="fil13" d="M844.11 721.532c-1.34764,-3.24685 0.190158,-6.97205 3.43819,-8.32087 3.24685,-1.34764 6.97205,0.191339 8.31969,3.43819l11.5299 27.8221c1.34764,3.24685 -0.190158,6.97323 -3.43701,8.32087 -3.24803,1.34764 -6.97323,-0.191339 -8.32087,-3.43819l-11.5299 -27.8221z"/>
  <path class="fil13" d="M1340.86 813.067c2.48977,-2.48977 6.52914,-2.48977 9.0189,0 2.48977,2.48977 2.48977,6.52914 0,9.0189l-21.2941 21.2953c-2.48977,2.48977 -6.52914,2.48977 -9.0189,0 -2.48977,-2.48977 -2.48977,-6.52914 0,-9.0189l21.2941 -21.2953z"/>
  <path class="fil13" d="M1448.37 1145.33c-3.52205,0 -6.37796,-2.85473 -6.37796,-6.37796 0,-3.52205 2.85591,-6.37678 6.37796,-6.37678l30.1158 0c3.52205,0 6.37796,2.85473 6.37796,6.37678 0,3.52323 -2.85591,6.37796 -6.37796,6.37796l-30.1158 0z"/>
  <path class="fil13" d="M1319.57 1443.53c-2.48977,-2.48977 -2.48977,-6.52914 0,-9.0189 2.48977,-2.48977 6.52914,-2.48977 9.0189,0l21.2941 21.2953c2.48977,2.48977 2.48977,6.52914 0,9.0189 -2.48977,2.48858 -6.52914,2.48858 -9.0189,0l-21.2941 -21.2953z"/>
  <path class="fil13" d="M1409.09 1317.36c-3.20433,-1.43032 -4.64292,-5.19095 -3.2126,-8.39528 1.43032,-3.20551 5.18977,-4.64292 8.39528,-3.2126l27.5114 12.2469c3.20433,1.43032 4.64292,5.19095 3.2126,8.39528 -1.43032,3.20551 -5.19095,4.64292 -8.39528,3.2126l-27.5114 -12.2469z"/>
  <path class="fil13" d="M633.723 1305.75c3.20551,-1.43032 6.96497,0.00826772 8.39528,3.2126 1.43032,3.20433 -0.00826772,6.96497 -3.2126,8.39528l-27.5114 12.2492c-3.20433,1.43032 -6.96497,-0.00826772 -8.39528,-3.2126 -1.43032,-3.20433 0.00826772,-6.96497 3.2126,-8.39528l27.5114 -12.2492z"/>
  <path class="fil13" d="M851.193 1526.61c1.3748,-3.23268 5.11181,-4.73859 8.34568,-3.36378 3.23268,1.37599 4.73741,5.113 3.3626,8.34568l-11.8465 27.6874c-1.3748,3.23268 -5.11181,4.73741 -8.34449,3.3626 -3.23386,-1.3748 -4.73859,-5.11181 -3.36378,-8.34449l11.8465 -27.6874z"/>
  <path class="fil13" d="M1180.6 1533.43c-1.34764,-3.24685 0.190158,-6.97205 3.43819,-8.32087 3.24685,-1.34764 6.97205,0.191339 8.32087,3.43819l11.5299 27.8197c1.34764,3.24685 -0.190158,6.97323 -3.43819,8.32087 -3.24685,1.34764 -6.97205,-0.190158 -8.31969,-3.43819l-11.5311 -27.8197z"/>
  <path class="fil13" d="M719.412 1434.52c2.48977,-2.48977 6.52914,-2.48977 9.0189,0 2.48977,2.48977 2.48977,6.52914 0,9.0189l-21.2941 21.2953c-2.48977,2.48858 -6.52914,2.48858 -9.0189,0 -2.48977,-2.48977 -2.48977,-6.52914 0,-9.0189l21.2941 -21.2953z"/>
  <polygon class="fil14" points="555.491,1097.34 580.435,1097.34 589.424,1144.83 602.529,1097.34 627.415,1097.34 640.581,1144.83 649.569,1097.34 674.396,1097.34 655.668,1182.37 629.91,1182.37 615.003,1128.83 600.154,1182.37 574.398,1182.37 "/>
  <path class="fil14" d="M986.298 1578.93l24.1831 -1.51181c0.517323,3.92481 1.58858,6.91182 3.19725,8.97993 2.60433,3.33189 6.35788,4.97835 11.2205,4.97835 3.6189,0 6.41457,-0.842127 8.38583,-2.54646 1.95354,-1.70433 2.93032,-3.67677 2.93032,-5.91615 0,-2.12599 -0.918898,-4.04055 -2.79567,-5.72599 -1.87677,-1.68425 -6.20315,-3.27402 -13.0205,-4.76693 -11.1425,-2.50866 -19.0902,-5.82166 -23.8382,-9.97678 -4.78583,-4.15394 -7.17993,-9.43938 -7.17993,-15.8728 0,-4.23071 1.2248,-8.23347 3.67677,-11.9858 2.45079,-3.75355 6.12638,-6.70158 11.048,-8.86536 4.92048,-2.14488 11.6599,-3.21614 20.2181,-3.21614 10.5118,0 18.5351,1.95236 24.0496,5.85827 5.51457,3.90591 8.78859,10.1291 9.84213,18.6496l-23.954 1.39725c-0.63189,-3.69449 -1.97126,-6.39449 -4.02048,-8.07993 -2.02914,-1.66536 -4.8437,-2.50866 -8.42481,-2.50866 -2.96811,0 -5.18859,0.612993 -6.68268,1.87677 -1.4941,1.24488 -2.23937,2.77677 -2.23937,4.57678 0,1.30158 0.611811,2.46969 1.8378,3.52323 1.20591,1.09134 4.03937,2.08701 8.53938,3.02481 11.1059,2.3941 19.0512,4.82481 23.8571,7.27678 4.80591,2.44961 8.31024,5.47559 10.4929,9.11339 2.18268,3.6189 3.29292,7.67835 3.29292,12.1784 0,5.26536 -1.47402,10.128 -4.38426,14.5713 -2.91024,4.45985 -6.98859,7.83071 -12.235,10.128 -5.22638,2.29843 -11.8323,3.44646 -19.7988,3.44646 -13.9772,0 -23.6646,-2.67992 -29.0457,-8.07993 -5.39882,-5.37993 -8.44371,-12.2162 -9.15237,-20.5264z"/>
  <polygon class="fil14" points="1420.82,1097.34 1491.22,1097.34 1491.22,1115.49 1447.15,1115.49 1447.15,1129.01 1488.04,1129.01 1488.04,1146.36 1447.15,1146.36 1447.15,1163.11 1492.51,1163.11 1492.51,1182.37 1420.82,1182.37 "/>
  <polygon class="fil14" points="985.915,670.355 1010.46,670.355 1042.48,717.395 1042.48,670.355 1067.24,670.355 1067.24,755.388 1042.48,755.388 1010.62,708.703 1010.62,755.388 985.915,755.388 "/>
  <path class="fil15" d="M953.016 378.245l141.969 0c5.96221,0 10.839,4.87678 10.839,10.839l0 61.7623c0,5.96221 -4.87678,10.8413 -10.839,10.8413l-141.969 0c-5.96221,0 -10.839,-4.87914 -10.839,-10.8413l0 -61.7623c0,-5.96221 4.87678,-10.839 10.839,-10.839z"/>
  <rect class="fil16" width="2048" height="2048"/>
 </g>
</svg>
