<?xml version="1.0" encoding="utf-8"?>
<svg viewBox="9.634 8.831 177.119 175.112" xmlns="http://www.w3.org/2000/svg">
  <path d="M 76.358 44.727 L 72.215 45.104 70.523 46.975 L 68.830 48.845 61.330 61.173 L 53.830 73.500 53.316 76.553 L 52.802 79.607 57.991 91.601 L 63.180 103.595 55.590 116.189 L 48 128.783 48 131.247 L 48 133.711 52.523 144.052 L 57.045 154.392 58.678 156.196 L 60.310 158 63.427 158 L 66.544 158 75 149.500 L 83.456 141 94.478 140.985 L 105.500 140.971 107.922 139.735 L 110.344 138.500 118.672 124.548 L 127 110.595 127 107.698 L 127 104.801 123.500 96.724 L 120 88.648 120 87.824 L 120 87 129.277 87 L 138.555 87 140.730 85.477 L 142.905 83.953 150.953 70.579 L 159 57.205 159 53.713 L 159 50.222 157.142 47.927 L 155.285 45.633 148.392 44.868 L 141.500 44.103 111 44.226 L 80.500 44.349 76.358 44.727 M 74.838 52.717 L 73.306 54.500 66.653 65.644 L 60 76.788 60 78.394 L 60 80 84 80 L 108 80 108 79.120 L 108 78.239 102.055 64.870 L 96.111 51.500 86.240 51.217 L 76.370 50.934 74.838 52.717 M 104 51.803 L 104 52.641 107.872 61.571 L 111.745 70.500 113.851 75.284 L 115.958 80.068 126.664 79.784 L 137.370 79.500 144.672 67.500 L 151.974 55.500 151.737 53.500 L 151.500 51.500 127.750 51.232 L 104 50.964 104 51.803 M 64.283 88.250 L 64.781 89.500 66.499 93.750 L 68.217 98 92.109 98 L 116 98 116 97.435 L 116 96.871 113.877 91.935 L 111.754 87 87.770 87 L 63.786 87 64.283 88.250 M 71.989 105.750 L 71.978 106.500 78.139 120.282 L 84.301 134.065 94.781 133.782 L 105.261 133.500 113.047 120.615 L 120.834 107.731 120.310 106.365 L 119.786 105 95.893 105 L 72 105 71.989 105.750 M 60.490 121.387 L 54.773 130.967 55.355 132.483 L 55.937 134 65.969 134 L 76 134 76 133.172 L 76 132.345 71.927 122.922 L 67.854 113.500 67.030 112.654 L 66.207 111.807 60.490 121.387 M 59 141.373 L 59 141.746 61.047 146.373 L 63.094 151 63.860 151 L 64.626 151 67.092 148.250 L 69.558 145.500 71.434 143.250 L 73.310 141 66.155 141 L 59 141 59 141.373" stroke="none" fill-rule="evenodd" style="fill: rgb(226, 232, 240);"/>
</svg>