<?xml version="1.0" encoding="utf-8"?>
<svg viewBox="-52.37 -14.8 367.936 294.299" xmlns="http://www.w3.org/2000/svg">
  <linearGradient id="path2900_1_" x1="14.099" x2="14.099" y1="16.277" y2="43.569" gradientUnits="userSpaceOnUse" gradientTransform="matrix(9.126278, 0, 0, 9.126278, 1.685542, -172.549011)">
    <stop offset="0" stop-color="#6dc7ff"/>
    <stop offset="1" stop-color="#e6abff"/>
  </linearGradient>
  <path id="path2900" fill="url(#path2900_1_)" d="M 78.346 208.929 C 68.307 201.629 58.268 193.414 50.967 183.377 C 36.364 165.124 24.502 144.133 16.287 121.317 C 11.724 106.716 9.898 91.2 3.51 77.51 C -2.878 67.472 4.422 56.521 15.375 52.87 C 19.938 51.958 29.064 47.395 18.111 51.045 C 8.985 58.346 8.073 44.656 17.2 43.743 C 23.588 42.832 26.326 37.355 23.588 32.792 C 16.287 28.229 40.927 22.754 28.151 16.364 C 15.375 2.675 45.491 -0.062 38.19 15.452 C 36.364 27.317 59.18 13.627 53.705 27.317 C 61.918 33.705 77.433 28.229 76.521 37.355 C 84.734 38.268 87.472 44.656 94.773 44.656 C 102.074 48.307 116.676 51.045 119.415 59.257 C 111.2 66.559 93.861 48.307 92.947 64.734 C 95.685 89.375 94.773 114.929 103.9 138.656 C 108.463 153.26 118.501 164.21 127.628 175.162 C 136.754 186.113 148.618 193.414 161.394 199.803 C 172.346 205.279 184.21 208.017 196.075 210.755 C 200.638 207.104 209.764 193.414 217.066 198.891 C 217.066 205.279 202.463 212.58 216.153 211.667 C 224.366 208.929 229.843 218.055 237.144 209.842 C 243.531 217.144 263.609 205.279 259.046 220.793 C 252.658 224.443 244.443 222.619 238.055 228.094 C 228.017 223.531 219.803 232.658 208.851 231.745 C 196.075 233.569 184.21 234.483 171.434 234.483 C 151.356 232.658 130.365 231.745 110.288 225.357 C 99.336 221.707 88.384 215.318 78.346 208.929 Z M 95.685 216.23 C 106.637 220.793 116.676 225.357 128.541 227.182 C 146.793 229.92 166.871 233.569 185.124 229.92 C 176.909 226.27 167.783 231.745 159.57 227.182 C 149.53 229.006 138.579 226.27 128.541 225.357 C 116.676 219.881 103.9 216.23 92.947 209.842 C 79.258 205.279 100.248 216.23 103.9 217.144 C 112.113 221.707 94.773 214.406 92.035 212.58 C 84.734 208.929 83.821 209.842 91.122 213.492 C 92.947 215.318 94.773 216.23 95.685 216.23 Z M 75.608 202.54 C 85.647 206.192 75.608 195.239 71.045 196.153 C 69.219 192.502 62.832 189.764 67.395 187.94 C 60.093 190.676 59.18 177.9 55.531 179.725 C 47.317 176.987 52.792 167.86 42.754 162.385 C 41.841 156.909 33.627 151.434 30.889 143.22 C 29.064 138.656 20.85 125.88 26.326 137.745 C 30.889 149.609 38.19 158.735 45.491 168.774 C 50.967 177.9 56.442 187.94 65.568 193.414 C 68.307 197.065 71.045 201.629 75.608 202.54 Z M 121.239 221.707 C 125.802 224.443 145.88 227.182 133.104 222.619 C 131.277 223.531 109.375 216.23 121.239 221.707 Z M 73.783 183.377 C 78.346 187.026 93.861 184.289 81.085 180.638 C 75.608 177.9 62.832 175.162 71.045 182.463 L 73.783 183.377 Z M 98.424 196.153 C 110.288 199.803 88.384 188.852 95.685 195.239 L 97.51 196.153 L 98.424 196.153 Z M 119.415 208.017 C 131.277 208.929 109.375 207.104 119.415 208.017 Z M 98.424 189.764 C 107.55 190.676 87.472 183.377 96.599 188.852 L 98.424 189.764 Z M 129.453 208.929 C 137.667 204.366 134.929 220.793 143.142 210.755 C 151.356 204.366 135.84 218.055 145.88 211.667 C 153.181 207.104 164.133 214.406 171.434 216.23 C 175.998 216.23 181.473 220.793 186.036 218.055 C 196.075 215.318 166.871 214.406 174.171 208.929 C 165.045 211.667 158.656 206.192 154.093 199.803 C 144.055 197.065 132.191 192.502 126.714 183.377 C 124.89 179.725 129.453 184.289 124.89 177.9 C 118.501 172.423 115.763 166.036 111.2 159.647 C 106.637 156.909 105.725 149.609 104.811 159.647 C 104.811 153.26 99.336 148.696 97.51 150.521 C 97.51 144.133 103.9 147.783 99.336 143.22 C 98.424 136.831 94.773 130.444 93.861 123.142 C 92.035 119.492 93.861 112.191 88.384 120.404 C 89.297 128.618 91.122 110.365 93.861 115.84 C 97.51 109.453 92.947 110.365 92.035 111.277 C 94.773 105.802 93.861 98.501 91.122 101.24 C 92.035 95.763 92.947 81.162 89.297 83.9 C 92.035 78.424 93.861 57.433 83.821 65.648 C 79.258 65.648 72.87 67.472 69.219 68.384 C 80.171 73.861 68.307 70.211 63.743 69.297 C 62.832 74.773 59.18 72.035 53.705 72.035 C 61.918 72.947 49.142 81.162 44.579 77.51 C 38.19 80.248 50.054 88.463 44.579 90.288 C 45.491 93.938 34.539 89.375 35.452 97.589 C 29.064 94.851 34.539 107.627 37.278 103.064 C 47.317 105.802 44.579 112.191 44.579 118.579 C 42.754 122.231 36.364 110.365 42.754 110.365 C 37.278 101.24 36.364 106.716 31.801 111.277 C 30.889 111.277 43.665 116.754 35.452 119.492 C 42.754 120.404 42.754 126.794 43.665 130.444 C 48.229 135.007 47.317 125.88 51.88 130.444 C 49.142 125.88 35.452 117.667 46.404 120.404 C 46.404 115.84 44.579 112.191 48.229 112.191 C 51.88 105.802 44.579 126.794 51.88 119.492 C 56.442 119.492 56.442 114.929 60.093 121.317 C 65.568 126.794 61.918 130.444 54.617 125.88 C 55.531 130.444 64.656 132.269 62.832 139.57 C 64.656 145.958 67.395 143.22 69.219 143.22 C 71.045 149.609 71.958 145.046 71.958 142.308 C 79.258 144.133 77.433 148.696 80.171 151.434 C 85.647 154.172 72.87 135.007 81.996 145.958 C 92.035 155.084 85.647 158.735 76.521 156.909 C 81.996 156.909 83.821 164.21 90.21 164.21 C 96.599 166.948 100.248 178.814 90.21 174.25 C 86.559 170.599 72.87 166.948 83.821 173.337 C 93.861 177.9 102.074 180.638 111.2 186.113 C 118.501 190.676 121.239 197.065 123.978 197.977 C 118.501 200.716 106.637 196.153 114.851 194.328 C 109.375 193.414 102.987 190.676 108.463 197.065 C 113.025 200.716 123.978 200.716 125.802 200.716 C 123.978 204.366 121.239 204.366 125.802 205.279 C 122.151 206.192 128.541 207.104 129.453 208.929 Z M 118.501 178.814 C 115.763 175.162 114.851 169.687 117.588 174.25 C 120.326 175.162 123.978 184.289 118.501 178.814 Z M 98.424 145.046 C 94.773 136.831 101.162 140.483 99.336 146.871 L 98.424 145.046 Z M 63.743 122.231 C 61.918 119.492 59.18 111.277 60.093 108.541 C 61.005 112.191 68.307 125.88 63.743 114.016 C 58.268 103.978 70.131 117.667 71.045 119.492 C 71.958 122.231 67.395 118.579 70.131 124.967 C 65.568 118.579 68.307 128.618 63.743 122.231 Z M 46.404 106.716 C 42.754 103.064 39.102 99.415 46.404 103.978 C 49.142 103.978 40.016 95.763 47.317 101.24 C 53.705 103.064 50.054 113.104 46.404 106.716 Z M 48.229 101.24 C 36.364 91.2 62.832 106.716 50.054 103.064 L 48.229 101.24 Z M 81.996 120.404 C 76.521 117.667 81.085 99.415 81.996 111.277 C 86.559 109.453 81.996 117.667 85.647 117.667 C 84.734 123.142 82.909 124.967 81.996 120.404 Z M 50.967 97.589 C 43.665 87.55 72.87 107.627 55.531 100.326 C 53.705 99.415 51.88 99.415 50.967 97.589 Z M 74.694 110.365 C 73.783 101.24 75.608 111.277 74.694 110.365 Z M 51.88 93.938 C 56.442 93.026 70.131 102.152 57.355 96.677 C 55.531 94.851 52.792 94.851 51.88 93.938 Z M 90.21 113.104 C 91.122 103.978 92.947 107.627 90.21 114.016 L 90.21 113.104 Z M 55.531 90.288 C 57.355 87.55 50.967 78.424 56.442 86.637 C 59.18 88.463 63.743 90.288 59.18 91.2 C 65.568 96.677 57.355 93.026 55.531 90.288 Z M 81.085 91.2 C 80.171 87.55 82.909 95.763 81.085 91.2 Z M 83.821 85.725 C 81.085 82.074 86.559 67.472 87.472 76.599 C 84.734 82.987 86.559 86.637 88.384 78.424 C 92.035 71.123 87.472 92.113 83.821 85.725 Z M 93.861 185.201 C 100.248 187.026 100.248 184.289 94.773 183.377 C 91.122 180.638 81.085 176.987 90.21 183.377 C 90.21 184.289 92.947 184.289 93.861 185.201 Z M 70.131 169.687 C 73.783 172.423 83.821 176.987 75.608 170.599 C 78.346 166.948 70.131 165.124 72.87 163.297 C 65.568 158.735 67.395 159.647 71.958 159.647 C 63.743 155.997 72.87 155.997 72.87 154.172 C 69.219 153.26 56.442 148.696 64.656 154.172 C 56.442 150.521 61.918 155.997 60.093 155.084 C 51.88 153.26 67.395 161.472 59.18 158.735 C 63.743 162.385 71.045 167.86 61.005 162.385 C 59.18 165.124 68.307 167.86 70.131 169.687 Z M 153.181 218.055 C 156.831 214.406 153.181 223.531 158.656 217.144 C 158.656 212.58 158.656 209.842 152.268 215.318 C 150.444 216.23 149.53 220.793 153.181 218.055 Z M 95.685 181.55 C 99.336 185.201 113.938 184.289 100.248 181.55 C 98.424 178.814 88.384 179.725 95.685 181.55 Z M 163.22 220.793 C 169.608 214.406 156.831 221.707 163.22 220.793 Z M 31.801 137.745 C 26.326 129.53 28.151 125.88 22.675 119.492 C 21.763 114.016 13.548 103.064 18.111 114.929 C 23.588 122.231 24.502 133.181 31.801 137.745 Z M 167.783 219.881 C 173.26 216.23 166.871 216.23 166.871 219.881 L 167.783 219.881 Z M 177.822 222.619 C 185.124 217.144 173.26 221.707 175.998 223.531 L 177.822 222.619 Z M 50.967 141.394 C 56.442 142.308 72.87 155.084 63.743 142.308 C 58.268 140.483 61.918 128.618 56.442 130.444 C 60.093 135.919 59.18 138.656 51.88 135.007 C 42.754 130.444 46.404 136.831 48.229 138.656 C 45.491 140.483 50.967 141.394 50.967 141.394 Z M 25.413 122.231 C 26.326 118.579 16.287 99.415 20.85 113.104 C 21.763 115.84 21.763 120.404 25.413 122.231 Z M 139.492 190.676 C 138.579 187.94 134.929 190.676 139.492 190.676 Z M 198.814 218.055 C 204.289 217.144 217.066 220.793 218.891 216.23 C 212.502 216.23 196.075 211.667 195.162 217.144 L 196.987 217.144 L 198.814 218.055 Z M 28.151 98.501 C 33.627 96.677 18.111 93.938 27.238 98.501 L 28.151 98.501 Z M 10.812 79.336 C 9.898 73.861 9.898 63.821 19.938 66.559 C 7.161 69.297 29.064 82.074 26.326 72.035 C 31.801 72.035 37.278 69.297 33.627 73.861 C 44.579 72.947 51.88 63.821 61.918 64.734 C 70.131 63.821 78.346 62.909 87.472 59.257 C 94.773 58.346 101.162 51.045 97.51 46.481 C 87.472 45.57 77.433 46.481 67.395 49.219 C 55.531 51.958 44.579 56.521 32.715 58.346 C 20.85 60.171 35.452 62.909 31.801 62.909 C 25.413 64.734 39.102 66.559 30.889 68.384 C 26.326 67.472 20.85 65.648 22.675 60.171 C 10.812 62.909 1.686 67.472 10.812 79.336 Z M 37.278 65.648 C 40.016 55.608 50.967 73.861 41.841 66.559 C 40.927 65.648 38.19 64.734 37.278 65.648 Z M 42.754 61.084 C 42.754 56.521 53.705 63.821 44.579 62.909 L 42.754 61.084 Z M 50.967 57.433 C 54.617 52.87 73.783 54.694 60.093 56.521 C 56.442 53.782 53.705 58.346 50.967 57.433 Z M 81.996 52.87 C 84.734 46.481 92.035 50.133 82.909 51.958 C 82.909 52.87 82.909 55.608 81.996 52.87 Z M 26.326 88.463 C 33.627 83.9 19.025 83.9 26.326 88.463 Z M 242.619 218.055 C 249.006 218.055 260.871 216.23 248.094 216.23 C 246.27 216.23 236.23 216.23 242.619 218.055 Z M 37.278 86.637 C 41.841 86.637 44.579 81.162 36.364 81.162 C 23.588 80.248 48.229 85.725 34.539 83.9 C 32.715 85.725 37.278 87.55 37.278 86.637 Z M 29.976 48.307 C 38.19 45.57 50.054 41.918 54.617 50.133 C 50.054 45.57 52.792 40.094 56.442 47.395 C 61.918 54.694 64.656 43.743 61.005 41.918 C 64.656 47.395 70.131 49.219 63.743 41.918 C 70.131 33.705 50.967 42.832 46.404 42.832 C 44.579 43.743 24.502 48.307 29.976 48.307 Z M 35.452 39.18 C 40.016 35.531 52.792 41.006 44.579 35.531 C 43.665 34.617 27.238 40.094 35.452 39.18 Z M 52.792 40.094 C 58.268 40.094 50.054 32.792 57.355 35.531 C 56.442 31.88 49.142 30.967 46.404 30.054 C 44.579 32.792 50.054 40.094 52.792 40.094 Z M 45.491 25.491 C 54.617 24.579 42.754 21.841 43.665 25.491 L 45.491 25.491 Z M 31.801 14.539 C 25.413 6.326 43.665 16.364 37.278 7.238 C 31.801 2.675 26.326 11.801 31.801 14.539 Z M 115.763 59.257 C 118.501 53.782 102.987 51.958 113.938 57.433 C 114.851 58.346 114.851 60.171 115.763 59.257 Z" style=""/>
</svg>