<?xml version="1.0" encoding="utf-8"?>
<svg viewBox="72.863 240.221 338.335 134.911" xmlns="http://www.w3.org/2000/svg">
  <g transform="matrix(0.10000000149011613, 0, 0, -0.10000000149011613, 85.31698671964546, 368.4729336535404)" fill="#000000" stroke="none">
    <path d="M1066 660 c-65 -22 -171 -62 -235 -89 -175 -74 -243 -92 -343 -93&#10;-51 -1 -100 4 -118 12 -29 12 -32 16 -27 47 5 30 4 33 -9 22 -22 -18 -13 -59&#10;17 -82 35 -26 137 -33 237 -18 42 7 196 53 343 102 146 49 279 89 296 89 21 0&#10;46 -12 79 -40 96 -79 198 -89 417 -40 156 35 284 56 292 48 3 -3 -8 -21 -25&#10;-39 -55 -61 -49 -109 14 -109 17 0 87 14 156 30 355 87 473 101 617 71 55 -12&#10;113 -21 127 -21 62 0 6 36 -94 61 -36 9 -116 14 -235 14 -176 0 -184 -1 -335&#10;-39 -85 -21 -166 -41 -179 -44 l-24 -5 26 35 c34 44 34 73 2 94 -34 22 -125&#10;14 -320 -30 -83 -19 -171 -37 -197 -41 -64 -10 -140 10 -193 50 -23 18 -52 38&#10;-63 44 -38 20 -106 11 -226 -29z" style="paint-order: stroke; stroke: rgb(191, 255, 0); fill: rgb(243, 18, 96);"/>
  </g>
</svg>